<svg xmlns="http://www.w3.org/2000/svg" viewBox="0 0 1634.57 885.96"><defs><style>.cls-1{fill:#e26b69;}.cls-2{fill:#fcef57;}.cls-3{fill:#66c5bb;}.cls-4{fill:#fadf6f;}.cls-5{fill:#f8ad5f;}.cls-6{fill:#dce24f;}.cls-7{fill:#f59584;}.cls-8{fill:#80d2f5;}.cls-9{fill:#f184b4;}.cls-10{fill:#e6b5d4;}.cls-11{fill:#d097c3;}.cls-12{fill:#f79e7a;}.cls-13{fill:#a9d4a0;}.cls-14{fill:#95d5d5;}.cls-15{fill:#d1e079;}.cls-16{fill:#f3879a;}.cls-17{fill:#f06d76;}.cls-18{fill:#f193bd;}</style></defs><title>Asset 24</title><g id="Layer_2" data-name="Layer 2"><g id="Layer_1-2" data-name="Layer 1"><path class="cls-1" d="M1549.47,558h0c-23.82.12-43.39,12-46.15,27.28q-.15.86-.24,1.71a177.2,177.2,0,0,0,3.25,62,169,169,0,0,0,21.52,52.83c.61,1,1.27,2.08,1.71,2.64a10.45,10.45,0,0,0,8.28,3.9l12.07,0h0l12.06,0a10.31,10.31,0,0,0,8.26-4,24.94,24.94,0,0,0,1.69-2.64,168.42,168.42,0,0,0,21.21-52.94,177,177,0,0,0,2.9-62c-.06-.58-.14-1.15-.25-1.72-2.86-15.26-22.49-27-46.3-27.06h0Z"/><polygon class="cls-2" points="632.57 434.8 593.51 367.15 632.57 299.49 710.69 299.49 749.75 367.15 710.69 434.8 632.57 434.8"/><polygon class="cls-3" points="590.26 156.51 671.63 15.57 753 156.51 590.26 156.51"/><circle class="cls-4" cx="1264.43" cy="633.14" r="74.55"/><path class="cls-5" d="M1500.24,135.41a88.29,88.29,0,0,0,124.6.26L1500,10.81A88.28,88.28,0,0,0,1500.24,135.41Z"/><polygon class="cls-6" points="289.04 107.23 303.96 41.51 364.65 12.19 425.41 41.37 440.49 107.06 398.52 159.81 331.12 159.88 289.04 107.23"/><polygon class="cls-7" points="1323.17 391.48 1347.5 367.15 1323.17 342.82 1323.17 308.41 1288.77 308.41 1264.43 284.08 1240.1 308.41 1205.7 308.41 1205.7 342.82 1181.37 367.15 1205.7 391.48 1205.7 425.88 1240.1 425.88 1264.43 450.21 1288.77 425.88 1323.17 425.88 1323.17 391.48"/><rect class="cls-8" x="30.84" y="283.57" width="92.07" height="167.16" rx="46.03" ry="46.03"/><path class="cls-9" d="M434.55,306.7a46.15,46.15,0,0,0-65.08,0L365,311.22l-4.9-4.9A46,46,0,1,0,295,371.41l70,70,69.6-71A44.48,44.48,0,0,0,434.55,306.7Z"/><path class="cls-10" d="M1303.8,80.32a40.44,40.44,0,0,0-14.88,2.89,40.48,40.48,0,1,0-49.11.09,40.47,40.47,0,1,0,24.64,46.57,40.47,40.47,0,1,0,39.35-49.55Z"/><path class="cls-11" d="M751.14,635.63a39.75,39.75,0,0,0-39.61-39.75c.05-.83.13-1.65.13-2.49a39.76,39.76,0,0,0-79.51,0c0,.85.08,1.67.13,2.5l-.4,0a39.76,39.76,0,0,0,0,79.51l.4,0a39.7,39.7,0,0,0,79.25,0A39.75,39.75,0,0,0,751.14,635.63Zm-79.38-2.48h-.25v0h.26Z"/><ellipse class="cls-12" cx="364.76" cy="633.14" rx="91.1" ry="46.98" transform="translate(-337.06 429.74) rotate(-43.89)"/><polygon class="cls-13" points="1464.65 348.49 1527.28 348.49 1550.43 285.59 1571.12 348.49 1634.57 348.22 1583.65 386.62 1605.43 448.7 1550.43 412.76 1495.15 448.7 1516.12 386.89 1464.65 348.49"/><polygon class="cls-14" points="1035.72 561.72 975.09 561.72 975.09 561.8 917.44 561.8 946.2 704.56 978.06 704.56 978.06 704.48 1006.96 704.48 1035.72 561.72"/><polygon class="cls-15" points="992.53 16.77 992.53 0.48 977.69 0.48 975.46 0.48 960.63 0.48 960.63 16.77 937.98 75.32 937.98 171.59 1015.18 171.59 1015.18 75.32 992.53 16.77"/><polygon class="cls-16" points="132.86 671.71 153.74 556.27 38.3 577.15 58.4 597.25 0 655.65 54.36 710.01 112.76 651.61 132.86 671.71"/><path class="cls-17" d="M96.58,42.86l15.58-29.51L85.32,27.52,76.82,0,68.33,27.47,41.58,13.35,57.16,42.86a66.1,66.1,0,1,0,39.42,0Z"/><path class="cls-18" d="M1022.3,376.56h0l-45-96.47L931.18,376h0a52.3,52.3,0,1,0,91.12.58Z"/><polygon class="cls-3" points="671.63 812.57 629.25 885.96 714.01 885.96 671.63 812.57"/><path class="cls-5" d="M1500,807.81A88.17,88.17,0,0,0,1475.85,886h102.29Z"/><polygon class="cls-6" points="425.41 838.37 364.65 809.19 303.96 838.5 293.18 885.96 436.33 885.96 425.41 838.37"/><path class="cls-10" d="M1303.8,877.32a40.44,40.44,0,0,0-14.88,2.89,40.48,40.48,0,1,0-49.11.09A40.36,40.36,0,0,0,1200.2,886h128.65A40.29,40.29,0,0,0,1303.8,877.32Z"/><polygon class="cls-15" points="1015.18 872.32 992.53 813.77 992.53 797.48 977.69 797.48 975.46 797.48 960.63 797.48 960.63 813.77 937.98 872.32 937.98 885.96 1015.18 885.96 1015.18 872.32"/><path class="cls-17" d="M96.58,839.86l15.58-29.51L85.32,824.52,76.82,797l-8.49,27.47L41.58,810.35l15.58,29.51A66.24,66.24,0,0,0,13,886H140.75A66.22,66.22,0,0,0,96.58,839.86Z"/></g></g></svg>