<?xml version="1.0" encoding="UTF-8"?>
<svg width="1660px" height="121px" viewBox="0 0 1660 121" version="1.1" xmlns="http://www.w3.org/2000/svg" xmlns:xlink="http://www.w3.org/1999/xlink">
    <!-- Generator: Sketch 50.2 (55047) - http://www.bohemiancoding.com/sketch -->
    <title>Shape</title>
    <desc>Created with Sketch.</desc>
    <defs></defs>
    <g id="Page-1" stroke="none" stroke-width="1" fill="none" fill-rule="evenodd">
        <g id="header-2" fill="#e26b69" fill-rule="nonzero">
            <path d="M0.15,1 L0.15,75 L0,101.39 C3.39,102.87 6.64,104.46 9.92,106.07 C24.87,113.41 40.33,121 70.92,121 C101.51,121 117,113.41 131.92,106.07 C145.63,99.35 158.58,93 185.02,93 C211.46,93 224.41,99.35 238.12,106.07 C253.07,113.41 268.53,121 299.12,121 C329.71,121 345.21,113.41 360.12,106.07 C374,99.37 386.9,93 413.35,93 C439.8,93 452.74,99.35 466.45,106.07 C481.4,113.43 496.86,121 527.48,121 C558.1,121 573.56,113.41 588.48,106.07 C602.19,99.35 615.14,93 641.58,93 C668.02,93 680.97,99.35 694.68,106.07 C709.68,113.41 725.09,121 755.68,121 C786.27,121 801.76,113.41 816.68,106.07 C830.39,99.35 843.34,93 869.78,93 C896.22,93 909.18,99.35 922.88,106.07 C937.83,113.41 953.29,121 983.88,121 C1014.47,121 1029.96,113.41 1044.88,106.07 C1058.59,99.35 1071.53,93 1097.98,93 C1124.43,93 1137.37,99.35 1151.08,106.07 C1166.08,113.41 1181.49,121 1212.08,121 C1242.67,121 1258.16,113.41 1273.08,106.07 C1287,99.37 1300,93 1326.4,93 C1352.8,93 1365.8,99.35 1379.51,106.07 C1394.51,113.41 1409.92,121 1440.51,121 C1471.1,121 1486.59,113.41 1501.51,106.07 C1515.22,99.35 1528.17,93 1554.62,93 C1581.07,93 1594.02,99.35 1607.73,106.08 C1621.18,112.67 1635.05,119.47 1659.99,120.77 L1659.99,7.10542736e-15 L0.15,1 Z" id="Shape"></path>
        </g>
    </g>
</svg>