<svg xmlns="http://www.w3.org/2000/svg" viewBox="0 0 106.35 29.48"><defs><style>.cls-1{fill:#fff;}</style></defs><title>logo</title><g id="Layer_2" data-name="Layer 2"><g id="Layer_1-2" data-name="Layer 1"><path class="cls-1" d="M-413.68-733.61c0,1.56-.78,2.84-1.77,3l-.12,0a11.7,11.7,0,0,1-4.05-.2,11,11,0,0,1-3.45-1.4l-.17-.11a.66.66,0,0,1-.26-.54v-.79h0v-.79a.67.67,0,0,1,.26-.54,1,1,0,0,1,.17-.11,11.11,11.11,0,0,1,3.46-1.4,11.68,11.68,0,0,1,4.05-.2l.11,0c1,.18,1.77,1.46,1.77,3Zm4.61,13.09a2.43,2.43,0,0,1-2.46-2.26v-15.8h0a7,7,0,0,0-7-6.87,7,7,0,0,0-7,6.87h0s0,15.76,0,15.8a2.26,2.26,0,0,1-2.26,2.26,2.26,2.26,0,0,1-2.26-2.26v-15.79A11.76,11.76,0,0,1-418.3-750a11.8,11.8,0,0,1,11.49,11.39v15.8A2.26,2.26,0,0,1-409.07-720.52Zm29.18,0a2.26,2.26,0,0,1-2.26-2.26v-15.8h0a7,7,0,0,0-7-6.87,7,7,0,0,0-7,6.87h0s0,15.76,0,15.8a2.27,2.27,0,0,1-2.26,2.26,2.26,2.26,0,0,1-2.26-2.26v-20.05a4.31,4.31,0,0,0-.54-1.92,2.75,2.75,0,0,1-.44-1.5,2.86,2.86,0,0,1,2.86-2.84,2.82,2.82,0,0,1,1.73.59,1.82,1.82,0,0,0,1.16.36,1.9,1.9,0,0,0,.84-.22,11.48,11.48,0,0,1,5.87-1.61,11.5,11.5,0,0,1,11.49,11.39h0s0,15.78,0,15.8A2.27,2.27,0,0,1-379.89-720.52Zm24.73-13.11c0,1.56-.78,2.84-1.78,3l-.11,0a11.68,11.68,0,0,1-4.05-.2,10.87,10.87,0,0,1-3.46-1.4l-.17-.11a.65.65,0,0,1-.26-.54v-.79h0v-.79a.7.7,0,0,1,.26-.54l.17-.11a11.36,11.36,0,0,1,3.46-1.4,11.68,11.68,0,0,1,4.05-.2l.11,0c1,.18,1.77,1.46,1.78,3Zm4.62,13.11a2.43,2.43,0,0,1-2.47-2.26v-15.8a7,7,0,0,0-7-6.87,7,7,0,0,0-7,6.87h0v15.8a2.26,2.26,0,0,1-2.26,2.26,2.26,2.26,0,0,1-2.26-2.26v-15.79A11.75,11.75,0,0,1-359.78-750a11.8,11.8,0,0,1,11.5,11.39v15.8A2.26,2.26,0,0,1-350.54-720.52Zm24.62-23.68a2.29,2.29,0,0,1-1.16-.32h0a6.9,6.9,0,0,0-3.52-1,7,7,0,0,0-7,6.87h0s0,15.76,0,15.8a2.26,2.26,0,0,1-2.26,2.26,2.26,2.26,0,0,1-2.26-2.26v-20.05a4.22,4.22,0,0,0-.54-1.92,2.75,2.75,0,0,1-.44-1.5,2.86,2.86,0,0,1,2.87-2.84,2.8,2.8,0,0,1,1.72.59,1.87,1.87,0,0,0,1.17.36,1.93,1.93,0,0,0,.84-.21A11.37,11.37,0,0,1-330.6-750a11.42,11.42,0,0,1,5.72,1.53l.23.13a2.28,2.28,0,0,1,1,1.88A2.27,2.27,0,0,1-325.92-744.2Z" transform="translate(430 750)"/></g></g></svg>