<svg xmlns="http://www.w3.org/2000/svg" viewBox="0 0 147.29 29.57"><defs><style>.cls-1{fill:#fff;}.cls-2{fill:#dd5857;}</style></defs><title>mailing list</title><g id="Layer_2" data-name="Layer 2"><g id="Layer_1-2" data-name="Layer 1"><path class="cls-1" d="M142.12,0H5.16A5.36,5.36,0,0,0,0,5.54V24a5.36,5.36,0,0,0,5.16,5.55h137A5.36,5.36,0,0,0,147.29,24V5.54A5.36,5.36,0,0,0,142.12,0Z"/><path class="cls-2" d="M10.82,7a1.36,1.36,0,0,1,2.32-.94,1.27,1.27,0,0,1,.4,1,1.37,1.37,0,0,1-1.35,1.37A1.37,1.37,0,0,1,10.82,7Zm2.41,3.76v14H11.14V10.79Z"/><path class="cls-2" d="M15.44,15.24a4.52,4.52,0,0,1,1.4-3.33,5,5,0,0,1,6.85,0,4.6,4.6,0,0,1,1.39,3.4,4.54,4.54,0,0,1-1.4,3.4,4.78,4.78,0,0,1-3.46,1.37,4.61,4.61,0,0,1-3.4-1.39A4.69,4.69,0,0,1,15.44,15.24Zm2.14,0a3,3,0,0,0,.72,2.14,2.53,2.53,0,0,0,2,.8,2.55,2.55,0,0,0,2-.79,3,3,0,0,0,.73-2.1,3,3,0,0,0-.73-2.11,2.57,2.57,0,0,0-2-.8,2.53,2.53,0,0,0-1.94.8A2.88,2.88,0,0,0,17.58,15.28Z"/><path class="cls-2" d="M27,7a1.29,1.29,0,0,1,.39-.94,1.31,1.31,0,0,1,1-.4A1.37,1.37,0,0,1,29.69,7a1.31,1.31,0,0,1-.4,1,1.28,1.28,0,0,1-.95.4A1.35,1.35,0,0,1,27,7Zm2.4,3.76v9H27.29v-9Z"/><path class="cls-2" d="M32,10.79h2.1v.84a3.4,3.4,0,0,1,2.47-1.09,3.09,3.09,0,0,1,2.45,1,4.06,4.06,0,0,1,.77,2.76v5.54h-2.1v-5a3.39,3.39,0,0,0-.37-1.85A1.51,1.51,0,0,0,36,12.41a1.63,1.63,0,0,0-1.48.69,4.79,4.79,0,0,0-.42,2.37v4.36H32Z"/><path class="cls-2" d="M48.3,10.79h2.09v.84a4.53,4.53,0,0,1,1-.86,2.54,2.54,0,0,1,1.14-.23A2.77,2.77,0,0,1,55,11.88a3.16,3.16,0,0,1,2.67-1.34q3,0,3.05,3.7v5.59H58.6v-5A3.9,3.9,0,0,0,58.29,13a1.17,1.17,0,0,0-1.07-.55,1.36,1.36,0,0,0-1.26.65,4.25,4.25,0,0,0-.39,2.09v4.67h-2.1v-5c0-1.61-.46-2.42-1.39-2.42a1.4,1.4,0,0,0-1.29.66,4.21,4.21,0,0,0-.4,2.08v4.67H48.3Z"/><path class="cls-2" d="M70,10.79h2.1v9H70v-.95a4,4,0,0,1-5.87-.15,5,5,0,0,1-1.21-3.45,4.87,4.87,0,0,1,1.21-3.38,3.91,3.91,0,0,1,3-1.36A3.81,3.81,0,0,1,70,11.84ZM65,15.28a3.13,3.13,0,0,0,.7,2.12,2.26,2.26,0,0,0,1.8.82,2.37,2.37,0,0,0,1.87-.8,3,3,0,0,0,.71-2.09,3.07,3.07,0,0,0-.71-2.1,2.37,2.37,0,0,0-1.86-.81,2.35,2.35,0,0,0-1.8.82A3,3,0,0,0,65,15.28Z"/><path class="cls-2" d="M74.41,7a1.26,1.26,0,0,1,.4-.94,1.29,1.29,0,0,1,1-.4,1.31,1.31,0,0,1,1,.4,1.27,1.27,0,0,1,.4,1,1.37,1.37,0,0,1-1.36,1.37,1.35,1.35,0,0,1-1-.4A1.32,1.32,0,0,1,74.41,7Zm2.4,3.76v9H74.73v-9Z"/><path class="cls-2" d="M81.54,4.16V19.83H79.46V4.16Z"/><path class="cls-2" d="M83.87,7a1.36,1.36,0,0,1,2.32-.94,1.27,1.27,0,0,1,.4,1,1.37,1.37,0,0,1-1.35,1.37A1.37,1.37,0,0,1,83.87,7Zm2.41,3.76v9H84.19v-9Z"/><path class="cls-2" d="M88.92,10.79H91v.84a3.39,3.39,0,0,1,2.46-1.09,3.1,3.1,0,0,1,2.46,1,4.07,4.07,0,0,1,.76,2.76v5.54H94.61v-5a3.39,3.39,0,0,0-.37-1.85,1.51,1.51,0,0,0-1.32-.52,1.62,1.62,0,0,0-1.48.69A4.79,4.79,0,0,0,91,15.47v4.36h-2.1Z"/><path class="cls-2" d="M108.08,19.61c0,.43,0,.81,0,1.13a8.11,8.11,0,0,1-.12.86,3.86,3.86,0,0,1-.87,1.75,4.23,4.23,0,0,1-3.37,1.41,4.49,4.49,0,0,1-3-1A4,4,0,0,1,99.31,21h2.1a2.29,2.29,0,0,0,.4,1,2.22,2.22,0,0,0,1.89.85c1.53,0,2.29-.94,2.29-2.81V18.82a3.92,3.92,0,0,1-2.87,1.27,3.84,3.84,0,0,1-3-1.34,5,5,0,0,1-1.19-3.39A5.23,5.23,0,0,1,100,12a3.85,3.85,0,0,1,3.14-1.47A3.63,3.63,0,0,1,106,11.81v-1h2.09Zm-2-4.28a3.05,3.05,0,0,0-.7-2.11,2.34,2.34,0,0,0-1.83-.81,2.23,2.23,0,0,0-1.87.89,3.15,3.15,0,0,0-.63,2,3.15,3.15,0,0,0,.63,2,2.25,2.25,0,0,0,1.87.86,2.28,2.28,0,0,0,1.89-.87A3.09,3.09,0,0,0,106.07,15.33Z"/><path class="cls-2" d="M118.66,4.16V19.83h-2.08V4.16Z"/><path class="cls-2" d="M121,7a1.26,1.26,0,0,1,.4-.94,1.29,1.29,0,0,1,1-.4,1.31,1.31,0,0,1,1,.4,1.27,1.27,0,0,1,.4,1,1.37,1.37,0,0,1-1.36,1.37,1.35,1.35,0,0,1-1-.4A1.32,1.32,0,0,1,121,7Zm2.4,3.76v9h-2.08v-9Z"/><path class="cls-2" d="M131.29,12.33l-1.73.92c-.27-.56-.6-.84-1-.84a.73.73,0,0,0-.49.19.66.66,0,0,0-.2.49c0,.35.4.69,1.2,1a7.25,7.25,0,0,1,2.24,1.32,2.26,2.26,0,0,1,.57,1.62,2.86,2.86,0,0,1-1,2.19,3.45,3.45,0,0,1-5.48-1.38l1.78-.83a4,4,0,0,0,.56.83,1.28,1.28,0,0,0,.91.35c.71,0,1.06-.32,1.06-1,0-.37-.27-.72-.82-1l-.63-.31-.64-.3a4.18,4.18,0,0,1-1.28-.89,2.24,2.24,0,0,1-.47-1.46,2.56,2.56,0,0,1,.81-1.95,2.85,2.85,0,0,1,2-.77A2.73,2.73,0,0,1,131.29,12.33Z"/><path class="cls-2" d="M135.9,12.74v7.09h-2.09V12.74h-.89v-2h.89V7.48h2.09v3.31h1.62v2Z"/></g></g></svg>