<svg xmlns="http://www.w3.org/2000/svg" viewBox="0 0 1490.67 916"><defs><style>.cls-1{fill:#ffe98d;}</style></defs><title>pressbg</title><g id="Layer_2" data-name="Layer 2"><g id="Layer_1-2" data-name="Layer 1"><path class="cls-1" d="M0,0V916H1490.67V0ZM880.26,28.72,927.78,47a102.57,102.57,0,0,0-10,18.35,53.49,53.49,0,0,0-4.06,20.82,25.79,25.79,0,0,0,.49,4.8,16.21,16.21,0,0,0,1.6,4.68,11.26,11.26,0,0,0,3,3.58,7.45,7.45,0,0,0,4.8,1.47,6,6,0,0,0,4.19-1.35,10.68,10.68,0,0,0,2.46-3.45,19.72,19.72,0,0,0,1.48-4.43c.33-1.56.66-3,1-4.32l3.45-15.27a103,103,0,0,1,6.65-19.71,54.75,54.75,0,0,1,10.59-15.64A45.77,45.77,0,0,1,968.71,26.3a53.64,53.64,0,0,1,20.69-3.69q16.76,0,29.07,6.9a64.74,64.74,0,0,1,20.69,18.23,78.67,78.67,0,0,1,12.45,25.86,109.42,109.42,0,0,1,4.06,29.57,156.78,156.78,0,0,1-4.59,36.66h0a161.67,161.67,0,0,1-12.44,34.73l-52.47-20.69,2.71-3.45A101,101,0,0,0,1001,130.71a52.46,52.46,0,0,0,4.93-22.42,35.43,35.43,0,0,0-.5-5.54,18.3,18.3,0,0,0-1.84-5.67,14,14,0,0,0-3.45-4.31,8,8,0,0,0-5.3-1.72,7.91,7.91,0,0,0-5,1.47,9.63,9.63,0,0,0-2.83,3.7,21.23,21.23,0,0,0-1.48,4.93c-.33,1.81-.67,3.45-1,4.92L982,119.62a83.84,83.84,0,0,1-5.54,18.73,54,54,0,0,1-10,15.52,45,45,0,0,1-14.54,10.47,45.65,45.65,0,0,1-19.21,3.82q-16.5,0-29.32-6.9A67.25,67.25,0,0,1,881.83,143a82.47,82.47,0,0,1-13.3-25.75A97.75,97.75,0,0,1,864,87.6,111.6,111.6,0,0,1,880.26,28.72Zm-214,0L713.78,47a102.57,102.57,0,0,0-10,18.35,53.49,53.49,0,0,0-4.06,20.82,25.79,25.79,0,0,0,.49,4.8,16.21,16.21,0,0,0,1.6,4.68,11.26,11.26,0,0,0,3,3.58,7.45,7.45,0,0,0,4.8,1.47,6,6,0,0,0,4.19-1.35,10.68,10.68,0,0,0,2.46-3.45,19.72,19.72,0,0,0,1.48-4.43c.33-1.56.66-3,1-4.32l3.45-15.27a103,103,0,0,1,6.65-19.71A54.83,54.83,0,0,1,739.4,36.48a45.77,45.77,0,0,1,15.28-10.23,53.64,53.64,0,0,1,20.69-3.69q16.75,0,29.07,6.9a64.74,64.74,0,0,1,20.69,18.23,78.67,78.67,0,0,1,12.45,25.86,109.42,109.42,0,0,1,4.06,29.57,157.17,157.17,0,0,1-4.56,36.71h0a161.67,161.67,0,0,1-12.44,34.73l-52.47-20.69,2.71-3.45A101,101,0,0,0,787,130.71a52.46,52.46,0,0,0,4.93-22.42,35.43,35.43,0,0,0-.5-5.54,18.3,18.3,0,0,0-1.84-5.67,14,14,0,0,0-3.45-4.31,8.08,8.08,0,0,0-5.3-1.72,7.89,7.89,0,0,0-5,1.47,9.63,9.63,0,0,0-2.83,3.7,21.23,21.23,0,0,0-1.48,4.93c-.33,1.81-.66,3.45-1,4.92L768,119.62a83.84,83.84,0,0,1-5.54,18.73,54,54,0,0,1-10,15.52,45,45,0,0,1-14.54,10.47,45.65,45.65,0,0,1-19.21,3.82q-16.5,0-29.32-6.9A67.25,67.25,0,0,1,667.83,143a82.47,82.47,0,0,1-13.3-25.75A97.75,97.75,0,0,1,650,87.6,111.6,111.6,0,0,1,666.26,28.72Zm-214,0L499.78,47a102.57,102.57,0,0,0-10,18.35,53.49,53.49,0,0,0-4.06,20.82,25.79,25.79,0,0,0,.49,4.8,16.21,16.21,0,0,0,1.6,4.68,11.26,11.26,0,0,0,3,3.58,7.45,7.45,0,0,0,4.8,1.47,6,6,0,0,0,4.19-1.35,10.68,10.68,0,0,0,2.46-3.45,19.72,19.72,0,0,0,1.48-4.43c.33-1.56.66-3,1-4.32l3.45-15.27a103,103,0,0,1,6.65-19.71A54.83,54.83,0,0,1,525.4,36.48a45.77,45.77,0,0,1,15.28-10.23,53.64,53.64,0,0,1,20.69-3.69q16.75,0,29.07,6.9a64.74,64.74,0,0,1,20.69,18.23,78.67,78.67,0,0,1,12.45,25.86,109.42,109.42,0,0,1,4.06,29.57,157.17,157.17,0,0,1-4.56,36.71h0a161.67,161.67,0,0,1-12.44,34.73l-52.47-20.69,2.71-3.45A101,101,0,0,0,573,130.71a52.46,52.46,0,0,0,4.93-22.42,35.43,35.43,0,0,0-.5-5.54,18.3,18.3,0,0,0-1.84-5.67,14,14,0,0,0-3.45-4.31,8.08,8.08,0,0,0-5.3-1.72,7.89,7.89,0,0,0-5,1.47,9.63,9.63,0,0,0-2.83,3.7,21.23,21.23,0,0,0-1.48,4.93c-.33,1.81-.66,3.45-1,4.92L554,119.62a83.84,83.84,0,0,1-5.54,18.73,54,54,0,0,1-10,15.52,45,45,0,0,1-14.54,10.47,45.65,45.65,0,0,1-19.21,3.82q-16.5,0-29.32-6.9A67.25,67.25,0,0,1,453.83,143a82.47,82.47,0,0,1-13.3-25.75A97.75,97.75,0,0,1,436,87.6,111.6,111.6,0,0,1,452.26,28.72Zm-214,0L285.78,47a102.57,102.57,0,0,0-10,18.35,53.49,53.49,0,0,0-4.06,20.82,25.79,25.79,0,0,0,.49,4.8,16.21,16.21,0,0,0,1.6,4.68,11.26,11.26,0,0,0,3,3.58,7.45,7.45,0,0,0,4.8,1.47,6,6,0,0,0,4.19-1.35,10.68,10.68,0,0,0,2.46-3.45,19.72,19.72,0,0,0,1.48-4.43c.33-1.56.67-3,1-4.32l3.45-15.27a103,103,0,0,1,6.65-19.71A54.83,54.83,0,0,1,311.4,36.48a45.77,45.77,0,0,1,15.28-10.23,53.64,53.64,0,0,1,20.69-3.69q16.75,0,29.07,6.9a64.74,64.74,0,0,1,20.69,18.23,78.67,78.67,0,0,1,12.45,25.86,109.42,109.42,0,0,1,4.06,29.57,157.17,157.17,0,0,1-4.56,36.71,161.67,161.67,0,0,1-12.44,34.73l-52.47-20.69,2.71-3.45A101,101,0,0,0,359,130.71a52.46,52.46,0,0,0,4.93-22.42,35.43,35.43,0,0,0-.5-5.54,18.3,18.3,0,0,0-1.84-5.67,14,14,0,0,0-3.45-4.31,8.06,8.06,0,0,0-5.3-1.72,7.93,7.93,0,0,0-5,1.47,9.63,9.63,0,0,0-2.83,3.7,21.23,21.23,0,0,0-1.48,4.93c-.33,1.81-.66,3.45-1,4.92L340,119.62a83.84,83.84,0,0,1-5.54,18.73,54,54,0,0,1-10,15.52,45,45,0,0,1-14.54,10.47,45.65,45.65,0,0,1-19.21,3.82q-16.5,0-29.32-6.9A67.25,67.25,0,0,1,239.83,143a82.47,82.47,0,0,1-13.3-25.75A97.75,97.75,0,0,1,222,87.6,111.6,111.6,0,0,1,238.26,28.72Zm-214,0L71.78,47a102.57,102.57,0,0,0-10,18.35,53.49,53.49,0,0,0-4.06,20.82,25.79,25.79,0,0,0,.49,4.8,16.21,16.21,0,0,0,1.6,4.68,11.26,11.26,0,0,0,3,3.58,7.45,7.45,0,0,0,4.8,1.47,6,6,0,0,0,4.19-1.35,10.68,10.68,0,0,0,2.46-3.45,19.72,19.72,0,0,0,1.48-4.43c.33-1.56.67-3,1-4.32l3.45-15.27a103,103,0,0,1,6.65-19.71A54.83,54.83,0,0,1,97.4,36.48a45.77,45.77,0,0,1,15.28-10.23,53.64,53.64,0,0,1,20.69-3.69q16.75,0,29.07,6.9a64.74,64.74,0,0,1,20.69,18.23,78.67,78.67,0,0,1,12.45,25.86,109.42,109.42,0,0,1,4.06,29.57,157.17,157.17,0,0,1-4.56,36.71,161.67,161.67,0,0,1-12.44,34.73l-52.47-20.69,2.71-3.45A101,101,0,0,0,145,130.71a52.46,52.46,0,0,0,4.93-22.42,35.43,35.43,0,0,0-.5-5.54,18.3,18.3,0,0,0-1.84-5.67,14,14,0,0,0-3.45-4.31,8.08,8.08,0,0,0-5.3-1.72,7.91,7.91,0,0,0-5,1.47,9.63,9.63,0,0,0-2.83,3.7,21.23,21.23,0,0,0-1.48,4.93c-.33,1.81-.67,3.45-1,4.92L126,119.62a83.84,83.84,0,0,1-5.54,18.73,54,54,0,0,1-10,15.52,45,45,0,0,1-14.54,10.47,45.65,45.65,0,0,1-19.21,3.82q-16.5,0-29.32-6.9A67.25,67.25,0,0,1,25.83,143a82.47,82.47,0,0,1-13.3-25.75A97.75,97.75,0,0,1,8,87.6,111.6,111.6,0,0,1,24.26,28.72ZM10.93,897.13V811.64a102.91,102.91,0,0,1,4.19-30,66.81,66.81,0,0,1,12.68-23.9A58.27,58.27,0,0,1,49.12,742q12.81-5.65,30-5.66a71.72,71.72,0,0,1,25.62,4.31,55,55,0,0,1,19.34,12.19,52.76,52.76,0,0,1,12.32,19.34,71.74,71.74,0,0,1,4.31,25.5v34.49h55.92l.05,65ZM196.68,608.64l-59.61,29.57v1.23h59.61v66H10.93V623.92a124.18,124.18,0,0,1,3.45-29.81,68.9,68.9,0,0,1,11.21-24.64,54.91,54.91,0,0,1,20.08-16.75q12.31-6.15,29.81-6.16a69.58,69.58,0,0,1,18.23,2.09,37.56,37.56,0,0,1,13.3,6.53,39,39,0,0,1,9.61,11.21,90.47,90.47,0,0,1,7.14,16.14h1.48q2-2.71,4.43-5.67a29.58,29.58,0,0,1,6.66-5.66l60.35-40.41Zm0-101H10.93V382.73H61.68v56.91H79.42v-52H127.7v52h18.23V380.76h50.75Zm-1.6-192.16a161.22,161.22,0,0,1-12.44,34.74l-52.47-20.7,2.71-3.45A99.72,99.72,0,0,0,145,306.36a52.46,52.46,0,0,0,4.93-22.42,35.43,35.43,0,0,0-.5-5.54,18.16,18.16,0,0,0-1.84-5.66,14.17,14.17,0,0,0-3.45-4.32,8.13,8.13,0,0,0-5.3-1.72,7.84,7.84,0,0,0-5,1.48,9.68,9.68,0,0,0-2.83,3.69,21.72,21.72,0,0,0-1.48,4.93c-.33,1.81-.66,3.45-1,4.93L126,295.28A83.65,83.65,0,0,1,120.44,314a54,54,0,0,1-10,15.52A44.87,44.87,0,0,1,95.92,340a45.65,45.65,0,0,1-19.21,3.82q-16.5,0-29.32-6.9a67,67,0,0,1-21.56-18.23A82.63,82.63,0,0,1,12.53,293,97.81,97.81,0,0,1,8,263.25a111.6,111.6,0,0,1,16.26-58.88L71.81,222.6a101.69,101.69,0,0,0-10,18.36,53.44,53.44,0,0,0-4.06,20.81,25.81,25.81,0,0,0,.49,4.81,16.83,16.83,0,0,0,1.6,4.68,11.46,11.46,0,0,0,3,3.57,7.46,7.46,0,0,0,4.8,1.48A6,6,0,0,0,71.83,275a10.68,10.68,0,0,0,2.46-3.45,19.72,19.72,0,0,0,1.48-4.43c.33-1.56.66-3,1-4.31l3.45-15.28a103,103,0,0,1,6.65-19.71,54.75,54.75,0,0,1,10.59-15.64,45.74,45.74,0,0,1,15.28-10.22,53.43,53.43,0,0,1,20.69-3.7q16.75,0,29.07,6.9a64.74,64.74,0,0,1,20.69,18.23,78.81,78.81,0,0,1,12.45,25.87,109,109,0,0,1,4.06,29.56A157.17,157.17,0,0,1,195.08,315.48Zm215.6,581.65H224.93V811.64a102.91,102.91,0,0,1,4.19-30,66.81,66.81,0,0,1,12.68-23.9A58.27,58.27,0,0,1,263.12,742q12.81-5.65,30.05-5.66a71.72,71.72,0,0,1,25.62,4.31,55,55,0,0,1,19.34,12.19,52.76,52.76,0,0,1,12.32,19.34,71.74,71.74,0,0,1,4.31,25.5v34.49h55.92Zm0-288.49-59.61,29.57v1.23h59.61v66H224.93V623.92a124.18,124.18,0,0,1,3.45-29.81,68.9,68.9,0,0,1,11.21-24.64,54.91,54.91,0,0,1,20.08-16.75q12.31-6.15,29.81-6.16a69.58,69.58,0,0,1,18.23,2.09,37.56,37.56,0,0,1,13.3,6.53,39,39,0,0,1,9.61,11.21,90.47,90.47,0,0,1,7.14,16.14h1.48q2-2.71,4.43-5.67a29.58,29.58,0,0,1,6.66-5.66l60.35-40.41Zm0-101H224.93V382.73h50.75v56.91h17.74v-52H341.7v52h18.23V380.76h50.75Zm-1.6-192.16a161.22,161.22,0,0,1-12.44,34.74l-52.47-20.7,2.71-3.45A99.72,99.72,0,0,0,359,306.36a52.46,52.46,0,0,0,4.93-22.42,35.43,35.43,0,0,0-.5-5.54,18.16,18.16,0,0,0-1.84-5.66,14.17,14.17,0,0,0-3.45-4.32,8.13,8.13,0,0,0-5.3-1.72,7.86,7.86,0,0,0-5,1.48,9.68,9.68,0,0,0-2.83,3.69,21.72,21.72,0,0,0-1.48,4.93c-.33,1.81-.66,3.45-1,4.93L340,295.28A83.65,83.65,0,0,1,334.44,314a54,54,0,0,1-10,15.52A44.87,44.87,0,0,1,309.92,340a45.65,45.65,0,0,1-19.21,3.82q-16.5,0-29.32-6.9a67,67,0,0,1-21.56-18.23A82.63,82.63,0,0,1,226.53,293a97.81,97.81,0,0,1-4.53-29.7,111.6,111.6,0,0,1,16.26-58.88l47.55,18.23a101.69,101.69,0,0,0-10,18.36,53.44,53.44,0,0,0-4.06,20.81,25.81,25.81,0,0,0,.49,4.81,16.83,16.83,0,0,0,1.6,4.68,11.46,11.46,0,0,0,3,3.57,7.46,7.46,0,0,0,4.8,1.48,6,6,0,0,0,4.19-1.36,10.68,10.68,0,0,0,2.46-3.45,19.72,19.72,0,0,0,1.48-4.43c.33-1.56.66-3,1-4.31l3.45-15.28a103,103,0,0,1,6.65-19.71,54.75,54.75,0,0,1,10.59-15.64,45.74,45.74,0,0,1,15.28-10.22,53.43,53.43,0,0,1,20.69-3.7q16.76,0,29.07,6.9a64.74,64.74,0,0,1,20.69,18.23,78.81,78.81,0,0,1,12.45,25.87,109,109,0,0,1,4.06,29.56A157.17,157.17,0,0,1,409.08,315.48Zm29.85,581.65V811.64a102.91,102.91,0,0,1,4.19-30,66.81,66.81,0,0,1,12.68-23.9A58.27,58.27,0,0,1,477.12,742q12.81-5.65,30-5.66a71.72,71.72,0,0,1,25.62,4.31,55,55,0,0,1,19.34,12.19,52.76,52.76,0,0,1,12.32,19.34,71.74,71.74,0,0,1,4.31,25.5v34.49h55.92l0,65ZM624.68,639.44v66H438.93V623.92a124.18,124.18,0,0,1,3.45-29.81,68.9,68.9,0,0,1,11.21-24.64,54.91,54.91,0,0,1,20.08-16.75q12.31-6.15,29.81-6.16a69.58,69.58,0,0,1,18.23,2.09,37.56,37.56,0,0,1,13.3,6.53,39,39,0,0,1,9.61,11.21,90.47,90.47,0,0,1,7.14,16.14h1.48q2-2.71,4.43-5.67a29.58,29.58,0,0,1,6.66-5.66l60.35-40.41v77.85l-59.61,29.57v1.23ZM438.93,507.64V382.73h50.75v56.91h17.74v-52H555.7v52h18.23V380.76h50.75V507.64ZM623.08,315.48h0a161.22,161.22,0,0,1-12.44,34.74l-52.47-20.7,2.71-3.45A99.72,99.72,0,0,0,573,306.36a52.46,52.46,0,0,0,4.93-22.42,35.43,35.43,0,0,0-.5-5.54,18.16,18.16,0,0,0-1.84-5.66,14.17,14.17,0,0,0-3.45-4.32,8.13,8.13,0,0,0-5.3-1.72,7.84,7.84,0,0,0-5,1.48,9.68,9.68,0,0,0-2.83,3.69,21.72,21.72,0,0,0-1.48,4.93c-.33,1.81-.66,3.45-1,4.93L554,295.28A83.65,83.65,0,0,1,548.44,314a54,54,0,0,1-10,15.52A44.87,44.87,0,0,1,523.92,340a45.65,45.65,0,0,1-19.21,3.82q-16.5,0-29.32-6.9a67,67,0,0,1-21.56-18.23A82.63,82.63,0,0,1,440.53,293a97.81,97.81,0,0,1-4.53-29.7,111.6,111.6,0,0,1,16.26-58.88l47.55,18.23a101.69,101.69,0,0,0-10,18.36,53.44,53.44,0,0,0-4.06,20.81,25.81,25.81,0,0,0,.49,4.81,16.83,16.83,0,0,0,1.6,4.68,11.46,11.46,0,0,0,3,3.57,7.46,7.46,0,0,0,4.8,1.48,6,6,0,0,0,4.19-1.36,10.68,10.68,0,0,0,2.46-3.45,19.72,19.72,0,0,0,1.48-4.43c.33-1.56.66-3,1-4.31l3.45-15.28a103,103,0,0,1,6.65-19.71,54.75,54.75,0,0,1,10.59-15.64,45.74,45.74,0,0,1,15.28-10.22,53.43,53.43,0,0,1,20.69-3.7q16.76,0,29.07,6.9a64.74,64.74,0,0,1,20.69,18.23,78.81,78.81,0,0,1,12.45,25.87,109,109,0,0,1,4.06,29.56A157.17,157.17,0,0,1,623.08,315.48Zm29.85,581.65V811.64a102.91,102.91,0,0,1,4.19-30,66.81,66.81,0,0,1,12.68-23.9A58.27,58.27,0,0,1,691.12,742q12.81-5.65,30-5.66a71.72,71.72,0,0,1,25.62,4.31,55,55,0,0,1,19.34,12.19,52.76,52.76,0,0,1,12.32,19.34,71.74,71.74,0,0,1,4.31,25.5v34.49h55.92l0,65ZM838.68,639.44v66H652.93V623.92a124.18,124.18,0,0,1,3.45-29.81,68.9,68.9,0,0,1,11.21-24.64,54.91,54.91,0,0,1,20.08-16.75q12.32-6.15,29.81-6.16a69.58,69.58,0,0,1,18.23,2.09,37.56,37.56,0,0,1,13.3,6.53,39,39,0,0,1,9.61,11.21,90.47,90.47,0,0,1,7.14,16.14h1.48q2-2.71,4.43-5.67a29.58,29.58,0,0,1,6.66-5.66l60.35-40.41v77.85l-59.61,29.57v1.23ZM652.93,507.64V382.73h50.75v56.91h17.74v-52H769.7v52h18.23V380.76h50.75V507.64ZM837.08,315.48h0a161.22,161.22,0,0,1-12.44,34.74l-52.47-20.7,2.71-3.45A99.72,99.72,0,0,0,787,306.36a52.46,52.46,0,0,0,4.93-22.42,35.43,35.43,0,0,0-.5-5.54,18.16,18.16,0,0,0-1.84-5.66,14.17,14.17,0,0,0-3.45-4.32,8.13,8.13,0,0,0-5.3-1.72,7.84,7.84,0,0,0-5,1.48,9.68,9.68,0,0,0-2.83,3.69,21.72,21.72,0,0,0-1.48,4.93c-.33,1.81-.66,3.45-1,4.93L768,295.28A83.65,83.65,0,0,1,762.44,314a54,54,0,0,1-10,15.52A44.87,44.87,0,0,1,737.92,340a45.65,45.65,0,0,1-19.21,3.82q-16.5,0-29.32-6.9a67,67,0,0,1-21.56-18.23A82.63,82.63,0,0,1,654.53,293a97.81,97.81,0,0,1-4.53-29.7,111.6,111.6,0,0,1,16.26-58.88l47.55,18.23a101.69,101.69,0,0,0-10,18.36,53.44,53.44,0,0,0-4.06,20.81,25.81,25.81,0,0,0,.49,4.81,16.83,16.83,0,0,0,1.6,4.68,11.46,11.46,0,0,0,3,3.57,7.46,7.46,0,0,0,4.8,1.48,6,6,0,0,0,4.19-1.36,10.68,10.68,0,0,0,2.46-3.45,19.72,19.72,0,0,0,1.48-4.43c.33-1.56.66-3,1-4.31l3.45-15.28a103,103,0,0,1,6.65-19.71,54.75,54.75,0,0,1,10.59-15.64,45.74,45.74,0,0,1,15.28-10.22,53.43,53.43,0,0,1,20.69-3.7q16.76,0,29.07,6.9a64.74,64.74,0,0,1,20.69,18.23,78.81,78.81,0,0,1,12.45,25.87,109,109,0,0,1,4.06,29.56A157.17,157.17,0,0,1,837.08,315.48Zm215.6,581.65H866.93V811.64a102.91,102.91,0,0,1,4.19-30,66.81,66.81,0,0,1,12.68-23.9A58.27,58.27,0,0,1,905.12,742q12.81-5.65,30-5.66a71.72,71.72,0,0,1,25.62,4.31,55,55,0,0,1,19.34,12.19,52.76,52.76,0,0,1,12.32,19.34,71.74,71.74,0,0,1,4.31,25.5v34.49h55.92Zm0-288.49-59.61,29.57v1.23h59.61v66H866.93V623.92a124.18,124.18,0,0,1,3.45-29.81,68.9,68.9,0,0,1,11.21-24.64,54.91,54.91,0,0,1,20.08-16.75q12.32-6.15,29.81-6.16a69.58,69.58,0,0,1,18.23,2.09,37.56,37.56,0,0,1,13.3,6.53,39,39,0,0,1,9.61,11.21,90.47,90.47,0,0,1,7.14,16.14h1.48q2-2.71,4.43-5.67a29.58,29.58,0,0,1,6.66-5.66l60.35-40.41Zm-117.26-169v-52H983.7v52h18.23V380.76h50.75V507.64H866.93V382.73h50.75v56.91Zm115.66-124.16h0a161.22,161.22,0,0,1-12.44,34.74l-52.47-20.7,2.71-3.45A99.72,99.72,0,0,0,1001,306.36a52.46,52.46,0,0,0,4.93-22.42,35.43,35.43,0,0,0-.5-5.54,18.16,18.16,0,0,0-1.84-5.66,14.17,14.17,0,0,0-3.45-4.32,8.13,8.13,0,0,0-5.3-1.72,7.84,7.84,0,0,0-5,1.48,9.68,9.68,0,0,0-2.83,3.69,21.72,21.72,0,0,0-1.48,4.93c-.33,1.81-.66,3.45-1,4.93L982,295.28A83.76,83.76,0,0,1,976.46,314a54,54,0,0,1-10,15.52A44.8,44.8,0,0,1,951.92,340a45.65,45.65,0,0,1-19.21,3.82q-16.5,0-29.32-6.9a67,67,0,0,1-21.56-18.23A82.63,82.63,0,0,1,868.53,293a97.81,97.81,0,0,1-4.53-29.7,111.6,111.6,0,0,1,16.26-58.88l47.55,18.23a101.69,101.69,0,0,0-10,18.36,53.44,53.44,0,0,0-4.06,20.81,25.81,25.81,0,0,0,.49,4.81,16.83,16.83,0,0,0,1.6,4.68,11.46,11.46,0,0,0,3,3.57,7.46,7.46,0,0,0,4.8,1.48,6,6,0,0,0,4.19-1.36,10.68,10.68,0,0,0,2.46-3.45,19.72,19.72,0,0,0,1.48-4.43c.33-1.56.66-3,1-4.31l3.45-15.28a103,103,0,0,1,6.65-19.71,54.75,54.75,0,0,1,10.59-15.64,45.74,45.74,0,0,1,15.28-10.22,53.43,53.43,0,0,1,20.69-3.7q16.76,0,29.07,6.9a64.74,64.74,0,0,1,20.69,18.23,78.81,78.81,0,0,1,12.45,25.87,109.4,109.4,0,0,1,4.06,29.56A157.17,157.17,0,0,1,1051.08,315.48Zm215.6,581.65H1080.93V811.64a102.91,102.91,0,0,1,4.19-30,66.81,66.81,0,0,1,12.68-23.9A58.27,58.27,0,0,1,1119.12,742q12.81-5.65,30.05-5.66a71.72,71.72,0,0,1,25.62,4.31,55,55,0,0,1,19.34,12.19,52.76,52.76,0,0,1,12.32,19.34,71.74,71.74,0,0,1,4.31,25.5v34.49h55.92Zm0-288.49-59.61,29.57v1.23h59.61v66H1080.93V623.92a124.18,124.18,0,0,1,3.45-29.81,68.9,68.9,0,0,1,11.21-24.64,54.83,54.83,0,0,1,20.08-16.75q12.32-6.15,29.81-6.16a69.58,69.58,0,0,1,18.23,2.09,37.56,37.56,0,0,1,13.3,6.53,39,39,0,0,1,9.61,11.21,90.47,90.47,0,0,1,7.14,16.14h1.48q2-2.71,4.43-5.67a29.58,29.58,0,0,1,6.66-5.66l60.35-40.41Zm0-101H1080.93V382.73h50.75v56.91h17.74v-52h48.28v52h18.23V380.76h50.75Zm-1.6-192.16h0a161.22,161.22,0,0,1-12.44,34.74l-52.47-20.7,2.71-3.45A99.72,99.72,0,0,0,1215,306.36a52.46,52.46,0,0,0,4.93-22.42,35.43,35.43,0,0,0-.5-5.54,18.16,18.16,0,0,0-1.84-5.66,14.17,14.17,0,0,0-3.45-4.32,8.13,8.13,0,0,0-5.3-1.72,7.84,7.84,0,0,0-5,1.48,9.68,9.68,0,0,0-2.83,3.69,21.72,21.72,0,0,0-1.48,4.93c-.33,1.81-.66,3.45-1,4.93L1196,295.28a83.76,83.76,0,0,1-5.54,18.72,54,54,0,0,1-10,15.52A44.8,44.8,0,0,1,1165.92,340a45.65,45.65,0,0,1-19.21,3.82q-16.5,0-29.32-6.9a67,67,0,0,1-21.56-18.23,82.63,82.63,0,0,1-13.3-25.74,97.73,97.73,0,0,1-4.56-29.69,111.6,111.6,0,0,1,16.26-58.88l47.55,18.23a101.69,101.69,0,0,0-10,18.36,53.44,53.44,0,0,0-4.06,20.81,25.81,25.81,0,0,0,.49,4.81,16.83,16.83,0,0,0,1.6,4.68,11.46,11.46,0,0,0,3,3.57,7.46,7.46,0,0,0,4.8,1.48,6,6,0,0,0,4.19-1.36,10.68,10.68,0,0,0,2.46-3.45,19.72,19.72,0,0,0,1.48-4.43c.33-1.56.66-3,1-4.31l3.45-15.28a103,103,0,0,1,6.65-19.71,54.75,54.75,0,0,1,10.59-15.64,45.74,45.74,0,0,1,15.28-10.22,53.43,53.43,0,0,1,20.69-3.7q16.75,0,29.07,6.9a64.85,64.85,0,0,1,20.69,18.23,78.81,78.81,0,0,1,12.45,25.87,109.4,109.4,0,0,1,4.06,29.56A157.12,157.12,0,0,1,1265.08,315.48Zm0-175.65h0a161.67,161.67,0,0,1-12.44,34.73l-52.47-20.69,2.71-3.45A101,101,0,0,0,1215,130.71a52.46,52.46,0,0,0,4.93-22.42,35.43,35.43,0,0,0-.5-5.54,18.3,18.3,0,0,0-1.84-5.67,14,14,0,0,0-3.45-4.31,8,8,0,0,0-5.3-1.72,7.91,7.91,0,0,0-5,1.47,9.63,9.63,0,0,0-2.83,3.7,21.23,21.23,0,0,0-1.48,4.93c-.33,1.81-.67,3.45-1,4.92L1196,119.62a83.84,83.84,0,0,1-5.54,18.73,54,54,0,0,1-10,15.52,45,45,0,0,1-14.54,10.47,45.65,45.65,0,0,1-19.21,3.82q-16.5,0-29.32-6.9A67.25,67.25,0,0,1,1095.83,143a82.47,82.47,0,0,1-13.3-25.75A97.75,97.75,0,0,1,1078,87.6a111.6,111.6,0,0,1,16.26-58.88L1141.78,47a102.57,102.57,0,0,0-10,18.35,53.49,53.49,0,0,0-4.06,20.82,25.79,25.79,0,0,0,.49,4.8,16.21,16.21,0,0,0,1.6,4.68,11.26,11.26,0,0,0,3,3.58,7.45,7.45,0,0,0,4.8,1.47,6,6,0,0,0,4.19-1.35,10.68,10.68,0,0,0,2.46-3.45,19.72,19.72,0,0,0,1.48-4.43c.33-1.56.66-3,1-4.32l3.45-15.27a103,103,0,0,1,6.65-19.71,54.75,54.75,0,0,1,10.59-15.64,45.77,45.77,0,0,1,15.28-10.23,53.64,53.64,0,0,1,20.69-3.69q16.75,0,29.07,6.9a64.74,64.74,0,0,1,20.69,18.23,78.67,78.67,0,0,1,12.45,25.86,109.42,109.42,0,0,1,4.06,29.57A156.78,156.78,0,0,1,1265.08,139.83Zm215.6,757.3H1294.93V811.64a102.91,102.91,0,0,1,4.19-30,66.81,66.81,0,0,1,12.68-23.9A58.27,58.27,0,0,1,1333.12,742q12.81-5.65,30.05-5.66a71.72,71.72,0,0,1,25.62,4.31,55,55,0,0,1,19.34,12.19,52.76,52.76,0,0,1,12.32,19.34,71.74,71.74,0,0,1,4.31,25.5v34.49h55.92Zm0-288.49-59.61,29.57v1.23h59.61v66H1294.93V623.92a124.18,124.18,0,0,1,3.45-29.81,68.9,68.9,0,0,1,11.21-24.64,54.83,54.83,0,0,1,20.08-16.75q12.32-6.15,29.81-6.16a69.58,69.58,0,0,1,18.23,2.09,37.56,37.56,0,0,1,13.3,6.53,39,39,0,0,1,9.61,11.21,90.47,90.47,0,0,1,7.14,16.14h1.48q2-2.71,4.43-5.67a29.58,29.58,0,0,1,6.66-5.66l60.35-40.41Zm0-101H1294.93V382.73h50.75v56.91h17.74v-52h48.28v52h18.23V380.76h50.75Zm-1.6-192.16h0a161.22,161.22,0,0,1-12.44,34.74l-52.47-20.7,2.71-3.45A99.72,99.72,0,0,0,1429,306.36a52.46,52.46,0,0,0,4.93-22.42,35.43,35.43,0,0,0-.5-5.54,18.16,18.16,0,0,0-1.84-5.66,14.17,14.17,0,0,0-3.45-4.32,8.13,8.13,0,0,0-5.3-1.72,7.84,7.84,0,0,0-5,1.48,9.68,9.68,0,0,0-2.83,3.69,21.72,21.72,0,0,0-1.48,4.93c-.33,1.81-.66,3.45-1,4.93L1410,295.28a83.76,83.76,0,0,1-5.54,18.72,54,54,0,0,1-10,15.52A44.8,44.8,0,0,1,1379.92,340a45.65,45.65,0,0,1-19.21,3.82q-16.5,0-29.32-6.9a67,67,0,0,1-21.56-18.23,82.63,82.63,0,0,1-13.3-25.74,97.73,97.73,0,0,1-4.56-29.69,111.6,111.6,0,0,1,16.26-58.88l47.55,18.23a101.69,101.69,0,0,0-10,18.36,53.44,53.44,0,0,0-4.06,20.81,25.81,25.81,0,0,0,.49,4.81,16.83,16.83,0,0,0,1.6,4.68,11.46,11.46,0,0,0,3,3.57,7.46,7.46,0,0,0,4.8,1.48,6,6,0,0,0,4.19-1.36,10.68,10.68,0,0,0,2.46-3.45,19.72,19.72,0,0,0,1.48-4.43c.33-1.56.66-3,1-4.31l3.45-15.28a103,103,0,0,1,6.65-19.71,54.75,54.75,0,0,1,10.59-15.64,45.74,45.74,0,0,1,15.28-10.22,53.43,53.43,0,0,1,20.69-3.7q16.75,0,29.07,6.9a64.85,64.85,0,0,1,20.69,18.23,78.81,78.81,0,0,1,12.45,25.87,109.4,109.4,0,0,1,4.06,29.56A157.12,157.12,0,0,1,1479.08,315.48Zm0-175.65h0a161.67,161.67,0,0,1-12.44,34.73l-52.47-20.69,2.71-3.45A101,101,0,0,0,1429,130.71a52.46,52.46,0,0,0,4.93-22.42,35.43,35.43,0,0,0-.5-5.54,18.3,18.3,0,0,0-1.84-5.67,14,14,0,0,0-3.45-4.31,8,8,0,0,0-5.3-1.72,7.91,7.91,0,0,0-5,1.47,9.63,9.63,0,0,0-2.83,3.7,21.23,21.23,0,0,0-1.48,4.93c-.33,1.81-.67,3.45-1,4.92L1410,119.62a83.84,83.84,0,0,1-5.54,18.73,54,54,0,0,1-10,15.52,45,45,0,0,1-14.54,10.47,45.65,45.65,0,0,1-19.21,3.82q-16.5,0-29.32-6.9A67.25,67.25,0,0,1,1309.83,143a82.47,82.47,0,0,1-13.3-25.75A97.75,97.75,0,0,1,1292,87.6a111.6,111.6,0,0,1,16.26-58.88L1355.78,47a102.57,102.57,0,0,0-10,18.35,53.49,53.49,0,0,0-4.06,20.82,25.79,25.79,0,0,0,.49,4.8,16.21,16.21,0,0,0,1.6,4.68,11.26,11.26,0,0,0,3,3.58,7.45,7.45,0,0,0,4.8,1.47,6,6,0,0,0,4.19-1.35,10.68,10.68,0,0,0,2.46-3.45,19.72,19.72,0,0,0,1.48-4.43c.33-1.56.66-3,1-4.32l3.45-15.27a103,103,0,0,1,6.65-19.71,54.75,54.75,0,0,1,10.59-15.64,45.77,45.77,0,0,1,15.28-10.23,53.64,53.64,0,0,1,20.69-3.69q16.75,0,29.07,6.9a64.74,64.74,0,0,1,20.69,18.23,78.67,78.67,0,0,1,12.45,25.86,109.42,109.42,0,0,1,4.06,29.57A156.78,156.78,0,0,1,1479.08,139.83Z"/></g></g></svg>