<svg xmlns="http://www.w3.org/2000/svg" viewBox="0 0 1894.8 129"><defs><style>.cls-1{fill:#fff;}.cls-2{fill:#ffe98d;}</style></defs><title>press-horizontal</title><g id="Layer_2" data-name="Layer 2"><g id="Layer_1-2" data-name="Layer 1"><path class="cls-1" d="M1865.56,78.61a27.24,27.24,0,0,1-3.21,13.53,30.26,30.26,0,0,1-8.48,9.63,36.85,36.85,0,0,1-12,5.79,50.85,50.85,0,0,1-13.75,1.89,73.22,73.22,0,0,1-17.08-2.12,76.09,76.09,0,0,1-16.16-5.79l9.63-24.42,1.6,1.26a47,47,0,0,0,9.17,5.62,24.41,24.41,0,0,0,10.43,2.29,15.67,15.67,0,0,0,2.58-.23,8.19,8.19,0,0,0,2.64-.86,6.21,6.21,0,0,0,2-1.6,3.72,3.72,0,0,0,.81-2.46,3.63,3.63,0,0,0-.69-2.35,4.39,4.39,0,0,0-1.72-1.32,9.73,9.73,0,0,0-2.29-.69c-.85-.15-1.61-.3-2.3-.46l-6.3-1.14a39.33,39.33,0,0,1-8.71-2.58,25.29,25.29,0,0,1-7.22-4.65,20.77,20.77,0,0,1-4.87-6.76,21.26,21.26,0,0,1-1.78-8.94A28.3,28.3,0,0,1,1801,38.61a31.14,31.14,0,0,1,8.48-10,38.49,38.49,0,0,1,12-6.19,45.63,45.63,0,0,1,13.81-2.12,51.87,51.87,0,0,1,27.4,7.57L1854.21,50a46.66,46.66,0,0,0-8.54-4.64,24.87,24.87,0,0,0-9.68-1.9,12.34,12.34,0,0,0-2.24.23,7.94,7.94,0,0,0-2.17.75,5.27,5.27,0,0,0-1.67,1.37,3.48,3.48,0,0,0-.68,2.24,2.74,2.74,0,0,0,.63,2,4.92,4.92,0,0,0,1.6,1.14,9.08,9.08,0,0,0,2.06.69c.73.16,1.4.31,2,.46l7.11,1.61a47.73,47.73,0,0,1,9.17,3.09,25.39,25.39,0,0,1,7.27,4.93,21.11,21.11,0,0,1,4.76,7.11A24.81,24.81,0,0,1,1865.56,78.61Z" transform="translate(-0.25 -0.25)"/><path class="cls-1" d="M1783.84,78.61a27.35,27.35,0,0,1-3.21,13.53,30.17,30.17,0,0,1-8.49,9.63,36.7,36.7,0,0,1-12,5.79,50.92,50.92,0,0,1-13.76,1.89,73.14,73.14,0,0,1-17.07-2.12,76,76,0,0,1-16.17-5.79l9.63-24.42,1.61,1.26a46.39,46.39,0,0,0,9.17,5.62A24.38,24.38,0,0,0,1744,86.29a15.76,15.76,0,0,0,2.58-.23,8.22,8.22,0,0,0,2.63-.86,6.25,6.25,0,0,0,2-1.6,3.77,3.77,0,0,0,.8-2.46,3.63,3.63,0,0,0-.69-2.35,4.39,4.39,0,0,0-1.72-1.32,9.59,9.59,0,0,0-2.29-.69c-.84-.15-1.6-.3-2.29-.46l-6.31-1.14A39.49,39.49,0,0,1,1730,72.6a25.43,25.43,0,0,1-7.22-4.65,20.92,20.92,0,0,1-4.87-6.76,21.42,21.42,0,0,1-1.78-8.94,28.3,28.3,0,0,1,3.21-13.64,31.17,31.17,0,0,1,8.49-10,38.44,38.44,0,0,1,12-6.19,45.69,45.69,0,0,1,13.82-2.12A51.84,51.84,0,0,1,1781,27.84L1772.49,50a47,47,0,0,0-8.54-4.64,24.92,24.92,0,0,0-9.69-1.9,12.24,12.24,0,0,0-2.23.23,8.12,8.12,0,0,0-2.18.75,5.23,5.23,0,0,0-1.66,1.37,3.48,3.48,0,0,0-.69,2.24,2.79,2.79,0,0,0,.63,2,5,5,0,0,0,1.61,1.14,8.76,8.76,0,0,0,2.06.69l2,.46,7.11,1.61a47.49,47.49,0,0,1,9.17,3.09,25.44,25.44,0,0,1,7.28,4.93,21.41,21.41,0,0,1,4.76,7.11A25,25,0,0,1,1783.84,78.61Z" transform="translate(-0.25 -0.25)"/><polygon class="cls-1" points="1698.65 84.21 1698.65 107.82 1639.62 107.82 1639.62 21.4 1697.73 21.4 1697.73 45.01 1671.26 45.01 1671.26 53.26 1695.44 53.26 1695.44 75.73 1671.26 75.73 1671.26 84.21 1698.65 84.21"/><path class="cls-1" d="M1610.3,80l18.8,28.08h-36.22l-13.76-27.74h-.57v27.74h-30.72V21.65h37.94a58,58,0,0,1,13.87,1.6,32,32,0,0,1,11.46,5.22,25.43,25.43,0,0,1,7.8,9.34,30.74,30.74,0,0,1,2.86,13.87,32.38,32.38,0,0,1-1,8.48,17.32,17.32,0,0,1-3,6.19,18,18,0,0,1-5.21,4.47,42.38,42.38,0,0,1-7.51,3.32v.69c.84.61,1.72,1.3,2.63,2.06A13.68,13.68,0,0,1,1610.3,80Z" transform="translate(-0.25 -0.25)"/><path class="cls-1" d="M1530.87,39.41a34.51,34.51,0,0,1,2.63,14,33.52,33.52,0,0,1-2,11.92,25.73,25.73,0,0,1-5.68,9,24.6,24.6,0,0,1-9,5.73,33.67,33.67,0,0,1-11.87,2h-16v26h-30.26V21.65h39.77a47.91,47.91,0,0,1,14,2,31,31,0,0,1,11.12,5.9A27.05,27.05,0,0,1,1530.87,39.41Z" transform="translate(-0.25 -0.25)"/><path class="cls-1" d="M1390.28,78.61a27.24,27.24,0,0,1-3.21,13.53,30.14,30.14,0,0,1-8.48,9.63,36.79,36.79,0,0,1-12,5.79,50.92,50.92,0,0,1-13.76,1.89,73.28,73.28,0,0,1-17.08-2.12,76.09,76.09,0,0,1-16.16-5.79l9.63-24.42,1.6,1.26A47,47,0,0,0,1340,84a24.45,24.45,0,0,0,10.43,2.29,15.58,15.58,0,0,0,2.58-.23,8.19,8.19,0,0,0,2.64-.86,6.36,6.36,0,0,0,2-1.6,3.77,3.77,0,0,0,.8-2.46,3.63,3.63,0,0,0-.69-2.35,4.39,4.39,0,0,0-1.72-1.32,9.73,9.73,0,0,0-2.29-.69c-.84-.15-1.61-.3-2.29-.46l-6.31-1.14a39.33,39.33,0,0,1-8.71-2.58,25.29,25.29,0,0,1-7.22-4.65,20.92,20.92,0,0,1-4.87-6.76,21.26,21.26,0,0,1-1.78-8.94,28.3,28.3,0,0,1,3.21-13.64,31.27,31.27,0,0,1,8.48-10,38.6,38.6,0,0,1,12-6.19A45.63,45.63,0,0,1,1360,20.27a51.85,51.85,0,0,1,27.4,7.57L1378.94,50a47.32,47.32,0,0,0-8.54-4.64,24.92,24.92,0,0,0-9.69-1.9,12.15,12.15,0,0,0-2.23.23,8,8,0,0,0-2.18.75,5.13,5.13,0,0,0-1.66,1.37A3.48,3.48,0,0,0,1354,48a2.79,2.79,0,0,0,.63,2,4.92,4.92,0,0,0,1.6,1.14,9,9,0,0,0,2.07.69l2,.46,7.11,1.61a47.73,47.73,0,0,1,9.17,3.09,25.58,25.58,0,0,1,7.28,4.93,21.23,21.23,0,0,1,4.75,7.11A24.81,24.81,0,0,1,1390.28,78.61Z" transform="translate(-0.25 -0.25)"/><path class="cls-1" d="M1308.56,78.61a27.24,27.24,0,0,1-3.21,13.53,30.26,30.26,0,0,1-8.48,9.63,36.85,36.85,0,0,1-12,5.79,50.85,50.85,0,0,1-13.75,1.89,73.16,73.16,0,0,1-17.08-2.12,75.89,75.89,0,0,1-16.16-5.79l9.62-24.42,1.61,1.26a46.68,46.68,0,0,0,9.17,5.62,24.38,24.38,0,0,0,10.43,2.29,15.76,15.76,0,0,0,2.58-.23,8.22,8.22,0,0,0,2.63-.86,6.14,6.14,0,0,0,2-1.6,3.77,3.77,0,0,0,.8-2.46,3.69,3.69,0,0,0-.68-2.35,4.47,4.47,0,0,0-1.72-1.32,9.82,9.82,0,0,0-2.3-.69c-.84-.15-1.6-.3-2.29-.46l-6.3-1.14a39.33,39.33,0,0,1-8.71-2.58,25.34,25.34,0,0,1-7.23-4.65,21.07,21.07,0,0,1-4.87-6.76,21.42,21.42,0,0,1-1.77-8.94A28.3,28.3,0,0,1,1244,38.61a31,31,0,0,1,8.48-10,38.49,38.49,0,0,1,12-6.19,45.63,45.63,0,0,1,13.81-2.12,51.84,51.84,0,0,1,27.39,7.57L1297.21,50a47,47,0,0,0-8.54-4.64,24.9,24.9,0,0,0-9.68-1.9,12.25,12.25,0,0,0-2.24.23,8.12,8.12,0,0,0-2.18.75,5.23,5.23,0,0,0-1.66,1.37,3.48,3.48,0,0,0-.69,2.24,2.79,2.79,0,0,0,.63,2,5,5,0,0,0,1.61,1.14,8.91,8.91,0,0,0,2.06.69l2,.46,7.1,1.61A47.27,47.27,0,0,1,1294.8,57a25.3,25.3,0,0,1,7.28,4.93,21.26,21.26,0,0,1,4.76,7.11A25,25,0,0,1,1308.56,78.61Z" transform="translate(-0.25 -0.25)"/><polygon class="cls-1" points="1223.37 84.21 1223.37 107.82 1164.34 107.82 1164.34 21.4 1222.46 21.4 1222.46 45.01 1195.98 45.01 1195.98 53.26 1220.16 53.26 1220.16 75.73 1195.98 75.73 1195.98 84.21 1223.37 84.21"/><path class="cls-1" d="M1135,80l18.8,28.08H1117.6l-13.76-27.74h-.57v27.74h-30.72V21.65h37.94a58,58,0,0,1,13.87,1.6,32,32,0,0,1,11.46,5.22,25.43,25.43,0,0,1,7.8,9.34,30.74,30.74,0,0,1,2.86,13.87,32.38,32.38,0,0,1-1,8.48,17.32,17.32,0,0,1-3,6.19,17.9,17.9,0,0,1-5.21,4.47,42.38,42.38,0,0,1-7.51,3.32v.69c.84.61,1.72,1.3,2.64,2.06A13.92,13.92,0,0,1,1135,80Z" transform="translate(-0.25 -0.25)"/><path class="cls-1" d="M1055.59,39.41a34.34,34.34,0,0,1,2.64,14,33.29,33.29,0,0,1-2,11.92,25.85,25.85,0,0,1-5.67,9,24.72,24.72,0,0,1-9,5.73,33.61,33.61,0,0,1-11.86,2h-16.05v26H983.38V21.65h39.77a47.93,47.93,0,0,1,14,2,31,31,0,0,1,11.11,5.9A26.94,26.94,0,0,1,1055.59,39.41Z" transform="translate(-0.25 -0.25)"/><path class="cls-1" d="M913.62,78.61a27.24,27.24,0,0,1-3.21,13.53,30.14,30.14,0,0,1-8.48,9.63,36.7,36.7,0,0,1-12,5.79,50.92,50.92,0,0,1-13.76,1.89,73.28,73.28,0,0,1-17.08-2.12,76.09,76.09,0,0,1-16.16-5.79l9.63-24.42,1.61,1.26A46.61,46.61,0,0,0,863.3,84a24.46,24.46,0,0,0,10.44,2.29,15.55,15.55,0,0,0,2.57-.23A8.19,8.19,0,0,0,879,85.2a6.36,6.36,0,0,0,2-1.6,3.77,3.77,0,0,0,.8-2.46,3.63,3.63,0,0,0-.69-2.35,4.39,4.39,0,0,0-1.72-1.32,9.73,9.73,0,0,0-2.29-.69c-.84-.15-1.61-.3-2.29-.46l-6.31-1.14a39.49,39.49,0,0,1-8.71-2.58A25.29,25.29,0,0,1,852.53,68a20.92,20.92,0,0,1-4.87-6.76,21.26,21.26,0,0,1-1.78-8.94,28.3,28.3,0,0,1,3.21-13.64,31.27,31.27,0,0,1,8.48-10,38.6,38.6,0,0,1,12-6.19,45.63,45.63,0,0,1,13.81-2.12,51.85,51.85,0,0,1,27.4,7.57L902.28,50a47.32,47.32,0,0,0-8.54-4.64,24.92,24.92,0,0,0-9.69-1.9,12.15,12.15,0,0,0-2.23.23,8,8,0,0,0-2.18.75A5.13,5.13,0,0,0,878,45.77a3.48,3.48,0,0,0-.69,2.24,2.79,2.79,0,0,0,.63,2,4.92,4.92,0,0,0,1.6,1.14,9,9,0,0,0,2.07.69l2,.46,7.11,1.61A47.73,47.73,0,0,1,899.87,57a25.44,25.44,0,0,1,7.28,4.93A21.23,21.23,0,0,1,911.9,69,24.81,24.81,0,0,1,913.62,78.61Z" transform="translate(-0.25 -0.25)"/><path class="cls-1" d="M831.9,78.61a27.24,27.24,0,0,1-3.21,13.53,30.26,30.26,0,0,1-8.48,9.63,36.85,36.85,0,0,1-12,5.79,50.85,50.85,0,0,1-13.75,1.89,73.22,73.22,0,0,1-17.08-2.12,75.89,75.89,0,0,1-16.16-5.79l9.63-24.42,1.6,1.26A46.68,46.68,0,0,0,781.58,84,24.38,24.38,0,0,0,792,86.29a15.76,15.76,0,0,0,2.58-.23,8.36,8.36,0,0,0,2.64-.86,6.21,6.21,0,0,0,2-1.6,4.29,4.29,0,0,0,.12-4.81,4.47,4.47,0,0,0-1.72-1.32,9.82,9.82,0,0,0-2.3-.69c-.84-.15-1.6-.3-2.29-.46l-6.3-1.14A39.33,39.33,0,0,1,778,72.6,25.29,25.29,0,0,1,770.81,68a21,21,0,0,1-4.88-6.76,21.42,21.42,0,0,1-1.77-8.94,28.3,28.3,0,0,1,3.21-13.64,31.14,31.14,0,0,1,8.48-10,38.49,38.49,0,0,1,12-6.19,45.63,45.63,0,0,1,13.81-2.12A51.84,51.84,0,0,1,829,27.84L820.55,50A46.66,46.66,0,0,0,812,45.32a24.87,24.87,0,0,0-9.68-1.9,12.25,12.25,0,0,0-2.24.23,8.12,8.12,0,0,0-2.18.75,5.23,5.23,0,0,0-1.66,1.37,3.48,3.48,0,0,0-.69,2.24,2.79,2.79,0,0,0,.63,2,5,5,0,0,0,1.61,1.14,9.08,9.08,0,0,0,2.06.69c.73.16,1.4.31,2,.46l7.1,1.61A47.27,47.27,0,0,1,818.14,57a25.3,25.3,0,0,1,7.28,4.93A21.26,21.26,0,0,1,830.18,69,24.81,24.81,0,0,1,831.9,78.61Z" transform="translate(-0.25 -0.25)"/><polygon class="cls-1" points="746.71 84.21 746.71 107.82 687.68 107.82 687.68 21.4 745.8 21.4 745.8 45.01 719.32 45.01 719.32 53.26 743.51 53.26 743.51 75.73 719.32 75.73 719.32 84.21 746.71 84.21"/><path class="cls-1" d="M658.36,80l18.8,28.08H640.94L627.19,80.33h-.58v27.74H595.89V21.65h37.94a58,58,0,0,1,13.87,1.6,32.13,32.13,0,0,1,11.47,5.22A25.5,25.5,0,0,1,667,37.81a30.74,30.74,0,0,1,2.87,13.87,32.35,32.35,0,0,1-1,8.48,17.32,17.32,0,0,1-3,6.19,17.9,17.9,0,0,1-5.21,4.47,42.06,42.06,0,0,1-7.51,3.32v.69c.84.61,1.72,1.3,2.64,2.06A13.92,13.92,0,0,1,658.36,80Z" transform="translate(-0.25 -0.25)"/><path class="cls-1" d="M578.93,39.41a34.34,34.34,0,0,1,2.64,14,33.29,33.29,0,0,1-2,11.92,25.85,25.85,0,0,1-5.67,9,24.72,24.72,0,0,1-9,5.73,33.61,33.61,0,0,1-11.86,2H537v26H506.72V21.65h39.77a47.93,47.93,0,0,1,14,2,30.92,30.92,0,0,1,11.11,5.9A26.94,26.94,0,0,1,578.93,39.41Z" transform="translate(-0.25 -0.25)"/><path class="cls-1" d="M437,78.61a27.35,27.35,0,0,1-3.21,13.53,30.17,30.17,0,0,1-8.49,9.63,36.7,36.7,0,0,1-12,5.79,50.92,50.92,0,0,1-13.76,1.89,73.28,73.28,0,0,1-17.08-2.12,76.09,76.09,0,0,1-16.16-5.79l9.63-24.42,1.61,1.26A46.39,46.39,0,0,0,386.65,84a24.38,24.38,0,0,0,10.43,2.29,15.76,15.76,0,0,0,2.58-.23,8.22,8.22,0,0,0,2.63-.86,6.36,6.36,0,0,0,2-1.6,3.77,3.77,0,0,0,.8-2.46,3.63,3.63,0,0,0-.69-2.35,4.39,4.39,0,0,0-1.72-1.32,9.59,9.59,0,0,0-2.29-.69c-.84-.15-1.6-.3-2.29-.46l-6.31-1.14a39.49,39.49,0,0,1-8.71-2.58A25.29,25.29,0,0,1,375.87,68,20.92,20.92,0,0,1,371,61.19a21.26,21.26,0,0,1-1.78-8.94,28.3,28.3,0,0,1,3.21-13.64,31.27,31.27,0,0,1,8.48-10,38.6,38.6,0,0,1,12-6.19,45.67,45.67,0,0,1,13.81-2.12,51.85,51.85,0,0,1,27.4,7.57L425.62,50a47,47,0,0,0-8.54-4.64,24.92,24.92,0,0,0-9.69-1.9,12.15,12.15,0,0,0-2.23.23,8,8,0,0,0-2.18.75,5.23,5.23,0,0,0-1.66,1.37,3.48,3.48,0,0,0-.69,2.24,2.79,2.79,0,0,0,.63,2,4.92,4.92,0,0,0,1.6,1.14,9,9,0,0,0,2.07.69l2,.46L414,53.86A47.49,47.49,0,0,1,423.21,57a25.44,25.44,0,0,1,7.28,4.93A21.41,21.41,0,0,1,435.25,69,25,25,0,0,1,437,78.61Z" transform="translate(-0.25 -0.25)"/><path class="cls-1" d="M355.24,78.61A27.24,27.24,0,0,1,352,92.14a30.26,30.26,0,0,1-8.48,9.63,36.85,36.85,0,0,1-12,5.79,50.85,50.85,0,0,1-13.75,1.89,73.22,73.22,0,0,1-17.08-2.12,75.89,75.89,0,0,1-16.16-5.79l9.63-24.42,1.6,1.26A46.68,46.68,0,0,0,304.92,84a24.41,24.41,0,0,0,10.43,2.29,15.76,15.76,0,0,0,2.58-.23,8.27,8.27,0,0,0,2.64-.86,6.21,6.21,0,0,0,2-1.6,3.72,3.72,0,0,0,.81-2.46,3.63,3.63,0,0,0-.69-2.35A4.39,4.39,0,0,0,321,77.47a9.73,9.73,0,0,0-2.29-.69c-.85-.15-1.61-.3-2.3-.46l-6.3-1.14a39.33,39.33,0,0,1-8.71-2.58A25.29,25.29,0,0,1,294.15,68a20.77,20.77,0,0,1-4.87-6.76,21.26,21.26,0,0,1-1.78-8.94,28.3,28.3,0,0,1,3.21-13.64,31.14,31.14,0,0,1,8.48-10,38.49,38.49,0,0,1,12-6.19A45.63,45.63,0,0,1,325,20.27a51.84,51.84,0,0,1,27.39,7.57L343.89,50a46.66,46.66,0,0,0-8.54-4.64,24.87,24.87,0,0,0-9.68-1.9,12.25,12.25,0,0,0-2.24.23,8.12,8.12,0,0,0-2.18.75,5.23,5.23,0,0,0-1.66,1.37A3.48,3.48,0,0,0,318.9,48a2.75,2.75,0,0,0,.64,2,4.82,4.82,0,0,0,1.6,1.14,9.08,9.08,0,0,0,2.06.69c.73.16,1.4.31,2,.46l7.11,1.61A47.73,47.73,0,0,1,341.49,57a25.39,25.39,0,0,1,7.27,4.93A21.26,21.26,0,0,1,353.52,69,24.81,24.81,0,0,1,355.24,78.61Z" transform="translate(-0.25 -0.25)"/><polygon class="cls-1" points="270.06 84.21 270.06 107.82 211.03 107.82 211.03 21.4 269.14 21.4 269.14 45.01 242.66 45.01 242.66 53.26 266.85 53.26 266.85 75.73 242.66 75.73 242.66 84.21 270.06 84.21"/><path class="cls-1" d="M181.7,80l18.8,28.08H164.28L150.53,80.33H150v27.74H119.24V21.65h37.94A57.93,57.93,0,0,1,171,23.25a32.13,32.13,0,0,1,11.47,5.22,25.5,25.5,0,0,1,7.79,9.34,30.74,30.74,0,0,1,2.87,13.87,32.35,32.35,0,0,1-1,8.48,17.32,17.32,0,0,1-3,6.19,17.9,17.9,0,0,1-5.21,4.47,41.74,41.74,0,0,1-7.51,3.32v.69c.84.61,1.72,1.3,2.64,2.06A13.66,13.66,0,0,1,181.7,80Z" transform="translate(-0.25 -0.25)"/><path class="cls-2" d="M1895.05.25v129H.25V.25h1894.8Zm-32.7,91.89a27.24,27.24,0,0,0,3.21-13.53,24.81,24.81,0,0,0-1.72-9.62,21.11,21.11,0,0,0-4.76-7.11,25.39,25.39,0,0,0-7.27-4.93,47.73,47.73,0,0,0-9.17-3.09l-7.11-1.61c-.61-.15-1.28-.3-2-.46a9.08,9.08,0,0,1-2.06-.69,4.92,4.92,0,0,1-1.6-1.14,2.74,2.74,0,0,1-.63-2,3.48,3.48,0,0,1,.68-2.24,5.27,5.27,0,0,1,1.67-1.37,7.94,7.94,0,0,1,2.17-.75,12.34,12.34,0,0,1,2.24-.23,24.87,24.87,0,0,1,9.68,1.9,46.66,46.66,0,0,1,8.54,4.64l8.49-22.12a51.87,51.87,0,0,0-27.4-7.57,45.63,45.63,0,0,0-13.81,2.12,38.49,38.49,0,0,0-12,6.19,31.14,31.14,0,0,0-8.48,10,28.3,28.3,0,0,0-3.21,13.64,21.26,21.26,0,0,0,1.78,8.94,20.77,20.77,0,0,0,4.87,6.76,25.29,25.29,0,0,0,7.22,4.65,39.33,39.33,0,0,0,8.71,2.58l6.3,1.14c.69.16,1.45.31,2.3.46a9.73,9.73,0,0,1,2.29.69,4.39,4.39,0,0,1,1.72,1.32,3.63,3.63,0,0,1,.69,2.35,3.72,3.72,0,0,1-.81,2.46,6.21,6.21,0,0,1-2,1.6,8.19,8.19,0,0,1-2.64.86,15.67,15.67,0,0,1-2.58.23A24.41,24.41,0,0,1,1815.24,84a47,47,0,0,1-9.17-5.62l-1.6-1.26-9.63,24.42a76.09,76.09,0,0,0,16.16,5.79,73.22,73.22,0,0,0,17.08,2.12,50.85,50.85,0,0,0,13.75-1.89,36.85,36.85,0,0,0,12-5.79A30.26,30.26,0,0,0,1862.35,92.14Zm-81.72,0a27.35,27.35,0,0,0,3.21-13.53,25,25,0,0,0-1.72-9.62,21.41,21.41,0,0,0-4.76-7.11,25.44,25.44,0,0,0-7.28-4.93,47.49,47.49,0,0,0-9.17-3.09l-7.11-1.61-2-.46a8.76,8.76,0,0,1-2.06-.69,5,5,0,0,1-1.61-1.14,2.79,2.79,0,0,1-.63-2,3.48,3.48,0,0,1,.69-2.24,5.23,5.23,0,0,1,1.66-1.37,8.12,8.12,0,0,1,2.18-.75,12.24,12.24,0,0,1,2.23-.23,24.92,24.92,0,0,1,9.69,1.9,47,47,0,0,1,8.54,4.64L1781,27.84a51.84,51.84,0,0,0-27.39-7.57,45.69,45.69,0,0,0-13.82,2.12,38.44,38.44,0,0,0-12,6.19,31.17,31.17,0,0,0-8.49,10,28.3,28.3,0,0,0-3.21,13.64,21.42,21.42,0,0,0,1.78,8.94,20.92,20.92,0,0,0,4.87,6.76A25.43,25.43,0,0,0,1730,72.6a39.49,39.49,0,0,0,8.71,2.58l6.31,1.14c.69.16,1.45.31,2.29.46a9.59,9.59,0,0,1,2.29.69,4.39,4.39,0,0,1,1.72,1.32,3.63,3.63,0,0,1,.69,2.35,3.77,3.77,0,0,1-.8,2.46,6.25,6.25,0,0,1-2,1.6,8.22,8.22,0,0,1-2.63.86,15.76,15.76,0,0,1-2.58.23A24.38,24.38,0,0,1,1733.52,84a46.39,46.39,0,0,1-9.17-5.62l-1.61-1.26-9.63,24.42a76,76,0,0,0,16.17,5.79,73.14,73.14,0,0,0,17.07,2.12,50.92,50.92,0,0,0,13.76-1.89,36.7,36.7,0,0,0,12-5.79A30.17,30.17,0,0,0,1780.63,92.14Zm-81.73,15.93V84.46h-27.39V76h24.18V53.51h-24.18V45.26H1698V21.65h-58.11v86.42Zm-69.8,0L1610.3,80a13.68,13.68,0,0,0-2.64-3.1c-.91-.76-1.79-1.45-2.63-2.06v-.69a42.38,42.38,0,0,0,7.51-3.32,18,18,0,0,0,5.21-4.47,17.32,17.32,0,0,0,3-6.19,32.38,32.38,0,0,0,1-8.48,30.74,30.74,0,0,0-2.86-13.87,25.43,25.43,0,0,0-7.8-9.34,32,32,0,0,0-11.46-5.22,58,58,0,0,0-13.87-1.6h-37.94v86.42h30.72V80.33h.57l13.76,27.74ZM1533.5,53.4a34.51,34.51,0,0,0-2.63-14,27.05,27.05,0,0,0-7.34-9.91,31,31,0,0,0-11.12-5.9,47.91,47.91,0,0,0-14-2h-39.77v86.42h30.26v-26h16a33.67,33.67,0,0,0,11.87-2,24.6,24.6,0,0,0,9-5.73,25.73,25.73,0,0,0,5.68-9A33.52,33.52,0,0,0,1533.5,53.4ZM1387.07,92.14a27.24,27.24,0,0,0,3.21-13.53,24.81,24.81,0,0,0-1.72-9.62,21.23,21.23,0,0,0-4.75-7.11,25.58,25.58,0,0,0-7.28-4.93,47.73,47.73,0,0,0-9.17-3.09l-7.11-1.61-2-.46a9,9,0,0,1-2.07-.69,4.92,4.92,0,0,1-1.6-1.14,2.79,2.79,0,0,1-.63-2,3.48,3.48,0,0,1,.69-2.24,5.13,5.13,0,0,1,1.66-1.37,8,8,0,0,1,2.18-.75,12.15,12.15,0,0,1,2.23-.23,24.92,24.92,0,0,1,9.69,1.9,47.32,47.32,0,0,1,8.54,4.64l8.48-22.12a51.85,51.85,0,0,0-27.4-7.57,45.63,45.63,0,0,0-13.81,2.12,38.6,38.6,0,0,0-12,6.19,31.27,31.27,0,0,0-8.48,10,28.3,28.3,0,0,0-3.21,13.64,21.26,21.26,0,0,0,1.78,8.94,20.92,20.92,0,0,0,4.87,6.76,25.29,25.29,0,0,0,7.22,4.65,39.33,39.33,0,0,0,8.71,2.58l6.31,1.14c.68.16,1.45.31,2.29.46a9.73,9.73,0,0,1,2.29.69,4.39,4.39,0,0,1,1.72,1.32,3.63,3.63,0,0,1,.69,2.35,3.77,3.77,0,0,1-.8,2.46,6.36,6.36,0,0,1-2,1.6,8.19,8.19,0,0,1-2.64.86,15.58,15.58,0,0,1-2.58.23A24.45,24.45,0,0,1,1340,84a47,47,0,0,1-9.17-5.62l-1.6-1.26-9.63,24.42a76.09,76.09,0,0,0,16.16,5.79,73.28,73.28,0,0,0,17.08,2.12,50.92,50.92,0,0,0,13.76-1.89,36.79,36.79,0,0,0,12-5.79A30.14,30.14,0,0,0,1387.07,92.14Zm-81.72,0a27.24,27.24,0,0,0,3.21-13.53,25,25,0,0,0-1.72-9.62,21.26,21.26,0,0,0-4.76-7.11A25.3,25.3,0,0,0,1294.8,57a47.27,47.27,0,0,0-9.17-3.09l-7.1-1.61-2-.46a8.91,8.91,0,0,1-2.06-.69,5,5,0,0,1-1.61-1.14,2.79,2.79,0,0,1-.63-2,3.48,3.48,0,0,1,.69-2.24,5.23,5.23,0,0,1,1.66-1.37,8.12,8.12,0,0,1,2.18-.75,12.25,12.25,0,0,1,2.24-.23,24.9,24.9,0,0,1,9.68,1.9,47,47,0,0,1,8.54,4.64l8.48-22.12a51.84,51.84,0,0,0-27.39-7.57,45.63,45.63,0,0,0-13.81,2.12,38.49,38.49,0,0,0-12,6.19,31,31,0,0,0-8.48,10,28.3,28.3,0,0,0-3.21,13.64,21.42,21.42,0,0,0,1.77,8.94,21.07,21.07,0,0,0,4.87,6.76,25.34,25.34,0,0,0,7.23,4.65,39.33,39.33,0,0,0,8.71,2.58l6.3,1.14c.69.16,1.45.31,2.29.46a9.82,9.82,0,0,1,2.3.69,4.47,4.47,0,0,1,1.72,1.32,3.69,3.69,0,0,1,.68,2.35,3.77,3.77,0,0,1-.8,2.46,6.14,6.14,0,0,1-2,1.6,8.22,8.22,0,0,1-2.63.86,15.76,15.76,0,0,1-2.58.23A24.38,24.38,0,0,1,1258.24,84a46.68,46.68,0,0,1-9.17-5.62l-1.61-1.26-9.62,24.42a75.89,75.89,0,0,0,16.16,5.79,73.16,73.16,0,0,0,17.08,2.12,50.85,50.85,0,0,0,13.75-1.89,36.85,36.85,0,0,0,12-5.79A30.26,30.26,0,0,0,1305.35,92.14Zm-81.73,15.93V84.46h-27.39V76h24.18V53.51h-24.18V45.26h26.48V21.65h-58.12v86.42Zm-69.8,0L1135,80a13.92,13.92,0,0,0-2.63-3.1c-.92-.76-1.8-1.45-2.64-2.06v-.69a42.38,42.38,0,0,0,7.51-3.32,17.9,17.9,0,0,0,5.21-4.47,17.32,17.32,0,0,0,3-6.19,32.38,32.38,0,0,0,1-8.48,30.74,30.74,0,0,0-2.86-13.87,25.43,25.43,0,0,0-7.8-9.34,32,32,0,0,0-11.46-5.22,58,58,0,0,0-13.87-1.6h-37.94v86.42h30.72V80.33h.57l13.76,27.74ZM1058.23,53.4a34.34,34.34,0,0,0-2.64-14,26.94,26.94,0,0,0-7.34-9.91,31,31,0,0,0-11.11-5.9,47.93,47.93,0,0,0-14-2H983.38v86.42h30.26v-26h16.05a33.61,33.61,0,0,0,11.86-2,24.72,24.72,0,0,0,9-5.73,25.85,25.85,0,0,0,5.67-9A33.29,33.29,0,0,0,1058.23,53.4ZM910.41,92.14a27.24,27.24,0,0,0,3.21-13.53A24.81,24.81,0,0,0,911.9,69a21.23,21.23,0,0,0-4.75-7.11A25.44,25.44,0,0,0,899.87,57a47.73,47.73,0,0,0-9.17-3.09l-7.11-1.61-2-.46a9,9,0,0,1-2.07-.69,4.92,4.92,0,0,1-1.6-1.14,2.79,2.79,0,0,1-.63-2,3.48,3.48,0,0,1,.69-2.24,5.13,5.13,0,0,1,1.66-1.37,8,8,0,0,1,2.18-.75,12.15,12.15,0,0,1,2.23-.23,24.92,24.92,0,0,1,9.69,1.9A47.32,47.32,0,0,1,902.28,50l8.48-22.12a51.85,51.85,0,0,0-27.4-7.57,45.63,45.63,0,0,0-13.81,2.12,38.6,38.6,0,0,0-12,6.19,31.27,31.27,0,0,0-8.48,10,28.3,28.3,0,0,0-3.21,13.64,21.26,21.26,0,0,0,1.78,8.94A20.92,20.92,0,0,0,852.53,68a25.29,25.29,0,0,0,7.22,4.65,39.49,39.49,0,0,0,8.71,2.58l6.31,1.14c.68.16,1.45.31,2.29.46a9.73,9.73,0,0,1,2.29.69,4.39,4.39,0,0,1,1.72,1.32,3.63,3.63,0,0,1,.69,2.35,3.77,3.77,0,0,1-.8,2.46,6.36,6.36,0,0,1-2,1.6,8.19,8.19,0,0,1-2.64.86,15.55,15.55,0,0,1-2.57.23A24.46,24.46,0,0,1,863.3,84a46.61,46.61,0,0,1-9.16-5.62l-1.61-1.26-9.63,24.42a76.09,76.09,0,0,0,16.16,5.79,73.28,73.28,0,0,0,17.08,2.12,50.92,50.92,0,0,0,13.76-1.89,36.7,36.7,0,0,0,12-5.79A30.14,30.14,0,0,0,910.41,92.14Zm-81.72,0a27.24,27.24,0,0,0,3.21-13.53A24.81,24.81,0,0,0,830.18,69a21.26,21.26,0,0,0-4.76-7.11A25.3,25.3,0,0,0,818.14,57,47.27,47.27,0,0,0,809,53.86l-7.1-1.61c-.61-.15-1.28-.3-2-.46a9.08,9.08,0,0,1-2.06-.69A5,5,0,0,1,796.19,50a2.79,2.79,0,0,1-.63-2,3.48,3.48,0,0,1,.69-2.24,5.23,5.23,0,0,1,1.66-1.37,8.12,8.12,0,0,1,2.18-.75,12.25,12.25,0,0,1,2.24-.23,24.87,24.87,0,0,1,9.68,1.9A46.66,46.66,0,0,1,820.55,50L829,27.84a51.84,51.84,0,0,0-27.39-7.57,45.63,45.63,0,0,0-13.81,2.12,38.49,38.49,0,0,0-12,6.19,31.14,31.14,0,0,0-8.48,10,28.3,28.3,0,0,0-3.21,13.64,21.42,21.42,0,0,0,1.77,8.94A21,21,0,0,0,770.81,68,25.29,25.29,0,0,0,778,72.6a39.33,39.33,0,0,0,8.71,2.58l6.3,1.14c.69.16,1.45.31,2.29.46a9.82,9.82,0,0,1,2.3.69,4.47,4.47,0,0,1,1.72,1.32,4.29,4.29,0,0,1-.12,4.81,6.21,6.21,0,0,1-2,1.6,8.36,8.36,0,0,1-2.64.86,15.76,15.76,0,0,1-2.58.23A24.38,24.38,0,0,1,781.58,84a46.68,46.68,0,0,1-9.17-5.62l-1.6-1.26-9.63,24.42a75.89,75.89,0,0,0,16.16,5.79,73.22,73.22,0,0,0,17.08,2.12,50.85,50.85,0,0,0,13.75-1.89,36.85,36.85,0,0,0,12-5.79A30.26,30.26,0,0,0,828.69,92.14ZM747,108.07V84.46H719.57V76h24.19V53.51H719.57V45.26h26.48V21.65H687.93v86.42Zm-69.8,0L658.36,80a13.92,13.92,0,0,0-2.63-3.1c-.92-.76-1.8-1.45-2.64-2.06v-.69a42.06,42.06,0,0,0,7.51-3.32,17.9,17.9,0,0,0,5.21-4.47,17.32,17.32,0,0,0,3-6.19,32.35,32.35,0,0,0,1-8.48A30.74,30.74,0,0,0,667,37.81a25.5,25.5,0,0,0-7.79-9.34,32.13,32.13,0,0,0-11.47-5.22,58,58,0,0,0-13.87-1.6H595.89v86.42h30.72V80.33h.58l13.75,27.74ZM581.57,53.4a34.34,34.34,0,0,0-2.64-14,26.94,26.94,0,0,0-7.34-9.91,30.92,30.92,0,0,0-11.11-5.9,47.93,47.93,0,0,0-14-2H506.72v86.42H537v-26h16a33.61,33.61,0,0,0,11.86-2,24.72,24.72,0,0,0,9-5.73,25.85,25.85,0,0,0,5.67-9A33.29,33.29,0,0,0,581.57,53.4ZM433.76,92.14A27.35,27.35,0,0,0,437,78.61,25,25,0,0,0,435.25,69a21.41,21.41,0,0,0-4.76-7.11A25.44,25.44,0,0,0,423.21,57,47.49,47.49,0,0,0,414,53.86l-7.11-1.61-2-.46a9,9,0,0,1-2.07-.69,4.92,4.92,0,0,1-1.6-1.14,2.79,2.79,0,0,1-.63-2,3.48,3.48,0,0,1,.69-2.24A5.23,5.23,0,0,1,403,44.4a8,8,0,0,1,2.18-.75,12.15,12.15,0,0,1,2.23-.23,24.92,24.92,0,0,1,9.69,1.9A47,47,0,0,1,425.62,50l8.48-22.12a51.85,51.85,0,0,0-27.4-7.57,45.67,45.67,0,0,0-13.81,2.12,38.6,38.6,0,0,0-12,6.19,31.27,31.27,0,0,0-8.48,10,28.3,28.3,0,0,0-3.21,13.64A21.26,21.26,0,0,0,371,61.19,20.92,20.92,0,0,0,375.87,68a25.29,25.29,0,0,0,7.22,4.65,39.49,39.49,0,0,0,8.71,2.58l6.31,1.14c.69.16,1.45.31,2.29.46a9.59,9.59,0,0,1,2.29.69,4.39,4.39,0,0,1,1.72,1.32,3.63,3.63,0,0,1,.69,2.35,3.77,3.77,0,0,1-.8,2.46,6.36,6.36,0,0,1-2,1.6,8.22,8.22,0,0,1-2.63.86,15.76,15.76,0,0,1-2.58.23A24.38,24.38,0,0,1,386.65,84a46.39,46.39,0,0,1-9.17-5.62l-1.61-1.26-9.63,24.42a76.09,76.09,0,0,0,16.16,5.79,73.28,73.28,0,0,0,17.08,2.12,50.92,50.92,0,0,0,13.76-1.89,36.7,36.7,0,0,0,12-5.79A30.17,30.17,0,0,0,433.76,92.14Zm-81.73,0a27.24,27.24,0,0,0,3.21-13.53A24.81,24.81,0,0,0,353.52,69a21.26,21.26,0,0,0-4.76-7.11A25.39,25.39,0,0,0,341.49,57a47.73,47.73,0,0,0-9.17-3.09l-7.11-1.61c-.61-.15-1.28-.3-2-.46a9.08,9.08,0,0,1-2.06-.69,4.82,4.82,0,0,1-1.6-1.14,2.75,2.75,0,0,1-.64-2,3.48,3.48,0,0,1,.69-2.24,5.23,5.23,0,0,1,1.66-1.37,8.12,8.12,0,0,1,2.18-.75,12.25,12.25,0,0,1,2.24-.23,24.87,24.87,0,0,1,9.68,1.9A46.66,46.66,0,0,1,343.89,50l8.48-22.12A51.84,51.84,0,0,0,325,20.27a45.63,45.63,0,0,0-13.81,2.12,38.49,38.49,0,0,0-12,6.19,31.14,31.14,0,0,0-8.48,10,28.3,28.3,0,0,0-3.21,13.64,21.26,21.26,0,0,0,1.78,8.94A20.77,20.77,0,0,0,294.15,68a25.29,25.29,0,0,0,7.22,4.65,39.33,39.33,0,0,0,8.71,2.58l6.3,1.14c.69.16,1.45.31,2.3.46a9.73,9.73,0,0,1,2.29.69,4.39,4.39,0,0,1,1.72,1.32,3.63,3.63,0,0,1,.69,2.35,3.72,3.72,0,0,1-.81,2.46,6.21,6.21,0,0,1-2,1.6,8.27,8.27,0,0,1-2.64.86,15.76,15.76,0,0,1-2.58.23A24.41,24.41,0,0,1,304.92,84a46.68,46.68,0,0,1-9.17-5.62l-1.6-1.26-9.63,24.42a75.89,75.89,0,0,0,16.16,5.79,73.22,73.22,0,0,0,17.08,2.12,50.85,50.85,0,0,0,13.75-1.89,36.85,36.85,0,0,0,12-5.79A30.26,30.26,0,0,0,352,92.14Zm-81.72,15.93V84.46h-27.4V76H267.1V53.51H242.91V45.26h26.48V21.65H211.28v86.42Zm-69.81,0L181.7,80a13.66,13.66,0,0,0-2.63-3.1c-.92-.76-1.8-1.45-2.64-2.06v-.69a41.74,41.74,0,0,0,7.51-3.32,17.9,17.9,0,0,0,5.21-4.47,17.32,17.32,0,0,0,3-6.19,32.35,32.35,0,0,0,1-8.48,30.74,30.74,0,0,0-2.87-13.87,25.5,25.5,0,0,0-7.79-9.34A32.13,32.13,0,0,0,171,23.25a57.93,57.93,0,0,0-13.86-1.6H119.24v86.42H150V80.33h.58l13.75,27.74ZM104.91,53.4a34.34,34.34,0,0,0-2.64-14,27,27,0,0,0-7.33-9.91,31.05,31.05,0,0,0-11.12-5.9,47.93,47.93,0,0,0-14-2H30.06v86.42H60.32v-26H76.37a33.61,33.61,0,0,0,11.86-2,24.72,24.72,0,0,0,9-5.73,25.85,25.85,0,0,0,5.67-9A33.29,33.29,0,0,0,104.91,53.4Z" transform="translate(-0.25 -0.25)"/><path class="cls-1" d="M102.27,39.41a34.34,34.34,0,0,1,2.64,14,33.29,33.29,0,0,1-2,11.92,25.85,25.85,0,0,1-5.67,9,24.72,24.72,0,0,1-9,5.73,33.61,33.61,0,0,1-11.86,2H60.32v26H30.06V21.65H69.83a47.93,47.93,0,0,1,14,2,31.05,31.05,0,0,1,11.12,5.9A27,27,0,0,1,102.27,39.41Z" transform="translate(-0.25 -0.25)"/></g></g></svg>