<svg xmlns="http://www.w3.org/2000/svg" viewBox="0 0 1465.69 499.21"><defs><style>.cls-1{fill:#f06d76;}.cls-2{fill:#e6b5d4;}.cls-3{fill:#66c5bb;}.cls-4{fill:#d1e079;}.cls-5{font-size:65px;fill:#ffe98d;font-family:FuturaBT-HeavyItalic, Futura Hv BT;font-style:italic;letter-spacing:0.01em;}</style></defs><title>SHOP-HOVER</title><g id="Layer_2" data-name="Layer 2"><g id="Layer_1-2" data-name="Layer 1"><path class="cls-1" d="M998.67,121.74l44.24-83.82L966.7,78.16,942.54,0,918.43,78l-76-40.11,44.25,83.82A187.85,187.85,0,0,0,754.93,301c0,103.69,84.06,187.75,187.76,187.75S1130.44,404.7,1130.44,301A187.84,187.84,0,0,0,998.67,121.74Z"/><path class="cls-2" d="M0,440.06l45.74-51.79a70.1,70.1,0,0,0,27.87,33.52A78.53,78.53,0,0,0,116.72,434q28.92,0,45.74-13.67t16.83-36.81q0-27.33-56-54.41-18.14-8.69-28.65-14.2-50.47-26.28-69.93-51.39T5.26,203.73q0-47.58,37.72-78.21T140.91,94.9q35,0,60.33,12.22t44.82,38.25L197.43,191.9q-8.69-16.82-23-25.1t-34.57-8.29q-24.43,0-39.43,12.23t-15,31.68q0,30.5,59.41,55.73,11.82,5,18.14,7.88,48.88,22.35,72.42,50.48t23.53,64.14q0,54.17-36.94,86.36t-99.23,32.2q-44.17,0-75.71-15.25T0,440.06Z"/><path class="cls-3" d="M331.62,489V104.1H413.9V258.41H580.83V104.1h82.29V489H580.83V328.07H413.9V489Z"/><path class="cls-4" d="M1223.05,489V104.1h94.64q75.7,0,111.85,28.91t36.15,89.38q0,56-36.41,87.81T1328.47,342h-22.61V489Zm82.81-211.1h11.83q33.64,0,48.89-13.93t15.25-44.69q0-28.4-15.25-41.4t-48.89-13h-11.83Z"/><text class="cls-5" transform="translate(863.58 316.88)">enter</text></g></g></svg>