<svg xmlns="http://www.w3.org/2000/svg" viewBox="0 0 93.48 669.73"><defs><style>.cls-1{fill:#595959;}</style></defs><title>stories</title><g id="Layer_2" data-name="Layer 2"><g id="Layer_1-2" data-name="Layer 1"><path class="cls-1" d="M76.6,116.31l-.83,55.56-14.57-.21L62,116.09l-16.61-.25.19-12.34,47.77.72-.18,12.34Z"/><path class="cls-1" d="M93.48,371.66l-16.74-.25-17.38-32-.48,31.72-14.51-.21,1-67.91,20.78.32q12.39.18,18.48,5.07t6,14.54a17.9,17.9,0,0,1-4.4,11.91,16.53,16.53,0,0,1-11,5.63Zm-34-39.48,2.18,0q8.81.12,11.67-1.75t2.93-6.66q.07-5-2.93-7.17t-11.4-2.28l-2.18,0Z"/><path class="cls-1" d="M43,570.43l1-67.9,40,.6-.18,12.24L58.39,515l-.2,14,25.46.38-.19,12.34L58,541.29l-.25,17,25.46.38L83,571Z"/><path class="cls-1" d="M15.51,60.53l8.21-9a12.34,12.34,0,0,0,4.83,6,13.84,13.84,0,0,0,7.57,2.27c3.4,0,6.11-.71,8.11-2.29A8,8,0,0,0,47.3,51q.06-4.81-9.74-9.75-3.18-1.58-5-2.58-8.84-4.77-12.2-9.25a16.75,16.75,0,0,1-3.27-10.6,17,17,0,0,1,6.86-13.7Q30.67-.16,41.29,0A24.45,24.45,0,0,1,51.9,2.32a21.68,21.68,0,0,1,7.81,6.87L51,17.27a10.52,10.52,0,0,0-4-4.49,11.94,11.94,0,0,0-6.08-1.55,10.65,10.65,0,0,0-7,2,6.87,6.87,0,0,0-2.72,5.55q-.09,5.39,10.33,10,2.07.91,3.18,1.44,8.57,4.06,12.65,9.09a17.22,17.22,0,0,1,4,11.38q-.15,9.56-6.75,15.14T37,71.29A30.45,30.45,0,0,1,23.7,68.4,18.12,18.12,0,0,1,15.51,60.53Z"/><path class="cls-1" d="M72.5,235.72a35.38,35.38,0,0,1-2.92,13.73,33.82,33.82,0,0,1-8,11.29,37.56,37.56,0,0,1-12,7.57,36.22,36.22,0,0,1-25.92.19,37.69,37.69,0,0,1-10.83-6.21A34.51,34.51,0,0,1,0,234.63a35.28,35.28,0,0,1,2.9-13.71A34,34,0,0,1,11,209.6a37.28,37.28,0,0,1,25.9-10,36,36,0,0,1,13.75,2.95,37.1,37.1,0,0,1,11.74,7.87A34.12,34.12,0,0,1,70,222,35.3,35.3,0,0,1,72.5,235.72ZM36,257.85a19.82,19.82,0,0,0,15.33-6.24,24.8,24.8,0,0,0,.42-32.44,19.82,19.82,0,0,0-15.07-6.82,20,20,0,0,0-15.4,6.34,23,23,0,0,0-6.32,16.16q-.15,9.84,5.74,16.35A20.07,20.07,0,0,0,36,257.85Z"/><path class="cls-1" d="M25.49,468.35l1-67.9,14.52.22-1,67.9Z"/><path class="cls-1" d="M6.53,659l8.21-9a12.32,12.32,0,0,0,4.83,6,13.85,13.85,0,0,0,7.57,2.28,12.44,12.44,0,0,0,8.11-2.3,7.92,7.92,0,0,0,3.07-6.44q.06-4.83-9.74-9.75-3.18-1.59-5-2.58-8.83-4.77-12.2-9.26a16.73,16.73,0,0,1-3.27-10.6A17,17,0,0,1,15,603.58q6.74-5.3,17.36-5.14a24.31,24.31,0,0,1,10.61,2.31,21.7,21.7,0,0,1,7.81,6.87L42,615.7a10.52,10.52,0,0,0-4-4.49A11.93,11.93,0,0,0,32,609.66a10.67,10.67,0,0,0-7,2.05,6.85,6.85,0,0,0-2.73,5.55q-.09,5.38,10.33,10,2.07.91,3.18,1.44,8.56,4.06,12.65,9.1a17.2,17.2,0,0,1,4,11.38q-.15,9.55-6.75,15.13T28,669.72a30.31,30.31,0,0,1-13.32-2.89A18.12,18.12,0,0,1,6.53,659Z"/></g></g></svg>