<svg xmlns="http://www.w3.org/2000/svg" viewBox="0 0 335.03 335.03"><defs><style>.cls-1{fill:none;}.cls-2{fill:#f59584;}.cls-3{fill:#fff;}</style></defs><title>contact_1</title><g id="Layer_2" data-name="Layer 2"><g id="Layer_1-2" data-name="Layer 1"><rect class="cls-1" width="335.03" height="335.03"/><polygon class="cls-2" points="283.39 215.52 331.4 167.52 283.39 119.52 283.39 51.63 215.52 51.63 167.52 3.63 119.52 51.63 51.63 51.63 51.63 119.52 3.63 167.52 51.63 215.52 51.63 283.4 119.52 283.4 167.52 331.4 215.52 283.4 283.39 283.4 283.39 215.52"/><path class="cls-3" d="M80.67,155.31l-.91,7.39a17.32,17.32,0,0,0-4.28-4.13,9,9,0,0,0-4.72-1.21,8.56,8.56,0,0,0-6.79,3,11.54,11.54,0,0,0-2.67,7.84,10.2,10.2,0,0,0,2.49,7.2,8.57,8.57,0,0,0,6.54,2.73c2.56,0,5.21-1.12,8-3.33l-1,7.69a21.56,21.56,0,0,1-8,1.7,14.64,14.64,0,0,1-11.07-4.43A16,16,0,0,1,54,168.28a17,17,0,0,1,4.57-12.12A15,15,0,0,1,70,151.27,17,17,0,0,1,80.67,155.31Z"/><path class="cls-3" d="M119,167.5a16,16,0,0,1-4.93,11.92,16.51,16.51,0,0,1-12.07,4.8,17,17,0,0,1-12.29-4.56A15.36,15.36,0,0,1,84.9,168a15.89,15.89,0,0,1,4.95-11.95,17.4,17.4,0,0,1,12.49-4.8,16.41,16.41,0,0,1,12,4.53A15.45,15.45,0,0,1,119,167.5Zm-7.32-.36a9.55,9.55,0,0,0-2.59-7.06,9,9,0,0,0-6.81-2.69,9.6,9.6,0,0,0-7.22,3A10.54,10.54,0,0,0,92.17,168a10.16,10.16,0,0,0,2.69,7.38,9.16,9.16,0,0,0,7,2.89,9,9,0,0,0,7-3.13A11.39,11.39,0,0,0,111.67,167.14Z"/><path class="cls-3" d="M136.33,152.33l-.33,2.88a13.47,13.47,0,0,1,8.69-3.61,10.23,10.23,0,0,1,7.27,2.52,9.12,9.12,0,0,1,2.66,6.9,50.57,50.57,0,0,1-.4,5.64l-2.07,16.62h-7.23l2.2-18.21c.09-.68.15-1.28.18-1.81s.06-1,.06-1.41c0-2.8-1.52-4.2-4.54-4.2a7.13,7.13,0,0,0-4.8,1.71,8.1,8.1,0,0,0-2.43,3.27,11.5,11.5,0,0,0-.72,2.43c-.2,1-.38,2-.53,3.29l-1.84,14.91h-7.26l3.84-30.93Z"/><path class="cls-3" d="M173.06,159.06l-3,24.2h-7.25l3-24.2H161.7l.82-6.72h4.1L168.4,138h7.25l-1.77,14.34h6.72l-.82,6.72Z"/><path class="cls-3" d="M217.39,152.33l-3.84,30.93H206.3l.42-3.35q-4.65,4.07-9.61,4.07a13,13,0,0,1-10-4.17,15.27,15.27,0,0,1-3.84-10.8q0-7.68,4.43-12.54a14.92,14.92,0,0,1,11.53-4.89,13.38,13.38,0,0,1,5.65,1.07,15.92,15.92,0,0,1,4.8,3.75l.49-4.07Zm-8.79,14.58a9.42,9.42,0,0,0-2.36-6.67,7.88,7.88,0,0,0-6.11-2.59,8.62,8.62,0,0,0-6.82,3.18,11.72,11.72,0,0,0-2.77,7.89,9.7,9.7,0,0,0,2.31,6.66,7.55,7.55,0,0,0,5.91,2.6,9,9,0,0,0,6.92-3.26A11.36,11.36,0,0,0,208.6,166.91Z"/><path class="cls-3" d="M250.39,155.31l-1,7.39a17.11,17.11,0,0,0-4.23-4.13,9,9,0,0,0-4.73-1.21,8.66,8.66,0,0,0-6.8,3,11.58,11.58,0,0,0-2.66,7.84,10.18,10.18,0,0,0,2.5,7.2,8.54,8.54,0,0,0,6.53,2.73c2.57,0,5.21-1.12,8-3.33l-1,7.69a21.46,21.46,0,0,1-8,1.7A14.64,14.64,0,0,1,228,179.81a15.93,15.93,0,0,1-4.24-11.53,17,17,0,0,1,4.57-12.12,15,15,0,0,1,11.43-4.89A17.08,17.08,0,0,1,250.39,155.31Z"/><path class="cls-3" d="M265.28,159.06l-3,24.2H255l3-24.2h-4.11l.82-6.72h4.11L260.61,138h7.26l-1.78,14.34h6.73l-.82,6.72Z"/></g></g></svg>