<svg xmlns="http://www.w3.org/2000/svg" viewBox="0 0 341.21 341.21"><defs><style>.cls-1{fill:#f59584;}.cls-2{fill:#fff;}</style></defs><title>contactbox_1</title><g id="Layer_2" data-name="Layer 2"><g id="Layer_1-2" data-name="Layer 1"><polygon class="cls-1" points="291.24 220.58 341.21 170.61 291.24 120.64 291.24 49.97 220.58 49.97 170.61 0 120.64 49.97 49.97 49.97 49.97 120.64 0 170.61 49.97 220.58 49.97 291.25 120.64 291.25 170.61 341.21 220.58 291.25 291.24 291.25 291.24 220.58"/><path class="cls-2" d="M78.82,162.61l-.95,7.69A17.94,17.94,0,0,0,73.42,166a9.33,9.33,0,0,0-4.92-1.26,8.94,8.94,0,0,0-7.07,3.17,12,12,0,0,0-2.77,8.17,10.58,10.58,0,0,0,2.59,7.49,8.89,8.89,0,0,0,6.81,2.84c2.66,0,5.42-1.16,8.27-3.46l-1,8A22.26,22.26,0,0,1,67,192.72a15.25,15.25,0,0,1-11.52-4.61,16.6,16.6,0,0,1-4.41-12,17.72,17.72,0,0,1,4.75-12.62,15.66,15.66,0,0,1,11.89-5.09A17.71,17.71,0,0,1,78.82,162.61Z"/><path class="cls-2" d="M118.71,175.29a16.69,16.69,0,0,1-5.13,12.41,17.18,17.18,0,0,1-12.57,5q-7.83,0-12.79-4.75a16,16,0,0,1-5-12.1,16.54,16.54,0,0,1,5.16-12.44,18.06,18.06,0,0,1,13-5,17.07,17.07,0,0,1,12.48,4.72A16.05,16.05,0,0,1,118.71,175.29Zm-7.62-.37a9.93,9.93,0,0,0-2.7-7.35,9.38,9.38,0,0,0-7.08-2.8,10,10,0,0,0-7.52,3.11,11,11,0,0,0-3,7.89,10.59,10.59,0,0,0,2.8,7.69,9.54,9.54,0,0,0,7.25,3,9.34,9.34,0,0,0,7.31-3.25A11.85,11.85,0,0,0,111.09,174.92Z"/><path class="cls-2" d="M136.76,159.5l-.34,3q4.47-3.76,9.05-3.76a10.64,10.64,0,0,1,7.56,2.63,9.44,9.44,0,0,1,2.77,7.18,50.89,50.89,0,0,1-.41,5.87l-2.16,17.3h-7.52L148,172.76c.09-.7.15-1.33.18-1.88s.06-1,.06-1.47c0-2.91-1.58-4.37-4.72-4.37a7.41,7.41,0,0,0-5,1.78,8.5,8.5,0,0,0-2.53,3.41,12.67,12.67,0,0,0-.75,2.52c-.21,1-.39,2.13-.55,3.43l-1.91,15.52h-7.56l4-32.2Z"/><path class="cls-2" d="M175,166.51l-3.11,25.19h-7.55l3.11-25.19h-4.28l.86-7h4.27l1.85-14.93h7.55l-1.85,14.93h7l-.86,7Z"/><path class="cls-2" d="M221.15,159.5l-4,32.2h-7.55l.44-3.49q-4.84,4.24-10,4.24a13.59,13.59,0,0,1-10.42-4.34,15.84,15.84,0,0,1-4-11.24q0-8,4.61-13.06a15.55,15.55,0,0,1,12-5.09,13.93,13.93,0,0,1,5.88,1.12,16.51,16.51,0,0,1,5,3.9l.51-4.24ZM212,174.68a9.83,9.83,0,0,0-2.46-6.94,8.21,8.21,0,0,0-6.36-2.7,9,9,0,0,0-7.1,3.31,12.17,12.17,0,0,0-2.88,8.21,10.07,10.07,0,0,0,2.4,6.94,7.83,7.83,0,0,0,6.15,2.7,9.39,9.39,0,0,0,7.21-3.39A11.88,11.88,0,0,0,212,174.68Z"/><path class="cls-2" d="M255.5,162.61l-1,7.69A17.93,17.93,0,0,0,250.1,166a9.34,9.34,0,0,0-4.93-1.26,9,9,0,0,0-7.07,3.17,12,12,0,0,0-2.77,8.17,10.58,10.58,0,0,0,2.6,7.49,8.85,8.85,0,0,0,6.8,2.84c2.67,0,5.42-1.16,8.27-3.46l-1,8a22.26,22.26,0,0,1-8.34,1.77,15.25,15.25,0,0,1-11.52-4.61,16.6,16.6,0,0,1-4.41-12,17.77,17.77,0,0,1,4.75-12.62,15.68,15.68,0,0,1,11.9-5.09A17.75,17.75,0,0,1,255.5,162.61Z"/><path class="cls-2" d="M271,166.51l-3.11,25.19h-7.56l3.11-25.19h-4.27l.85-7h4.28l1.84-14.93h7.56l-1.85,14.93h7l-.85,7Z"/></g></g></svg>