<svg xmlns="http://www.w3.org/2000/svg" viewBox="0 0 335.03 335.03"><defs><style>.cls-1{fill:#dce24f;}.cls-2{fill:#fff;}.cls-3{fill:none;}</style></defs><title>hours_1</title><g id="Layer_2" data-name="Layer 2"><g id="Layer_1-2" data-name="Layer 1"><polygon class="cls-1" points="2.64 213.66 35.13 70.55 167.28 6.73 299.57 70.25 332.39 213.29 241.02 328.13 94.27 328.29 2.64 213.66"/><path class="cls-2" d="M97.36,126.13,93.87,154.4a15,15,0,0,1,9.23-3.52,10.92,10.92,0,0,1,7.52,2.49,8.06,8.06,0,0,1,2.9,6.46,17.19,17.19,0,0,1-.1,2.18c-.1.81-.16,1.72-.27,2.75l-2.36,19.1h-7.56l2.4-19.51a22.46,22.46,0,0,0,.2-2.84c0-2.87-1.68-4.31-5.06-4.31q-7.24,0-8.44,9.81l-2.08,16.85H82.73l7.11-57.73Z"/><path class="cls-2" d="M156.9,167.46a16.62,16.62,0,0,1-5.13,12.4,17.23,17.23,0,0,1-12.58,5q-7.83,0-12.78-4.75a16.05,16.05,0,0,1-5-12.1,16.53,16.53,0,0,1,5.16-12.44,18,18,0,0,1,13-5A17,17,0,0,1,152,155.28,16,16,0,0,1,156.9,167.46Zm-7.63-.38a9.89,9.89,0,0,0-2.7-7.35,9.32,9.32,0,0,0-7.07-2.8A10,10,0,0,0,132,160a11.08,11.08,0,0,0-3,7.89,10.66,10.66,0,0,0,2.8,7.7,9.55,9.55,0,0,0,7.24,3,9.32,9.32,0,0,0,7.32-3.25A11.81,11.81,0,0,0,149.27,167.08Z"/><path class="cls-2" d="M195.14,151.71l-2.29,18.73a37,37,0,0,1-.68,4.17,19.84,19.84,0,0,1-.89,3,10.23,10.23,0,0,1-3.21,4.07q-3.82,3-10.08,3-6,0-9.51-3a10.34,10.34,0,0,1-3.55-8.23,15.77,15.77,0,0,1,.08-1.85c.08-.71.15-1.51.26-2.43l2.12-17.46h7.55l-2.21,18c-.09.77-.16,1.45-.2,2s-.07,1.07-.07,1.45q0,5.1,6,5.1a6.17,6.17,0,0,0,4.78-1.68c1-1.12,1.71-3.08,2.06-5.88l2.35-19.1Z"/><path class="cls-2" d="M213.29,151.71l-.34,2.76c2.56-2.41,5.13-3.62,7.73-3.62a9.11,9.11,0,0,1,6.22,2.5l-4.82,6.22a6.38,6.38,0,0,0-4.17-1.78,5.44,5.44,0,0,0-2.53.56,5.15,5.15,0,0,0-1.9,1.78,11.1,11.1,0,0,0-1.33,3.13,30.77,30.77,0,0,0-.84,4.58l-2,16.06h-7.58l4-32.19Z"/><path class="cls-2" d="M252.29,155.22,248,159.49q-3-2.7-5.57-2.7a4.3,4.3,0,0,0-2.89,1,3,3,0,0,0-1.14,2.41,3.19,3.19,0,0,0,1,2.35,19.12,19.12,0,0,0,4,2.67c2.9,1.62,4.83,3.1,5.81,4.44a8,8,0,0,1,1.55,5.15,9.23,9.23,0,0,1-3.17,7.34,12.65,12.65,0,0,1-8.45,2.74q-7.06,0-11.72-6.39l5-3.46c2,2.44,4.19,3.66,6.49,3.66a4.65,4.65,0,0,0,3.13-1,3.38,3.38,0,0,0,1.18-2.67,2.89,2.89,0,0,0-1-2.32,11.77,11.77,0,0,0-1.67-1.23c-.8-.53-1.88-1.15-3.25-1.88a15.72,15.72,0,0,1-5-3.94,8.37,8.37,0,0,1-1.4-4.92,9.32,9.32,0,0,1,3.21-7.24,11.75,11.75,0,0,1,8.17-2.87C245.85,150.61,249.22,152.14,252.29,155.22Z"/><rect class="cls-3" width="335.03" height="335.03"/></g></g></svg>