<svg xmlns="http://www.w3.org/2000/svg" viewBox="0 0 329.75 321.56"><defs><style>.cls-1{fill:#dce24f;}.cls-2{fill:#fff;}</style></defs><title>hoursbox</title><g id="Layer_2" data-name="Layer 2"><g id="Layer_1-2" data-name="Layer 1"><polygon class="cls-1" points="0 206.93 32.49 63.82 164.64 0 296.93 63.52 329.75 206.56 238.38 321.4 91.63 321.56 0 206.93"/><path class="cls-2" d="M93.63,132.42l-3.49,28.27a15,15,0,0,1,9.23-3.52,10.92,10.92,0,0,1,7.52,2.49,8.09,8.09,0,0,1,2.9,6.46c0,.64,0,1.37-.1,2.18s-.16,1.72-.27,2.75l-2.36,19.1H99.5l2.4-19.51a23.45,23.45,0,0,0,.2-2.84c0-2.87-1.68-4.31-5.06-4.31q-7.25,0-8.44,9.81l-2.08,16.85H79l7.11-57.73Z"/><path class="cls-2" d="M153.17,173.75a16.67,16.67,0,0,1-5.13,12.4,17.22,17.22,0,0,1-12.58,5q-7.83,0-12.78-4.75a16,16,0,0,1-5-12.1,16.52,16.52,0,0,1,5.16-12.44,18,18,0,0,1,13-5,17.08,17.08,0,0,1,12.47,4.71A16,16,0,0,1,153.17,173.75Zm-7.63-.38a9.93,9.93,0,0,0-2.7-7.35,9.35,9.35,0,0,0-7.07-2.8,10,10,0,0,0-7.52,3.11,11.05,11.05,0,0,0-3,7.89,10.61,10.61,0,0,0,2.8,7.7,9.51,9.51,0,0,0,7.24,3,9.31,9.31,0,0,0,7.32-3.25A11.84,11.84,0,0,0,145.54,173.37Z"/><path class="cls-2" d="M191.41,158l-2.29,18.73a38.69,38.69,0,0,1-.68,4.17,20.3,20.3,0,0,1-.89,3,10.26,10.26,0,0,1-3.21,4.07q-3.83,3-10.08,3-6,0-9.51-3a10.32,10.32,0,0,1-3.55-8.23c0-.53,0-1.14.08-1.85s.15-1.51.26-2.43L163.66,158h7.55L169,176c-.09.77-.16,1.45-.2,2s-.07,1.07-.07,1.45q0,5.1,6,5.1a6.17,6.17,0,0,0,4.78-1.68c1-1.12,1.71-3.08,2.06-5.88l2.35-19.1Z"/><path class="cls-2" d="M209.56,158l-.34,2.76q3.83-3.61,7.73-3.62a9.13,9.13,0,0,1,6.22,2.5l-4.82,6.22a6.43,6.43,0,0,0-4.17-1.78,5.51,5.51,0,0,0-2.53.56,5.17,5.17,0,0,0-1.9,1.78,11,11,0,0,0-1.33,3.13,30,30,0,0,0-.84,4.58l-2,16.06H198L202,158Z"/><path class="cls-2" d="M248.56,161.51l-4.27,4.27c-2-1.8-3.86-2.7-5.57-2.7a4.3,4.3,0,0,0-2.89,1,3,3,0,0,0-1.14,2.41,3.17,3.17,0,0,0,.95,2.35,18.55,18.55,0,0,0,4,2.67q4.34,2.43,5.81,4.44A8.09,8.09,0,0,1,247,181.1a9.26,9.26,0,0,1-3.17,7.34,12.65,12.65,0,0,1-8.45,2.74q-7.07,0-11.72-6.39l5-3.46c2,2.44,4.19,3.66,6.49,3.66a4.62,4.62,0,0,0,3.13-1,3.41,3.41,0,0,0,1.18-2.67,2.93,2.93,0,0,0-1-2.32,12.21,12.21,0,0,0-1.67-1.23c-.8-.53-1.88-1.15-3.25-1.88a15.66,15.66,0,0,1-5-3.94,8.35,8.35,0,0,1-1.4-4.92,9.3,9.3,0,0,1,3.21-7.24,11.76,11.76,0,0,1,8.17-2.87C242.12,156.9,245.49,158.43,248.56,161.51Z"/></g></g></svg>