<?xml version="1.0" encoding="utf-8"?>
<!-- Generator: Adobe Illustrator 22.1.0, SVG Export Plug-In . SVG Version: 6.00 Build 0)  -->
<svg version="1.1" id="Layer_1" xmlns="http://www.w3.org/2000/svg" xmlns:xlink="http://www.w3.org/1999/xlink" x="0px" y="0px"
	 viewBox="0 0 288 86.4" style="enable-background:new 0 0 288 86.4;" xml:space="preserve">
<style type="text/css">
	.st0{fill:#f285b1;}
	.st1{fill:#f285b1;}
</style>
<g>
	<path class="st0" d="M144.5,35.1L144.5,35.1C144.4,19.5,131.6,6.9,116,6.9c-5.3,0-10.3,1.5-14.6,4c-0.6,0.3-1.3,0.5-2.1,0.5
		c-1.1,0-2.1-0.3-2.9-0.9c-1.2-0.9-2.7-1.5-4.3-1.5c-3.9,0-7.1,3.1-7.1,7c0,1.4,0.4,2.7,1.1,3.7c0.8,1.4,1.3,3,1.3,4.8
		c0,0,0,49.7,0,49.8c0,3.1,2.5,5.6,5.6,5.6c3.1,0,5.6-2.5,5.6-5.6c0-0.1,0-39.2,0-39.2h0c0.1-9.4,7.9-17,17.3-17
		c9.5,0,17.2,7.6,17.3,17h0c0,0,0,39.2,0,39.2c0,3.1,2.5,5.6,5.6,5.6c3.1,0,5.6-2.5,5.6-5.6C144.5,74.3,144.5,35.1,144.5,35.1z"/>
	<g>
		<path class="st0" d="M72.1,35.1C71.9,20.1,58.6,6.9,43.5,6.9c-15.7,0-28.9,12.9-29,28.3c0,0,0,39.2,0,39.2c0,3.1,2.5,5.6,5.6,5.6
			c3.1,0,5.6-2.5,5.6-5.6c0-0.1,0-39.2,0-39.2h0c0.1-9.4,7.9-17,17.3-17c9.5,0,17.2,7.6,17.3,17h0c0,0,0,39.2,0,39.2
			c0,3,2.9,5.6,6.1,5.6c3.1,0,5.6-2.5,5.6-5.6C72.1,74.3,72.1,35.1,72.1,35.1z"/>
	</g>
	<g>
		<path class="st0" d="M217.4,35.1c-0.2-15.1-13.4-28.3-28.5-28.3c-15.7,0-28.9,12.9-29,28.3c0,0,0,39.2,0,39.2
			c0,3.1,2.5,5.6,5.6,5.6c3.1,0,5.6-2.5,5.6-5.6c0-0.1,0-39.2,0-39.2h0c0.1-9.4,7.9-17,17.3-17c9.5,0,17.2,7.6,17.3,17l0,0
			c0,0,0,39.2,0,39.2c0,3,2.9,5.6,6.1,5.6c3.1,0,5.6-2.5,5.6-5.6C217.4,74.3,217.4,35.1,217.4,35.1z"/>
	</g>
	<g>
		<path class="st0" d="M275.5,10.6c-4.2-2.4-9-3.8-14.2-3.8c-5.3,0-10.3,1.5-14.6,4c-0.6,0.3-1.3,0.5-2.1,0.5
			c-1.1,0-2.1-0.3-2.9-0.9C240.5,9.5,239,9,237.4,9c-3.9,0-7.1,3.1-7.1,7c0,1.4,0.4,2.7,1.1,3.7c0.8,1.4,1.3,3,1.3,4.8
			c0,0,0,49.7,0,49.8c0,3.1,2.5,5.6,5.6,5.6c3.1,0,5.6-2.5,5.6-5.6c0-0.1,0-39.2,0-39.2h0c0.1-9.4,7.9-17,17.3-17
			c3.2,0,6.2,0.9,8.7,2.4l0,0c0.8,0.5,1.8,0.8,2.9,0.8c3.1,0,5.6-2.5,5.6-5.6c0-1.9-1-3.6-2.5-4.7"/>
	</g>
	<path class="st1" d="M55,47.5C55,47.5,55,47.5,55,47.5L55,47.5c0-3.9-1.9-7-4.4-7.5c-0.1,0-0.2,0-0.3,0c-3.1-0.4-6.6-0.3-10.1,0.5
		c-3.2,0.7-6.2,1.9-8.6,3.5c-0.2,0.1-0.3,0.2-0.4,0.3c-0.4,0.3-0.6,0.8-0.6,1.3l0,2l0,0l0,2c0,0.5,0.2,1,0.6,1.3
		c0.1,0.1,0.3,0.2,0.4,0.3c2.4,1.5,5.3,2.7,8.6,3.5c3.5,0.8,6.9,0.9,10.1,0.5c0.1,0,0.2,0,0.3,0C53.1,54.5,55,51.3,55,47.5L55,47.5
		C55,47.5,55,47.5,55,47.5z"/>
	<path class="st1" d="M200.3,47.4C200.3,47.4,200.3,47.4,200.3,47.4L200.3,47.4c0-3.9-1.9-7-4.4-7.5c-0.1,0-0.2,0-0.3,0
		c-3.1-0.4-6.6-0.3-10.1,0.5c-3.2,0.7-6.2,1.9-8.6,3.5c-0.2,0.1-0.3,0.2-0.4,0.3c-0.4,0.3-0.6,0.8-0.6,1.3l0,2l0,0l0,2
		c0,0.5,0.2,1,0.6,1.3c0.1,0.1,0.3,0.2,0.4,0.3c2.4,1.5,5.3,2.7,8.6,3.5c3.5,0.8,6.9,0.9,10.1,0.5c0.1,0,0.2,0,0.3,0
		C198.3,54.5,200.3,51.3,200.3,47.4L200.3,47.4C200.3,47.4,200.3,47.4,200.3,47.4z"/>
</g>
</svg>
