<?xml version="1.0" encoding="utf-8"?>
<!-- Generator: Adobe Illustrator 23.0.3, SVG Export Plug-In . SVG Version: 6.00 Build 0)  -->
<svg version="1.1" id="Layer_1" xmlns="http://www.w3.org/2000/svg" xmlns:xlink="http://www.w3.org/1999/xlink" x="0px" y="0px"
	 viewBox="0 0 1491.7 917" style="enable-background:new 0 0 1491.7 917;" xml:space="preserve">
<style type="text/css">
	.st0{fill:#FFE98D;}
</style>
<path class="st0" d="M0,0v917h1491.7V0H0z M1347.6,121.5l37.3,14.4c-3.1,4.6-5.7,9.4-7.9,14.4c-2.1,5.2-3.2,10.8-3.2,16.4
	c0,1.3,0.2,2.5,0.4,3.8c0.2,1.3,0.6,2.5,1.3,3.7c0.6,1.1,1.4,2,2.4,2.8c1.1,0.8,2.4,1.3,3.8,1.2c1.2,0.1,2.4-0.3,3.3-1
	c0.8-0.8,1.5-1.7,2-2.7c0.6-1.1,0.9-2.3,1.2-3.5c0.2-1.3,0.6-2.4,0.8-3.4l2.7-12c1.2-5.3,3-10.5,5.3-15.5c2-4.6,4.9-8.7,8.3-12.3
	c3.4-3.5,7.5-6.2,12-8c5.2-2,10.7-3,16.3-2.9c8.8,0,16.4,1.8,22.9,5.4c6.4,3.5,11.9,8.4,16.3,14.3c4.5,6.1,7.8,13,9.7,20.4
	c2.1,7.5,3.2,15.4,3.2,23.3c-0.1,9.7-1.3,19.4-3.6,28.8c-2.2,9.4-5.5,18.6-9.7,27.3l-41.3-16.3l2.1-2.7c3.8-4.8,6.9-10,9.5-15.5
	c2.6-5.5,3.9-11.6,3.9-17.6c0-1.5-0.2-2.9-0.4-4.3c-0.2-1.6-0.7-3.1-1.4-4.5c-0.7-1.3-1.6-2.4-2.7-3.4c-1.2-0.9-2.7-1.4-4.2-1.3
	c-1.4-0.1-2.8,0.3-3.9,1.2c-0.9,0.8-1.7,1.8-2.2,2.9c-0.6,1.3-0.9,2.5-1.2,3.9c-0.2,1.4-0.6,2.7-0.8,3.9l-2,10.7
	c-0.9,5-2.3,10-4.3,14.7c-1.9,4.5-4.6,8.6-7.9,12.2c-3.2,3.5-7.1,6.3-11.4,8.3c-4.8,2-9.9,3.1-15.1,3c-8.6,0-16.4-1.8-23-5.4
	c-6.6-3.5-12.4-8.4-17-14.4c-4.6-6.1-8.2-12.9-10.5-20.3c-2.4-7.5-3.5-15.4-3.5-23.3C1334.6,151.4,1339.1,135.5,1347.6,121.5z
	 M850.8,120.9l37.3,14.4c-3.1,4.6-5.7,9.4-7.9,14.4c-2.1,5.2-3.2,10.8-3.2,16.4c0,1.3,0.2,2.5,0.4,3.8c0.2,1.3,0.6,2.5,1.3,3.7
	c0.6,1.1,1.4,2,2.4,2.8c1.1,0.8,2.4,1.3,3.8,1.2c1.2,0.1,2.4-0.3,3.3-1c0.8-0.8,1.5-1.7,2-2.7c0.6-1.1,0.9-2.3,1.2-3.5
	c0.2-1.3,0.6-2.4,0.8-3.4l2.8-12c1.2-5.3,3-10.5,5.3-15.5c2-4.6,4.9-8.7,8.3-12.3c3.5-3.5,7.5-6.2,12-8c5.2-2,10.7-3,16.3-2.9
	c8.8,0,16.4,1.8,22.9,5.4c6.4,3.5,11.9,8.4,16.3,14.3c4.5,6.1,7.8,13,9.7,20.4c2.1,7.5,3.2,15.4,3.2,23.3
	c-0.1,9.7-1.3,19.4-3.6,28.8c-2.2,9.4-5.5,18.6-9.7,27.3l-41.3-16.3l2.1-2.7c3.8-4.8,6.9-10,9.5-15.5c2.6-5.5,3.9-11.6,3.9-17.6
	c0-1.5-0.2-2.9-0.4-4.3c-0.2-1.6-0.7-3.1-1.4-4.5c-0.7-1.3-1.6-2.4-2.8-3.4c-2.4-1.7-5.6-1.8-8.1-0.2c-0.9,0.8-1.7,1.8-2.2,2.9
	c-0.6,1.3-0.9,2.5-1.2,3.9c-0.2,1.4-0.6,2.7-0.8,3.9l-2,10.7c-0.9,5-2.3,10-4.3,14.7c-1.9,4.5-4.6,8.6-7.9,12.2
	c-3.2,3.5-7.1,6.3-11.4,8.3c-4.8,2-9.9,3.1-15.1,3c-8.6,0-16.4-1.8-23-5.4c-6.6-3.5-12.3-8.4-17-14.4c-4.6-6.1-8.3-12.9-10.5-20.3
	c-2.4-7.5-3.5-15.4-3.5-23.3C837.9,150.9,842.3,134.9,850.8,120.9z M682.6,120.9l37.3,14.4c-3.1,4.6-5.7,9.4-7.9,14.4
	c-2.1,5.2-3.2,10.8-3.2,16.4c0,1.3,0.2,2.5,0.4,3.8c0.2,1.3,0.6,2.5,1.3,3.7c0.6,1.1,1.4,2,2.4,2.8c1.1,0.8,2.4,1.3,3.8,1.2
	c1.2,0.1,2.4-0.3,3.3-1c0.8-0.8,1.5-1.7,2-2.7c0.6-1.1,0.9-2.3,1.2-3.5c0.2-1.3,0.6-2.4,0.8-3.4l2.8-12c1.2-5.3,3-10.5,5.3-15.5
	c2-4.6,4.9-8.7,8.3-12.3c3.4-3.5,7.5-6.2,12-8c5.2-2,10.7-3,16.3-2.9c8.8,0,16.4,1.8,22.9,5.4c6.4,3.5,11.9,8.4,16.3,14.3
	c4.5,6.1,7.8,13,9.8,20.4c2.1,7.5,3.2,15.4,3.2,23.3c-0.1,9.7-1.3,19.4-3.6,28.8c-2.2,9.4-5.5,18.6-9.7,27.3l-41.3-16.3l2.1-2.7
	c3.8-4.8,6.9-10,9.5-15.5c2.6-5.5,3.9-11.6,3.9-17.6c0-1.5-0.2-2.9-0.4-4.3c-0.2-1.6-0.7-3.1-1.4-4.5c-0.7-1.3-1.6-2.4-2.8-3.4
	c-1.2-0.9-2.7-1.4-4.2-1.3c-1.4-0.1-2.8,0.3-3.9,1.2c-0.9,0.8-1.7,1.8-2.2,2.9c-0.6,1.3-0.9,2.5-1.2,3.9c-0.2,1.4-0.6,2.7-0.8,3.9
	l-2,10.7c-0.9,5-2.3,10-4.3,14.7c-1.9,4.5-4.6,8.6-7.9,12.2c-3.2,3.5-7.1,6.3-11.4,8.3c-4.8,2-9.9,3.1-15.1,3
	c-8.6,0-16.4-1.8-23-5.4c-6.6-3.5-12.3-8.4-17-14.4c-4.6-6.1-8.3-12.9-10.5-20.3c-2.4-7.5-3.5-15.4-3.5-23.3
	C669.6,150.9,674.1,134.9,682.6,120.9z M346.2,120.9l37.3,14.4c-3.1,4.6-5.7,9.4-7.9,14.4c-2.1,5.2-3.2,10.8-3.2,16.4
	c0,1.3,0.2,2.5,0.4,3.8c0.2,1.3,0.6,2.5,1.3,3.7c0.6,1.1,1.4,2,2.4,2.8c1.1,0.8,2.4,1.3,3.8,1.2c1.2,0.1,2.4-0.3,3.3-1
	c0.8-0.8,1.5-1.7,2-2.7c0.6-1.1,0.9-2.3,1.2-3.5c0.2-1.3,0.6-2.4,0.8-3.4l2.8-12c1.2-5.3,3-10.5,5.2-15.5c2-4.6,4.9-8.7,8.3-12.3
	c3.4-3.5,7.5-6.2,12-8c5.2-2,10.7-3,16.3-2.9c8.8,0,16.4,1.8,22.9,5.4c6.4,3.5,11.9,8.4,16.3,14.3c4.5,6.1,7.8,13,9.8,20.4
	c2.1,7.5,3.2,15.4,3.2,23.3c-0.1,9.7-1.3,19.4-3.6,28.8c-2.2,9.4-5.5,18.6-9.7,27.3l-41.3-16.3l2.1-2.7c3.8-4.8,6.9-10,9.5-15.5
	c2.6-5.5,3.9-11.6,3.9-17.6c0-1.5-0.2-2.9-0.4-4.3c-0.2-1.6-0.7-3.1-1.4-4.5c-0.7-1.3-1.6-2.4-2.8-3.4s-2.7-1.4-4.2-1.3
	c-1.4-0.1-2.8,0.3-3.9,1.2c-0.9,0.8-1.7,1.8-2.2,2.9c-0.6,1.3-0.9,2.5-1.2,3.9c-0.2,1.4-0.6,2.7-0.8,3.9l-2,10.7
	c-0.9,5-2.3,10-4.3,14.7c-1.9,4.5-4.6,8.6-7.9,12.2c-3.2,3.5-7.1,6.3-11.4,8.3c-4.8,2-9.9,3.1-15.1,3c-8.6,0-16.4-1.8-23-5.4
	c-6.6-3.5-12.3-8.4-17-14.4c-4.6-6.1-8.3-12.9-10.5-20.3c-2.4-7.5-3.5-15.4-3.5-23.3C333.2,150.9,337.7,134.9,346.2,120.9z
	 M177,120.9l37.3,14.4c-3.1,4.6-5.7,9.4-7.9,14.4c-2.1,5.2-3.2,10.8-3.2,16.4c0,1.3,0.2,2.5,0.4,3.8c0.2,1.3,0.6,2.5,1.3,3.7
	c0.6,1.1,1.4,2,2.4,2.8c1.1,0.8,2.4,1.3,3.8,1.2c1.2,0.1,2.4-0.3,3.3-1c0.8-0.8,1.5-1.7,2-2.7c0.6-1.1,0.9-2.3,1.2-3.5
	c0.2-1.3,0.6-2.4,0.8-3.4l2.7-12c1.2-5.3,3-10.5,5.3-15.5c2-4.6,4.9-8.7,8.3-12.3c3.4-3.5,7.5-6.2,12-8c5.2-2,10.7-3,16.3-2.9
	c8.8,0,16.4,1.8,22.9,5.4c6.4,3.5,11.9,8.4,16.3,14.3c4.5,6.1,7.8,13,9.7,20.4c2.1,7.5,3.2,15.4,3.2,23.3
	c-0.1,9.7-1.3,19.4-3.6,28.8c-2.2,9.4-5.5,18.6-9.7,27.3l-41.3-16.3l2.1-2.7c3.8-4.8,6.9-10,9.5-15.5c2.6-5.5,3.9-11.6,3.9-17.6
	c0-1.5-0.2-2.9-0.4-4.3c-0.2-1.6-0.7-3.1-1.4-4.5c-0.7-1.3-1.6-2.4-2.7-3.4c-1.2-0.9-2.7-1.4-4.2-1.3c-1.4-0.1-2.8,0.3-3.9,1.2
	c-0.9,0.8-1.7,1.8-2.2,2.9c-0.6,1.3-0.9,2.5-1.2,3.9c-0.2,1.4-0.6,2.7-0.8,3.9l-2,10.7c-0.9,5-2.3,10-4.3,14.7
	c-1.9,4.5-4.6,8.6-7.9,12.2c-3.2,3.5-7.1,6.3-11.4,8.3c-4.8,2-9.9,3.1-15.1,3c-8.6,0-16.4-1.8-23-5.4c-6.6-3.5-12.4-8.4-17-14.4
	c-4.6-6.1-8.2-12.9-10.5-20.3c-2.4-7.5-3.5-15.4-3.5-23.3C164,150.9,168.5,134.9,177,120.9z M18.8,119.9l37.3,14.4
	c-3.1,4.6-5.7,9.4-7.9,14.4c-2.1,5.2-3.2,10.8-3.2,16.4c0,1.3,0.2,2.5,0.4,3.8c0.2,1.3,0.6,2.5,1.3,3.7c0.6,1.1,1.4,2,2.4,2.8
	c1.1,0.8,2.4,1.3,3.8,1.2c1.2,0.1,2.4-0.3,3.3-1c0.8-0.8,1.5-1.7,2-2.7c0.6-1.1,0.9-2.3,1.2-3.5c0.2-1.3,0.6-2.4,0.8-3.4l2.7-12
	c1.2-5.3,3-10.5,5.3-15.5c2-4.6,4.9-8.7,8.3-12.3c3.4-3.5,7.5-6.2,12-8c5.2-2,10.7-3,16.3-2.9c8.8,0,16.4,1.8,22.9,5.4
	c6.4,3.5,11.9,8.4,16.3,14.3c4.5,6.1,7.8,13,9.7,20.4c2.1,7.5,3.2,15.4,3.2,23.3c-0.1,9.7-1.3,19.4-3.6,28.8
	c-2.2,9.4-5.5,18.6-9.7,27.3l-41.3-16.3l2.1-2.7c3.8-4.8,6.9-10,9.5-15.5c2.6-5.5,3.9-11.6,3.9-17.6c0-1.5-0.2-2.9-0.4-4.3
	c-0.2-1.6-0.7-3.1-1.4-4.5c-0.7-1.3-1.6-2.4-2.7-3.4c-1.2-0.9-2.7-1.4-4.2-1.3c-1.4-0.1-2.8,0.3-3.9,1.2c-0.9,0.8-1.7,1.8-2.2,2.9
	c-0.6,1.3-0.9,2.5-1.2,3.9c-0.2,1.4-0.6,2.7-0.8,3.9l-2,10.7c-0.9,5-2.3,10-4.3,14.7c-1.9,4.5-4.6,8.6-7.9,12.2
	c-3.2,3.5-7.1,6.3-11.4,8.3c-4.8,2-9.9,3.1-15.1,3c-8.6,0-16.4-1.8-23-5.4c-6.6-3.5-12.4-8.4-17-14.4c-4.6-6.1-8.2-12.9-10.5-20.3
	c-2.4-7.5-3.5-15.4-3.5-23.3C5.8,149.9,10.3,133.9,18.8,119.9z M8.3,802.5v-67.2c-0.1-8,1-16,3.3-23.6c2-6.8,5.4-13.3,10-18.8
	c4.6-5.3,10.3-9.6,16.7-12.3c6.7-3,14.5-4.5,23.6-4.5c6.8-0.1,13.7,1,20.1,3.4c5.7,2.1,10.8,5.3,15.2,9.6c4.3,4.3,7.6,9.5,9.7,15.2
	c2.4,6.4,3.5,13.2,3.4,20v27.1h43.9l0.1,51.1H8.3z M154.3,600v51.9H8.3v-64.1c-0.1-7.9,0.9-15.7,2.8-23.4c1.7-7,4.6-13.5,8.8-19.3
	c4.1-5.6,9.5-10.1,15.8-13.2c6.4-3.2,14.2-4.9,23.4-4.9c4.8-0.1,9.7,0.5,14.3,1.7c3.8,1,7.3,2.8,10.5,5.1c3.1,2.4,5.6,5.4,7.5,8.8
	c2.3,4,4.2,8.3,5.6,12.7h1.2c1-1.4,2.2-2.9,3.5-4.5c1.5-1.7,3.3-3.2,5.3-4.5l47.4-31.8v61.3h0.1L107.5,599v0.9H154.3z M154.3,496.4
	H8.3v-98.2h39.9v44.7h13.9V402h38v40.9h14.3v-46.3h39.9V496.4z M153,345.4c-2.2,9.4-5.5,18.6-9.7,27.3L102,356.4l2.1-2.8
	c3.8-4.8,7-10,9.5-15.5c2.6-5.5,3.9-11.6,3.9-17.6c0-1.5-0.2-2.9-0.4-4.3c-0.2-1.6-0.7-3.1-1.4-4.5c-0.7-1.3-1.6-2.4-2.7-3.4
	c-1.2-0.9-2.7-1.4-4.2-1.3c-1.4-0.1-2.8,0.3-3.9,1.2c-0.9,0.8-1.7,1.7-2.2,2.9c-0.6,1.3-0.9,2.5-1.2,3.9c-0.2,1.4-0.6,2.8-0.8,3.9
	l-2,10.6c-0.9,5-2.4,10-4.4,14.7c-1.9,4.5-4.6,8.6-7.9,12.2c-3.2,3.5-7.1,6.3-11.4,8.3c-4.8,2-9.9,3.1-15.1,3
	c-8.6,0-16.4-1.8-23-5.4c-6.6-3.5-12.3-8.4-17-14.3c-4.6-6.1-8.2-12.9-10.5-20.2C7.2,320.1,6,312.2,6,304.2
	c-0.2-16.4,4.3-32.3,12.8-46.3l37.3,14.3c-3.1,4.6-5.7,9.4-7.9,14.5c-2.1,5.2-3.2,10.8-3.2,16.4c0,1.3,0.2,2.5,0.4,3.8
	c0.2,1.3,0.6,2.5,1.3,3.7c0.6,1.1,1.4,2,2.4,2.8c1.1,0.8,2.4,1.3,3.8,1.2c1.2,0.1,2.4-0.3,3.3-1c0.8-0.8,1.5-1.7,2-2.8
	c0.6-1.1,0.9-2.3,1.2-3.5c0.2-1.3,0.6-2.4,0.8-3.4l2.7-12c1.2-5.3,3-10.5,5.3-15.5c2-4.6,4.9-8.7,8.3-12.3c3.4-3.5,7.5-6.2,12-8
	c5.2-2,10.7-3,16.3-2.9c8.8,0,16.4,1.8,22.9,5.4c6.4,3.5,11.9,8.4,16.3,14.3c4.5,6.1,7.8,13,9.7,20.4c2.1,7.5,3.2,15.4,3.2,23.3
	C156.6,326.3,155.4,335.9,153,345.4z M166.4,803.6v-67.2c-0.1-8,1-16,3.3-23.6c2-6.8,5.4-13.3,10-18.8c4.6-5.3,10.3-9.6,16.7-12.3
	c6.7-3,14.5-4.5,23.6-4.5c6.8-0.1,13.7,1,20.1,3.4c5.7,2.1,10.8,5.3,15.2,9.6c4.3,4.3,7.6,9.5,9.7,15.2c2.4,6.4,3.5,13.2,3.4,20
	v27.1h43.9l0.1,51.1L166.4,803.6z M312.5,601v51.9H166.4v-64.1c-0.1-7.9,0.9-15.7,2.8-23.4c1.7-7,4.6-13.5,8.8-19.3
	c4.1-5.6,9.5-10.1,15.8-13.2c6.4-3.2,14.2-4.9,23.4-4.9c4.8-0.1,9.7,0.5,14.3,1.7c3.8,1,7.3,2.8,10.5,5.1c3.1,2.4,5.6,5.4,7.5,8.8
	c2.3,4,4.2,8.3,5.6,12.7h1.2c1-1.4,2.2-2.9,3.5-4.5c1.5-1.7,3.3-3.2,5.3-4.5l47.4-31.8v61.3h0.1l-46.8,23.3v0.9H312.5z M312.5,497.4
	H166.4v-98.2h39.9v44.7h13.9v-40.9h38v40.9h14.3v-46.3h39.9V497.4z M311.2,346.4c-2.2,9.4-5.5,18.6-9.7,27.3l-41.3-16.3l2.1-2.8
	c3.8-4.8,7-10,9.5-15.5c2.6-5.5,3.9-11.6,3.9-17.6c0-1.5-0.2-2.9-0.4-4.3c-0.2-1.6-0.7-3.1-1.4-4.5c-0.7-1.3-1.6-2.4-2.7-3.4
	c-1.2-0.9-2.7-1.4-4.2-1.3c-1.4-0.1-2.8,0.3-3.9,1.2c-0.9,0.8-1.7,1.7-2.2,2.9c-0.6,1.3-0.9,2.5-1.2,3.9s-0.6,2.8-0.8,3.9l-2,10.6
	c-0.9,5-2.4,10-4.4,14.7c-1.9,4.5-4.6,8.6-7.9,12.2c-3.2,3.5-7.1,6.3-11.4,8.3c-4.8,2-9.9,3.1-15.1,3c-8.6,0-16.4-1.8-23-5.4
	c-6.6-3.5-12.3-8.4-17-14.3c-4.6-6.1-8.2-12.9-10.5-20.2c-2.4-7.5-3.5-15.5-3.5-23.4c-0.2-16.4,4.3-32.3,12.8-46.3l37.3,14.3
	c-3.1,4.6-5.7,9.4-7.9,14.5c-2.1,5.2-3.2,10.8-3.2,16.4c0,1.3,0.2,2.5,0.4,3.8c0.2,1.3,0.6,2.5,1.3,3.7c0.6,1.1,1.4,2,2.4,2.8
	c1.1,0.8,2.4,1.3,3.8,1.2c1.2,0.1,2.4-0.3,3.3-1c0.8-0.8,1.5-1.7,2-2.8c0.6-1.1,0.9-2.3,1.2-3.5c0.2-1.3,0.6-2.4,0.8-3.4l2.7-12
	c1.2-5.3,3-10.5,5.3-15.5c2-4.6,4.9-8.7,8.3-12.3c3.4-3.5,7.5-6.2,12-8c5.2-2,10.7-3,16.3-2.9c8.8,0,16.4,1.8,22.9,5.4
	c6.4,3.5,11.9,8.4,16.3,14.3c4.5,6.1,7.8,13,9.7,20.4c2.1,7.5,3.2,15.4,3.2,23.3C314.8,327.3,313.6,337,311.2,346.4z M335.6,803.7
	v-67.2c-0.1-8,1-16,3.3-23.6c2-6.8,5.4-13.3,10-18.8c4.6-5.3,10.3-9.6,16.7-12.3c6.7-3,14.6-4.5,23.6-4.5c6.8-0.1,13.7,1,20.1,3.4
	c5.7,2.1,10.8,5.3,15.2,9.6c4.3,4.3,7.6,9.5,9.7,15.2c2.4,6.4,3.5,13.2,3.4,20v27.1h43.9l0.1,51.1H335.6z M481.7,601.1V653H335.6
	v-64.1c-0.1-7.9,0.9-15.7,2.7-23.4c1.7-7,4.6-13.5,8.8-19.3c4.1-5.6,9.5-10.1,15.8-13.2c6.4-3.2,14.2-4.9,23.4-4.9
	c4.8-0.1,9.7,0.5,14.3,1.7c3.8,1,7.3,2.8,10.5,5.1c3.1,2.4,5.6,5.4,7.5,8.8c2.3,4,4.2,8.3,5.6,12.7h1.2c1-1.4,2.2-2.9,3.5-4.5
	c1.5-1.7,3.3-3.2,5.3-4.5l47.5-31.8l0.1,61.3l-46.8,23.3v0.9H481.7z M335.6,497.5v-98.3h39.9v44.7h13.9v-40.9h38v40.9h14.3v-46.3
	h39.9l0,99.8H335.6z M480.4,346.4c-2.2,9.4-5.5,18.6-9.7,27.3l-41.3-16.3l2.1-2.8c3.8-4.8,7-10,9.5-15.5c2.6-5.5,3.9-11.6,3.9-17.6
	c0-1.5-0.2-2.9-0.4-4.3c-0.2-1.6-0.7-3.1-1.4-4.5c-0.7-1.3-1.6-2.4-2.8-3.4c-1.2-0.9-2.7-1.4-4.2-1.3c-1.4-0.1-2.8,0.3-3.9,1.2
	c-0.9,0.8-1.7,1.7-2.2,2.9c-0.6,1.3-0.9,2.5-1.2,3.9c-0.2,1.4-0.6,2.8-0.8,3.9l-2,10.6c-0.9,5-2.4,10-4.4,14.7
	c-1.9,4.5-4.6,8.6-7.9,12.2c-3.2,3.5-7.1,6.3-11.4,8.3c-4.8,2-9.9,3.1-15.1,3c-8.6,0-16.4-1.8-23-5.4c-6.6-3.5-12.3-8.4-17-14.3
	c-4.6-6.1-8.2-12.9-10.5-20.2c-2.4-7.5-3.6-15.4-3.5-23.3c-0.2-16.4,4.3-32.3,12.8-46.3l37.4,14.3c-3.1,4.6-5.7,9.4-7.9,14.5
	c-2.1,5.2-3.2,10.8-3.2,16.4c0,1.3,0.2,2.5,0.4,3.8c0.2,1.3,0.6,2.5,1.3,3.7c0.6,1.1,1.4,2,2.4,2.8c1.1,0.8,2.4,1.3,3.8,1.2
	c1.2,0.1,2.4-0.3,3.3-1.1c0.8-0.8,1.5-1.7,2-2.8c0.6-1.1,0.9-2.3,1.2-3.5c0.2-1.3,0.6-2.4,0.8-3.4l2.8-12c1.2-5.3,3-10.5,5.2-15.5
	c2-4.6,4.9-8.7,8.3-12.3c3.4-3.5,7.5-6.2,12-8c5.2-2,10.7-3,16.3-2.9c8.8,0,16.4,1.8,22.9,5.4c6.4,3.5,11.9,8.4,16.3,14.3
	c4.5,6.1,7.8,13,9.8,20.4c2.1,7.5,3.2,15.4,3.2,23.3C484,327.3,482.8,337,480.4,346.4z M649.8,803.7H503.9v-67.2
	c-0.1-8,1-16,3.3-23.6c2-6.8,5.4-13.3,10-18.8c4.6-5.3,10.3-9.6,16.7-12.3c6.7-3,14.5-4.5,23.6-4.5c6.8-0.1,13.7,1,20.1,3.4
	c5.7,2.1,10.8,5.3,15.2,9.6c4.3,4.3,7.6,9.5,9.7,15.2c2.4,6.4,3.5,13.2,3.4,20v27.1h43.9V803.7z M649.9,652.9H503.9v-64.1
	c-0.1-7.9,0.9-15.7,2.8-23.4c1.7-7,4.6-13.5,8.8-19.3c4.1-5.6,9.5-10.1,15.8-13.2c6.4-3.2,14.2-4.9,23.4-4.9
	c4.8-0.1,9.7,0.5,14.3,1.7c3.8,1,7.3,2.8,10.5,5.1c3.1,2.4,5.6,5.4,7.5,8.8c2.3,4,4.2,8.3,5.6,12.7h1.2c1-1.4,2.2-2.9,3.5-4.5
	c1.5-1.7,3.3-3.2,5.3-4.5l47.4-31.8v61.2L603,599.9v0.9l46.9,0.2V652.9z M649.9,497.4H503.9v-98.2h39.9v44.7h13.9v-40.9h38v40.9H610
	v-46.3h39.9V497.4z M648.7,346.4c-2.2,9.4-5.5,18.6-9.7,27.3l-41.3-16.3l2.1-2.8c3.8-4.8,7-10,9.5-15.5c2.6-5.5,3.9-11.6,3.9-17.6
	c0-1.5-0.2-2.9-0.4-4.3c-0.2-1.6-0.7-3.1-1.4-4.5c-0.7-1.3-1.6-2.4-2.8-3.4c-1.2-0.9-2.7-1.4-4.2-1.3c-1.4-0.1-2.8,0.3-3.9,1.2
	c-0.9,0.8-1.7,1.7-2.2,2.9c-0.6,1.3-0.9,2.5-1.2,3.9c-0.2,1.4-0.6,2.8-0.8,3.9l-2,10.6c-0.9,5-2.4,10-4.4,14.7
	c-1.9,4.5-4.6,8.6-7.9,12.2c-3.2,3.5-7.1,6.3-11.4,8.3c-4.8,2-9.9,3.1-15.1,3c-8.6,0-16.4-1.8-23-5.4c-6.6-3.5-12.3-8.4-17-14.3
	c-4.6-6.1-8.2-12.9-10.5-20.2c-2.4-7.5-3.6-15.4-3.5-23.3c-0.2-16.4,4.3-32.3,12.8-46.3l37.3,14.3c-3.1,4.6-5.7,9.4-7.9,14.5
	c-2.1,5.2-3.2,10.8-3.2,16.4c0,1.3,0.2,2.5,0.4,3.8c0.2,1.3,0.6,2.5,1.3,3.7c0.6,1.1,1.4,2,2.4,2.8c1.1,0.8,2.4,1.3,3.8,1.2
	c1.2,0.1,2.4-0.3,3.3-1.1c0.8-0.8,1.5-1.7,2-2.8c0.6-1.1,0.9-2.3,1.2-3.5c0.2-1.3,0.6-2.4,0.8-3.4l2.8-12c1.2-5.3,3-10.5,5.2-15.5
	c2-4.6,4.9-8.7,8.3-12.3c3.4-3.5,7.5-6.2,12-8c5.2-2,10.7-3,16.3-2.9c8.8,0,16.4,1.8,22.9,5.4c6.4,3.5,11.9,8.4,16.3,14.3
	c4.5,6.1,7.8,13,9.8,20.4c2.1,7.5,3.2,15.4,3.2,23.3C652.2,327.3,651,337,648.7,346.4z M648.9,208.4c-2.2,9.4-5.5,18.6-9.7,27.3
	l-41.3-16.3l2.1-2.7c3.8-4.8,6.9-10,9.5-15.5c2.6-5.5,3.9-11.6,3.9-17.6c0-1.5-0.2-2.9-0.4-4.3c-0.2-1.6-0.7-3.1-1.4-4.5
	c-0.7-1.3-1.6-2.4-2.8-3.4c-1.2-0.9-2.7-1.4-4.2-1.3c-1.4-0.1-2.8,0.3-3.9,1.2c-0.9,0.8-1.7,1.8-2.2,2.9c-0.6,1.3-0.9,2.5-1.2,3.9
	c-0.2,1.4-0.6,2.7-0.8,3.9l-2,10.7c-0.9,5-2.3,10-4.3,14.7c-1.9,4.5-4.6,8.6-7.9,12.2c-3.2,3.5-7.1,6.3-11.4,8.3
	c-4.8,2-9.9,3.1-15.1,3c-8.6,0-16.4-1.8-23-5.4c-6.6-3.5-12.3-8.4-17-14.4c-4.6-6.1-8.3-12.9-10.5-20.3c-2.4-7.5-3.5-15.4-3.5-23.3
	c-0.4-16.4,4.1-32.4,12.6-46.4l37.3,14.4c-3.1,4.6-5.7,9.4-7.9,14.4c-2.1,5.2-3.2,10.8-3.2,16.4c0,1.3,0.2,2.5,0.4,3.8
	c0.2,1.3,0.6,2.5,1.3,3.7c0.6,1.1,1.4,2,2.4,2.8c1.1,0.8,2.4,1.3,3.8,1.2c1.2,0.1,2.4-0.3,3.3-1c0.8-0.8,1.5-1.7,2-2.7
	c0.6-1.1,0.9-2.3,1.2-3.5c0.2-1.3,0.6-2.4,0.8-3.4l2.8-12c1.2-5.3,3-10.5,5.3-15.5c2-4.6,4.9-8.7,8.3-12.3c3.4-3.5,7.5-6.2,12-8
	c5.2-2,10.7-3,16.3-2.9c8.8,0,16.4,1.8,22.9,5.4c6.4,3.5,11.9,8.4,16.3,14.3c4.5,6.1,7.8,13,9.8,20.4c2.1,7.5,3.2,15.4,3.2,23.3
	C652.4,189.3,651.3,199,648.9,208.4z M818,803.7H672.1v-67.2c-0.1-8,1-16,3.3-23.6c2-6.8,5.4-13.3,10-18.8
	c4.6-5.3,10.3-9.6,16.7-12.3c6.7-3,14.5-4.5,23.6-4.5c6.8-0.1,13.7,1,20.1,3.4c5.7,2.1,10.8,5.3,15.2,9.6c4.3,4.3,7.6,9.5,9.7,15.2
	c2.4,6.4,3.5,13.2,3.4,20v27.1H818V803.7z M818.1,652.9H672.1v-64.1c-0.1-7.9,0.9-15.7,2.8-23.4c1.7-7,4.6-13.5,8.8-19.3
	c4.1-5.6,9.5-10.1,15.8-13.2c6.4-3.2,14.3-4.9,23.4-4.9c4.8-0.1,9.7,0.5,14.3,1.7c3.8,1,7.3,2.8,10.5,5.1c3.1,2.4,5.6,5.4,7.5,8.8
	c2.3,4,4.2,8.3,5.6,12.7h1.2c1-1.4,2.2-2.9,3.5-4.5c1.5-1.7,3.3-3.2,5.3-4.5l47.4-31.8v61.2l-46.8,23.3v0.9l46.9,0.2V652.9z
	 M818.1,497.4H672.1v-98.2H712v44.7h13.9v-40.9h38v40.9h14.3v-46.3h39.9V497.4z M816.9,346.4c-2.2,9.4-5.5,18.6-9.7,27.3l-41.3-16.3
	l2.1-2.8c3.8-4.8,7-10,9.5-15.5c2.6-5.5,3.9-11.6,3.9-17.6c0-1.5-0.2-2.9-0.4-4.3c-0.2-1.6-0.7-3.1-1.4-4.5
	c-0.7-1.3-1.6-2.4-2.8-3.4c-1.2-0.9-2.7-1.4-4.2-1.3c-1.4-0.1-2.8,0.3-3.9,1.2c-0.9,0.8-1.7,1.7-2.2,2.9c-0.6,1.3-0.9,2.5-1.2,3.9
	c-0.2,1.4-0.6,2.8-0.8,3.9l-2,10.6c-0.9,5-2.4,10-4.4,14.7c-1.9,4.5-4.6,8.6-7.9,12.2c-3.2,3.5-7.1,6.3-11.4,8.3
	c-4.8,2-9.9,3.1-15.1,3c-8.6,0-16.4-1.8-23-5.4c-6.6-3.5-12.3-8.4-17-14.3c-4.6-6.1-8.2-12.9-10.5-20.2c-2.4-7.5-3.6-15.4-3.5-23.3
	c-0.2-16.4,4.3-32.3,12.8-46.3l37.3,14.3c-3.1,4.6-5.7,9.4-7.9,14.5c-2.1,5.2-3.2,10.8-3.2,16.4c0,1.3,0.2,2.5,0.4,3.8
	c0.2,1.3,0.6,2.5,1.3,3.7c0.6,1.1,1.4,2,2.4,2.8c1.1,0.8,2.4,1.3,3.8,1.2c1.2,0.1,2.4-0.3,3.3-1.1c0.8-0.8,1.5-1.7,2-2.8
	c0.6-1.1,0.9-2.3,1.2-3.5c0.2-1.3,0.6-2.4,0.8-3.4l2.8-12c1.2-5.3,3-10.5,5.3-15.5c2-4.6,4.9-8.7,8.3-12.3c3.4-3.5,7.5-6.2,12-8
	c5.2-2,10.7-3,16.3-2.9c8.8,0,16.4,1.8,22.9,5.4c6.4,3.5,11.9,8.4,16.3,14.3c4.5,6.1,7.8,13,9.8,20.4c2.1,7.5,3.2,15.4,3.2,23.3
	C820.4,327.3,819.2,337,816.9,346.4z M840.3,803.7v-67.2c-0.1-8,1-16,3.3-23.6c2-6.8,5.4-13.3,10-18.8c4.6-5.3,10.3-9.6,16.7-12.3
	c6.7-3,14.5-4.5,23.6-4.5c6.8-0.1,13.7,1,20.1,3.4c5.7,2.1,10.8,5.3,15.2,9.6c4.3,4.3,7.6,9.5,9.7,15.2c2.4,6.4,3.5,13.2,3.4,20
	v27.1h43.9l0.2,51.1H840.3z M986.4,601.1V653H840.3v-64.1c-0.1-7.9,0.9-15.7,2.8-23.4c1.7-7,4.6-13.5,8.8-19.3
	c4.1-5.6,9.5-10.1,15.8-13.2c6.4-3.2,14.3-4.9,23.4-4.9c4.8-0.1,9.7,0.5,14.3,1.7c3.8,1,7.3,2.8,10.5,5.1c3.1,2.4,5.6,5.4,7.5,8.8
	c2.3,4,4.2,8.3,5.6,12.7h1.2c1-1.4,2.2-2.9,3.5-4.5c1.5-1.7,3.3-3.2,5.3-4.5l47.4-31.8l0.1,61.3l-46.8,23.3v0.9H986.4z M894.2,444
	v-40.9h38V444h14.3v-46.3h39.9v99.8h-146v-98.3h39.9v44.7L894.2,444z M985.1,346.4c-2.2,9.4-5.5,18.6-9.7,27.3l-41.3-16.3l2.1-2.8
	c3.8-4.8,7-10,9.5-15.5c2.6-5.5,3.9-11.6,3.9-17.6c0-1.5-0.2-2.9-0.4-4.3c-0.2-1.6-0.7-3.1-1.4-4.5c-0.7-1.3-1.6-2.4-2.8-3.4
	c-1.2-0.9-2.7-1.4-4.2-1.3c-1.4-0.1-2.8,0.3-3.9,1.2c-0.9,0.8-1.7,1.7-2.2,2.9c-0.6,1.3-0.9,2.5-1.2,3.9c-0.2,1.4-0.6,2.8-0.8,3.9
	l-2,10.6c-0.9,5-2.3,10-4.3,14.7c-1.9,4.5-4.6,8.6-7.9,12.2c-3.2,3.5-7.1,6.3-11.4,8.3c-4.8,2-9.9,3.1-15.1,3
	c-8.6,0-16.4-1.8-23-5.4c-6.6-3.5-12.3-8.4-17-14.3c-4.6-6.1-8.3-12.9-10.5-20.2c-2.4-7.5-3.6-15.4-3.5-23.3
	c-0.2-16.4,4.3-32.3,12.8-46.3l37.3,14.3c-3.1,4.6-5.7,9.4-7.9,14.5c-2.1,5.2-3.2,10.8-3.2,16.4c0,1.3,0.2,2.5,0.4,3.8
	c0.2,1.3,0.6,2.5,1.3,3.7c0.6,1.1,1.4,2,2.4,2.8c1.1,0.8,2.4,1.3,3.8,1.2c1.2,0.1,2.4-0.3,3.3-1.1c0.8-0.8,1.5-1.7,2-2.8
	c0.6-1.1,0.9-2.3,1.2-3.5c0.2-1.3,0.6-2.4,0.8-3.4l2.8-12c1.2-5.3,3-10.5,5.3-15.5c2-4.6,4.9-8.7,8.3-12.3c3.4-3.5,7.5-6.2,12-8
	c5.2-2,10.7-3,16.3-2.9c8.8,0,16.4,1.8,22.9,5.4c6.4,3.5,11.9,8.4,16.3,14.3c4.5,6.1,7.8,13,9.7,20.4c2.1,7.5,3.2,15.4,3.2,23.3
	C988.7,327.3,987.5,337,985.1,346.4z M1154.6,803.7h-146v-67.2c-0.1-8,1-16,3.3-23.6c2-6.8,5.4-13.3,10-18.8
	c4.6-5.3,10.3-9.6,16.7-12.3c6.7-3,14.6-4.5,23.7-4.5c6.8-0.1,13.7,1,20.1,3.4c5.7,2.1,10.8,5.3,15.2,9.6c4.3,4.3,7.6,9.5,9.7,15.2
	c2.4,6.4,3.5,13.2,3.4,20v27.1h43.9L1154.6,803.7z M1154.6,601.1V653h-146v-64.1c-0.1-7.9,0.9-15.7,2.7-23.4
	c1.7-7,4.6-13.5,8.8-19.3c4.1-5.6,9.5-10.1,15.8-13.2c6.4-3.2,14.3-4.9,23.4-4.9c4.8-0.1,9.7,0.5,14.3,1.7c3.8,1,7.3,2.8,10.5,5.1
	c3.1,2.4,5.6,5.4,7.5,8.8c2.3,4,4.2,8.3,5.6,12.7h1.2c1-1.4,2.2-2.9,3.5-4.5c1.5-1.7,3.3-3.2,5.3-4.5l47.4-31.8l0.1,61.3l-46.8,23.3
	v0.9H1154.6z M1154.6,497.5h-146v-98.3h39.9v44.7h13.9v-40.9h38v40.9h14.3v-46.3h39.9L1154.6,497.5z M1153.3,346.4
	c-2.2,9.4-5.5,18.6-9.7,27.3l-41.3-16.3l2.1-2.8c3.8-4.8,7-10,9.5-15.5c2.6-5.5,3.9-11.6,3.9-17.6c0-1.5-0.2-2.9-0.4-4.3
	c-0.2-1.6-0.7-3.1-1.4-4.5c-0.7-1.3-1.6-2.4-2.7-3.4c-1.2-0.9-2.7-1.4-4.2-1.3c-1.4-0.1-2.8,0.3-3.9,1.2c-0.9,0.8-1.7,1.7-2.2,2.9
	c-0.6,1.3-0.9,2.5-1.2,3.9c-0.2,1.4-0.6,2.8-0.8,3.9l-2,10.6c-0.9,5-2.3,10-4.3,14.7c-1.9,4.5-4.6,8.6-7.9,12.2
	c-3.2,3.5-7.1,6.3-11.4,8.3c-4.8,2-9.9,3.1-15.1,3c-8.6,0-16.4-1.8-23-5.4c-6.6-3.5-12.3-8.4-17-14.3c-4.6-6.1-8.2-12.9-10.5-20.2
	c-2.4-7.5-3.6-15.4-3.6-23.3c-0.2-16.4,4.3-32.3,12.8-46.3l37.4,14.3c-3.1,4.6-5.7,9.4-7.9,14.5c-2.1,5.2-3.2,10.8-3.2,16.4
	c0,1.3,0.2,2.5,0.4,3.8c0.2,1.3,0.6,2.5,1.3,3.7c0.6,1.1,1.4,2,2.4,2.8c1.1,0.8,2.4,1.3,3.8,1.2c1.2,0.1,2.4-0.3,3.3-1.1
	c0.8-0.8,1.5-1.7,2-2.8c0.6-1.1,0.9-2.3,1.2-3.5c0.2-1.3,0.6-2.4,0.8-3.4l2.7-12c1.2-5.3,3-10.5,5.3-15.5c2-4.6,4.9-8.7,8.3-12.3
	c3.4-3.5,7.5-6.2,12-8c5.2-2,10.7-3,16.3-2.9c8.8,0,16.4,1.8,22.9,5.4c6.4,3.5,11.9,8.4,16.3,14.3c4.5,6.1,7.8,13,9.7,20.4
	c2.1,7.5,3.2,15.4,3.2,23.3C1156.9,327.2,1155.7,337,1153.3,346.4z M1153.3,208.4c-2.2,9.4-5.5,18.6-9.7,27.3l-41.3-16.3l2.1-2.7
	c3.8-4.8,6.9-10,9.5-15.5c2.6-5.5,3.9-11.6,3.9-17.6c0-1.5-0.2-2.9-0.4-4.3c-0.2-1.6-0.7-3.1-1.4-4.5c-0.7-1.3-1.6-2.4-2.7-3.4
	c-2.4-1.7-5.6-1.8-8.1-0.2c-0.9,0.8-1.7,1.8-2.2,2.9c-0.6,1.3-0.9,2.5-1.2,3.9c-0.2,1.4-0.6,2.7-0.8,3.9l-2,10.7
	c-0.9,5-2.4,10-4.3,14.7c-1.9,4.5-4.6,8.6-7.9,12.2c-3.2,3.5-7.1,6.3-11.4,8.3c-4.8,2-9.9,3.1-15.1,3c-8.6,0-16.4-1.8-23-5.4
	c-6.6-3.5-12.3-8.4-17-14.4c-4.6-6.1-8.2-12.9-10.5-20.3c-2.4-7.5-3.6-15.4-3.5-23.3c-0.2-16.4,4.3-32.3,12.8-46.3l37.3,14.4
	c-3.1,4.6-5.7,9.4-7.9,14.4c-2.1,5.2-3.2,10.8-3.2,16.4c0,1.3,0.2,2.5,0.4,3.8c0.2,1.3,0.6,2.5,1.3,3.7c0.6,1.1,1.4,2,2.4,2.8
	c1.1,0.8,2.4,1.3,3.8,1.2c1.2,0.1,2.4-0.3,3.3-1c0.8-0.8,1.5-1.7,2-2.7c0.6-1.1,0.9-2.3,1.2-3.5c0.2-1.3,0.6-2.4,0.8-3.4l2.7-12
	c1.2-5.3,3-10.5,5.3-15.5c2-4.6,4.9-8.7,8.3-12.3c3.4-3.5,7.5-6.2,12-8c5.2-2,10.7-3,16.3-2.9c8.8,0,16.4,1.8,22.9,5.4
	c6.4,3.5,11.9,8.4,16.3,14.3c4.5,6.1,7.8,13,9.7,20.4c2.1,7.5,3.2,15.4,3.2,23.3C1156.9,189.2,1155.6,198.8,1153.3,208.4z
	 M1322.8,803.7h-146v-67.2c-0.1-8,1-16,3.3-23.6c2-6.8,5.4-13.3,10-18.8c4.6-5.3,10.3-9.6,16.7-12.3c6.7-3,14.6-4.5,23.7-4.5
	c6.8-0.1,13.7,1,20.1,3.4c5.7,2.1,10.8,5.3,15.2,9.6c4.3,4.3,7.6,9.5,9.7,15.2c2.4,6.4,3.5,13.2,3.4,20v27.1h43.9L1322.8,803.7z
	 M1322.8,601.1V653h-146v-64.1c-0.1-7.9,0.9-15.7,2.7-23.4c1.7-7,4.6-13.5,8.8-19.3c4.1-5.6,9.5-10.1,15.8-13.2
	c6.4-3.2,14.3-4.9,23.4-4.9c4.8-0.1,9.7,0.5,14.3,1.7c3.8,1,7.3,2.8,10.5,5.1c3.1,2.4,5.6,5.4,7.5,8.8c2.3,4,4.2,8.3,5.6,12.7h1.2
	c1-1.4,2.2-2.9,3.5-4.5c1.5-1.7,3.3-3.2,5.3-4.5l47.4-31.8l0.1,61.3l-46.8,23.3v0.9H1322.8z M1322.8,497.5h-146v-98.3h39.9v44.7
	h13.9v-40.9h38v40.9h14.3v-46.3h39.9L1322.8,497.5z M1321.5,346.4c-2.2,9.4-5.5,18.6-9.7,27.3l-41.3-16.3l2.1-2.8
	c3.8-4.8,7-10,9.5-15.5c2.6-5.5,3.9-11.6,3.9-17.6c0-1.5-0.2-2.9-0.4-4.3c-0.2-1.6-0.7-3.1-1.4-4.5c-0.7-1.3-1.6-2.4-2.7-3.4
	c-1.2-0.9-2.7-1.4-4.2-1.3c-1.4-0.1-2.8,0.3-3.9,1.2c-0.9,0.8-1.7,1.7-2.2,2.9c-0.6,1.3-0.9,2.5-1.2,3.9c-0.2,1.4-0.6,2.8-0.8,3.9
	l-2,10.6c-0.9,5-2.3,10-4.3,14.7c-1.9,4.5-4.6,8.6-7.9,12.2c-3.2,3.5-7.1,6.3-11.4,8.3c-4.8,2-9.9,3.1-15.1,3
	c-8.6,0-16.4-1.8-23-5.4c-6.6-3.5-12.3-8.4-17-14.3c-4.6-6.1-8.2-12.9-10.5-20.2c-2.4-7.5-3.6-15.4-3.6-23.3
	c-0.2-16.4,4.3-32.3,12.8-46.3l37.4,14.3c-3.1,4.6-5.7,9.4-7.9,14.5c-2.1,5.2-3.2,10.8-3.2,16.4c0,1.3,0.2,2.5,0.4,3.8
	c0.2,1.3,0.6,2.5,1.3,3.7c0.6,1.1,1.4,2,2.4,2.8c1.1,0.8,2.4,1.3,3.8,1.2c1.2,0.1,2.4-0.3,3.3-1.1c0.8-0.8,1.5-1.7,2-2.8
	c0.6-1.1,0.9-2.3,1.2-3.5c0.2-1.3,0.6-2.4,0.8-3.4l2.7-12c1.2-5.3,3-10.5,5.3-15.5c2-4.6,4.9-8.7,8.3-12.3c3.4-3.5,7.5-6.2,12-8
	c5.2-2,10.7-3,16.3-2.9c8.8,0,16.4,1.8,22.9,5.4c6.4,3.5,11.9,8.4,16.3,14.3c4.5,6.1,7.8,13,9.7,20.4c2.1,7.5,3.2,15.4,3.2,23.3
	C1325.1,327.2,1323.9,337,1321.5,346.4z M1321.5,208.4c-2.2,9.4-5.5,18.6-9.7,27.3l-41.3-16.3l2.1-2.7c3.8-4.8,6.9-10,9.5-15.5
	c2.6-5.5,3.9-11.6,3.9-17.6c0-1.5-0.2-2.9-0.4-4.3c-0.2-1.6-0.7-3.1-1.4-4.5c-0.7-1.3-1.6-2.4-2.7-3.4c-2.4-1.7-5.6-1.8-8.1-0.2
	c-0.9,0.8-1.7,1.8-2.2,2.9c-0.6,1.3-0.9,2.5-1.2,3.9c-0.2,1.4-0.6,2.7-0.8,3.9l-2,10.7c-0.9,5-2.4,10-4.3,14.7
	c-1.9,4.5-4.6,8.6-7.9,12.2c-3.2,3.5-7.1,6.3-11.4,8.3c-4.8,2-9.9,3.1-15.1,3c-8.6,0-16.4-1.8-23-5.4c-6.6-3.5-12.3-8.4-17-14.4
	c-4.6-6.1-8.2-12.9-10.5-20.3c-2.4-7.5-3.6-15.4-3.5-23.3c-0.2-16.4,4.3-32.3,12.8-46.3l37.3,14.4c-3.1,4.6-5.7,9.4-7.9,14.4
	c-2.1,5.2-3.2,10.8-3.2,16.4c0,1.3,0.2,2.5,0.4,3.8c0.2,1.3,0.6,2.5,1.3,3.7c0.6,1.1,1.4,2,2.4,2.8c1.1,0.8,2.4,1.3,3.8,1.2
	c1.2,0.1,2.4-0.3,3.3-1c0.8-0.8,1.5-1.7,2-2.7c0.6-1.1,0.9-2.3,1.2-3.5c0.2-1.3,0.6-2.4,0.8-3.4l2.7-12c1.2-5.3,3-10.5,5.3-15.5
	c2-4.6,4.9-8.7,8.3-12.3c3.4-3.5,7.5-6.2,12-8c5.2-2,10.7-3,16.3-2.9c8.8,0,16.4,1.8,22.9,5.4c6.4,3.5,11.9,8.4,16.3,14.3
	c4.5,6.1,7.8,13,9.7,20.4c2.1,7.5,3.2,15.4,3.2,23.3C1325.1,189.2,1323.8,198.8,1321.5,208.4z M1337,804.1v-67.2
	c-0.1-8,1-16,3.3-23.6c2-6.8,5.4-13.3,10-18.8c4.6-5.3,10.3-9.6,16.7-12.3c6.7-3,14.5-4.5,23.6-4.5c6.8-0.1,13.7,1,20.1,3.4
	c5.7,2.1,10.8,5.3,15.2,9.6c4.3,4.3,7.6,9.5,9.7,15.2c2.4,6.4,3.5,13.2,3.4,20V753h43.9l0.1,51.1H1337z M1483.1,601.5v51.9H1337
	v-64.1c-0.1-7.9,0.9-15.7,2.8-23.4c1.7-7,4.6-13.5,8.8-19.3c4.1-5.6,9.5-10.1,15.8-13.2c6.4-3.2,14.2-4.9,23.4-4.9
	c4.8-0.1,9.7,0.5,14.3,1.7c3.8,1,7.3,2.8,10.5,5.1c3.1,2.4,5.6,5.4,7.5,8.8c2.3,4,4.2,8.3,5.6,12.7h1.2c1-1.4,2.2-2.9,3.5-4.5
	c1.5-1.7,3.3-3.2,5.3-4.5L1483,516v61.3h0.1l-46.8,23.3v0.9H1483.1z M1483.1,497.9H1337v-98.2h39.9v44.7h13.9v-40.9h38v40.9h14.3
	v-46.3h39.9V497.9z M1481.8,346.9c-2.2,9.4-5.5,18.6-9.7,27.3l-41.3-16.3l2.1-2.8c3.8-4.8,7-10,9.5-15.5c2.6-5.5,3.9-11.6,3.9-17.6
	c0-1.5-0.2-2.9-0.4-4.3c-0.2-1.6-0.7-3.1-1.4-4.5c-0.7-1.3-1.6-2.4-2.7-3.4c-1.2-0.9-2.7-1.4-4.2-1.3c-1.4-0.1-2.8,0.3-3.9,1.2
	c-0.9,0.8-1.7,1.7-2.2,2.9c-0.6,1.3-0.9,2.5-1.2,3.9s-0.6,2.8-0.8,3.9l-2,10.6c-0.9,5-2.4,10-4.4,14.7c-1.9,4.5-4.6,8.6-7.9,12.2
	c-3.2,3.5-7.1,6.3-11.4,8.3c-4.8,2-9.9,3.1-15.1,3c-8.6,0-16.4-1.8-23-5.4c-6.6-3.5-12.3-8.4-17-14.3c-4.6-6.1-8.2-12.9-10.5-20.2
	c-2.4-7.5-3.5-15.5-3.5-23.4c-0.2-16.4,4.3-32.3,12.8-46.3l37.3,14.3c-3.1,4.6-5.7,9.4-7.9,14.5c-2.1,5.2-3.2,10.8-3.2,16.4
	c0,1.3,0.2,2.5,0.4,3.8c0.2,1.3,0.6,2.5,1.3,3.7c0.6,1.1,1.4,2,2.4,2.8c1.1,0.8,2.4,1.3,3.8,1.2c1.2,0.1,2.4-0.3,3.3-1
	c0.8-0.8,1.5-1.7,2-2.8c0.6-1.1,0.9-2.3,1.2-3.5c0.2-1.3,0.6-2.4,0.8-3.4l2.7-12c1.2-5.3,3-10.5,5.3-15.5c2-4.6,4.9-8.7,8.3-12.3
	c3.4-3.5,7.5-6.2,12-8c5.2-2,10.7-3,16.3-2.9c8.8,0,16.4,1.8,22.9,5.4c6.4,3.5,11.9,8.4,16.3,14.3c4.5,6.1,7.8,13,9.7,20.4
	c2.1,7.5,3.2,15.4,3.2,23.3C1485.3,327.8,1484.2,337.5,1481.8,346.9z"/>
</svg>
