<svg xmlns="http://www.w3.org/2000/svg" viewBox="0 0 1491.67 917"><defs><style>.cls-1.background{fill:#fff;stroke:transparent;stroke-miterlimit:10;}.cls-2.background{fill:#ffe98d;}</style></defs><title>newbg</title><g id="Layer_2" data-name="Layer 2"><g id="Layer_1-2" data-name="Layer 1"><rect class="cls-1 background" x="0.5" y="0.5" width="1490.67" height="916"/><g id="Layer_1-2-2" data-name="Layer 1-2"><path class="cls-2 background" d="M.5.5v916H1491.17V.5ZM880.76,29.22,928.28,47.5a102.57,102.57,0,0,0-10,18.35,53.49,53.49,0,0,0-4.06,20.82,25.79,25.79,0,0,0,.49,4.8,16.21,16.21,0,0,0,1.6,4.68,11.26,11.26,0,0,0,3,3.58,7.45,7.45,0,0,0,4.8,1.47,6,6,0,0,0,4.19-1.35,10.68,10.68,0,0,0,2.46-3.45A19.72,19.72,0,0,0,932.24,92c.33-1.56.66-3,1-4.32l3.45-15.27a103,103,0,0,1,6.65-19.71A54.75,54.75,0,0,1,953.93,37,45.77,45.77,0,0,1,969.21,26.8a53.64,53.64,0,0,1,20.69-3.69q16.76,0,29.07,6.9a64.74,64.74,0,0,1,20.69,18.23,78.67,78.67,0,0,1,12.45,25.86,109.42,109.42,0,0,1,4.06,29.57,156.78,156.78,0,0,1-4.59,36.66h0a161.67,161.67,0,0,1-12.44,34.73l-52.47-20.69,2.71-3.45a101,101,0,0,0,12.12-19.71,52.46,52.46,0,0,0,4.93-22.42,35.43,35.43,0,0,0-.5-5.54,18.3,18.3,0,0,0-1.84-5.67,14,14,0,0,0-3.45-4.31,9.13,9.13,0,0,0-10.3-.25,9.63,9.63,0,0,0-2.83,3.7,21.23,21.23,0,0,0-1.48,4.93c-.33,1.81-.67,3.45-1,4.92l-2.53,13.55A83.84,83.84,0,0,1,977,138.85a54,54,0,0,1-10,15.52,45,45,0,0,1-14.54,10.47,45.65,45.65,0,0,1-19.21,3.82q-16.5,0-29.32-6.9a67.25,67.25,0,0,1-21.56-18.26A82.47,82.47,0,0,1,869,117.75,97.75,97.75,0,0,1,864.5,88.1,111.6,111.6,0,0,1,880.76,29.22Zm-214,0L714.28,47.5a102.57,102.57,0,0,0-10,18.35,53.49,53.49,0,0,0-4.06,20.82,25.79,25.79,0,0,0,.49,4.8,16.21,16.21,0,0,0,1.6,4.68,11.26,11.26,0,0,0,3,3.58,7.45,7.45,0,0,0,4.8,1.47,6,6,0,0,0,4.19-1.35,10.68,10.68,0,0,0,2.46-3.45A19.72,19.72,0,0,0,718.24,92c.33-1.56.66-3,1-4.32l3.45-15.27a103,103,0,0,1,6.65-19.71A54.83,54.83,0,0,1,739.9,37a45.77,45.77,0,0,1,15.28-10.23,53.64,53.64,0,0,1,20.69-3.69q16.75,0,29.07,6.9a64.74,64.74,0,0,1,20.69,18.23,78.67,78.67,0,0,1,12.45,25.86,109.42,109.42,0,0,1,4.06,29.57,157.17,157.17,0,0,1-4.56,36.71h0a161.67,161.67,0,0,1-12.44,34.73l-52.47-20.69,2.71-3.45a101,101,0,0,0,12.12-19.71,52.46,52.46,0,0,0,4.93-22.42,35.43,35.43,0,0,0-.5-5.54,18.3,18.3,0,0,0-1.84-5.67,14,14,0,0,0-3.45-4.31,8.13,8.13,0,0,0-5.3-1.72,7.89,7.89,0,0,0-5,1.47,9.63,9.63,0,0,0-2.83,3.7,21.23,21.23,0,0,0-1.48,4.93c-.33,1.81-.66,3.45-1,4.92l-2.53,13.55A83.84,83.84,0,0,1,763,138.85a54,54,0,0,1-10,15.52,45,45,0,0,1-14.54,10.47,45.65,45.65,0,0,1-19.21,3.82q-16.5,0-29.32-6.9a67.25,67.25,0,0,1-21.56-18.26A82.47,82.47,0,0,1,655,117.75,97.75,97.75,0,0,1,650.5,88.1,111.6,111.6,0,0,1,666.76,29.22Zm-214,0L500.28,47.5a102.57,102.57,0,0,0-10,18.35,53.49,53.49,0,0,0-4.06,20.82,25.79,25.79,0,0,0,.49,4.8,16.21,16.21,0,0,0,1.6,4.68,11.26,11.26,0,0,0,3,3.58,7.45,7.45,0,0,0,4.8,1.47,6,6,0,0,0,4.19-1.35,10.68,10.68,0,0,0,2.46-3.45A19.72,19.72,0,0,0,504.24,92c.33-1.56.66-3,1-4.32l3.45-15.27a103,103,0,0,1,6.65-19.71A54.83,54.83,0,0,1,525.9,37a45.77,45.77,0,0,1,15.28-10.23,53.64,53.64,0,0,1,20.69-3.69q16.75,0,29.07,6.9a64.74,64.74,0,0,1,20.69,18.23,78.67,78.67,0,0,1,12.45,25.86,109.42,109.42,0,0,1,4.06,29.57,157.17,157.17,0,0,1-4.56,36.71h0a161.67,161.67,0,0,1-12.44,34.73l-52.47-20.69,2.71-3.45a101,101,0,0,0,12.12-19.71,52.46,52.46,0,0,0,4.93-22.42,35.43,35.43,0,0,0-.5-5.54,18.3,18.3,0,0,0-1.84-5.67,14,14,0,0,0-3.45-4.31,8.13,8.13,0,0,0-5.3-1.72,7.89,7.89,0,0,0-5,1.47,9.63,9.63,0,0,0-2.83,3.7,21.23,21.23,0,0,0-1.48,4.93c-.33,1.81-.66,3.45-1,4.92l-2.53,13.55A83.84,83.84,0,0,1,549,138.85a54,54,0,0,1-10,15.52,45,45,0,0,1-14.54,10.47,45.65,45.65,0,0,1-19.21,3.82q-16.5,0-29.32-6.9a67.25,67.25,0,0,1-21.56-18.26A82.47,82.47,0,0,1,441,117.75,97.75,97.75,0,0,1,436.5,88.1,111.6,111.6,0,0,1,452.76,29.22Zm-214,0L286.28,47.5a102.57,102.57,0,0,0-10,18.35,53.49,53.49,0,0,0-4.06,20.82,25.79,25.79,0,0,0,.49,4.8,16.21,16.21,0,0,0,1.6,4.68,11.26,11.26,0,0,0,3,3.58,7.45,7.45,0,0,0,4.8,1.47,6,6,0,0,0,4.19-1.35,10.68,10.68,0,0,0,2.46-3.45A19.72,19.72,0,0,0,290.24,92c.33-1.56.67-3,1-4.32l3.45-15.27a103,103,0,0,1,6.65-19.71A54.83,54.83,0,0,1,311.9,37a45.77,45.77,0,0,1,15.28-10.23,53.64,53.64,0,0,1,20.69-3.69q16.75,0,29.07,6.9a64.74,64.74,0,0,1,20.69,18.23,78.67,78.67,0,0,1,12.45,25.86,109.42,109.42,0,0,1,4.06,29.57,157.17,157.17,0,0,1-4.56,36.71,161.67,161.67,0,0,1-12.44,34.73l-52.47-20.69,2.71-3.45a101,101,0,0,0,12.12-19.71,52.46,52.46,0,0,0,4.93-22.42,35.43,35.43,0,0,0-.5-5.54,18.3,18.3,0,0,0-1.84-5.67,14,14,0,0,0-3.45-4.31,8.08,8.08,0,0,0-5.3-1.72,7.91,7.91,0,0,0-5,1.47,9.63,9.63,0,0,0-2.83,3.7,21.23,21.23,0,0,0-1.48,4.93c-.33,1.81-.66,3.45-1,4.92l-2.53,13.55A83.84,83.84,0,0,1,335,138.85a54,54,0,0,1-10,15.52,45,45,0,0,1-14.54,10.47,45.65,45.65,0,0,1-19.21,3.82q-16.5,0-29.32-6.9a67.25,67.25,0,0,1-21.56-18.26A82.47,82.47,0,0,1,227,117.75,97.75,97.75,0,0,1,222.5,88.1a111.6,111.6,0,0,1,16.26-58.88Zm-214,0L72.28,47.5a102.57,102.57,0,0,0-10,18.35,53.49,53.49,0,0,0-4.06,20.82,25.79,25.79,0,0,0,.49,4.8,16.21,16.21,0,0,0,1.6,4.68,11.26,11.26,0,0,0,3,3.58,7.45,7.45,0,0,0,4.8,1.47,6,6,0,0,0,4.19-1.35,10.68,10.68,0,0,0,2.46-3.45A19.72,19.72,0,0,0,76.24,92c.33-1.56.67-3,1-4.32l3.45-15.27a103,103,0,0,1,6.65-19.71A54.83,54.83,0,0,1,97.9,37a45.77,45.77,0,0,1,15.28-10.23,53.64,53.64,0,0,1,20.69-3.69q16.75,0,29.07,6.9a64.74,64.74,0,0,1,20.69,18.23,78.67,78.67,0,0,1,12.45,25.86,109.42,109.42,0,0,1,4.06,29.57,157.17,157.17,0,0,1-4.56,36.71,161.67,161.67,0,0,1-12.44,34.73l-52.47-20.69,2.71-3.45a101,101,0,0,0,12.12-19.71,52.46,52.46,0,0,0,4.93-22.42,35.43,35.43,0,0,0-.5-5.54,18.3,18.3,0,0,0-1.84-5.67,14,14,0,0,0-3.45-4.31,8.13,8.13,0,0,0-5.3-1.72,7.91,7.91,0,0,0-5,1.47,9.63,9.63,0,0,0-2.83,3.7,21.23,21.23,0,0,0-1.48,4.93c-.33,1.81-.67,3.45-1,4.92l-2.53,13.55A83.84,83.84,0,0,1,121,138.85a54,54,0,0,1-10,15.52,45,45,0,0,1-14.54,10.47,45.65,45.65,0,0,1-19.21,3.82q-16.5,0-29.32-6.9A67.25,67.25,0,0,1,26.33,143.5,82.47,82.47,0,0,1,13,117.75,97.75,97.75,0,0,1,8.5,88.1,111.6,111.6,0,0,1,24.76,29.22ZM11.43,897.63V812.14a102.91,102.91,0,0,1,4.19-30,66.81,66.81,0,0,1,12.68-23.9A58.31,58.31,0,0,1,49.62,742.5q12.81-5.65,30-5.66a71.94,71.94,0,0,1,25.62,4.31,55,55,0,0,1,19.34,12.19,52.89,52.89,0,0,1,12.32,19.34,71.74,71.74,0,0,1,4.31,25.5v34.49h55.92l.05,65ZM197.18,609.14l-59.61,29.57v1.23h59.61v66H11.43V624.42a124.18,124.18,0,0,1,3.45-29.81A68.9,68.9,0,0,1,26.09,570a54.91,54.91,0,0,1,20.08-16.75q12.31-6.15,29.81-6.16a69.58,69.58,0,0,1,18.23,2.09,37.56,37.56,0,0,1,13.3,6.53,39,39,0,0,1,9.61,11.21A90.47,90.47,0,0,1,124.26,583h1.48q2-2.71,4.43-5.67a29.58,29.58,0,0,1,6.66-5.66l60.35-40.41Zm0-101H11.43V383.23H62.18v56.91H79.92v-52H128.2v52h18.23V381.26h50.75ZM195.58,316a161.22,161.22,0,0,1-12.44,34.74L130.67,330l2.71-3.45a99.72,99.72,0,0,0,12.12-19.71,52.46,52.46,0,0,0,4.93-22.42,35.43,35.43,0,0,0-.5-5.54,18.16,18.16,0,0,0-1.84-5.66,14.32,14.32,0,0,0-3.45-4.32,8.13,8.13,0,0,0-5.3-1.72,7.84,7.84,0,0,0-5,1.48,9.68,9.68,0,0,0-2.83,3.69A21.72,21.72,0,0,0,130,277.3c-.33,1.81-.66,3.45-1,4.93l-2.53,13.55a83.65,83.65,0,0,1-5.56,18.72,54,54,0,0,1-10,15.52A45,45,0,0,1,96.42,340.5a45.65,45.65,0,0,1-19.21,3.82q-16.5,0-29.32-6.9a67,67,0,0,1-21.56-18.23A82.59,82.59,0,0,1,13,293.5,97.78,97.78,0,0,1,8.5,263.75a111.6,111.6,0,0,1,16.26-58.88L72.31,223.1a101.08,101.08,0,0,0-10,18.36,53.44,53.44,0,0,0-4.06,20.81,25.81,25.81,0,0,0,.49,4.81,16.83,16.83,0,0,0,1.6,4.68,11.46,11.46,0,0,0,3,3.57,7.46,7.46,0,0,0,4.8,1.48,6,6,0,0,0,4.19-1.31,10.68,10.68,0,0,0,2.46-3.45,19.72,19.72,0,0,0,1.48-4.43c.33-1.56.66-3,1-4.31L80.72,248a103,103,0,0,1,6.65-19.71A54.75,54.75,0,0,1,98,212.68a45.74,45.74,0,0,1,15.28-10.22,53.43,53.43,0,0,1,20.69-3.7q16.75,0,29.07,6.9a64.74,64.74,0,0,1,20.69,18.23,78.81,78.81,0,0,1,12.45,25.87,109,109,0,0,1,4.06,29.56A156.81,156.81,0,0,1,195.58,316Zm215.6,581.65H225.43V812.14a102.91,102.91,0,0,1,4.19-30,66.81,66.81,0,0,1,12.68-23.9,58.31,58.31,0,0,1,21.32-15.74q12.81-5.65,30.05-5.66a71.94,71.94,0,0,1,25.62,4.31,55,55,0,0,1,19.34,12.19A52.89,52.89,0,0,1,351,772.68a71.74,71.74,0,0,1,4.31,25.5v34.49h55.92Zm0-288.49-59.61,29.57v1.23h59.61v66H225.43V624.42a124.18,124.18,0,0,1,3.45-29.81A68.9,68.9,0,0,1,240.09,570a54.91,54.91,0,0,1,20.08-16.75q12.31-6.15,29.81-6.16a69.58,69.58,0,0,1,18.23,2.09,37.56,37.56,0,0,1,13.3,6.53,39,39,0,0,1,9.61,11.21A90.47,90.47,0,0,1,338.26,583h1.48q2-2.71,4.43-5.67a29.58,29.58,0,0,1,6.66-5.66l60.35-40.41Zm0-101H225.43V383.23h50.75v56.91h17.74v-52H342.2v52h18.23V381.26h50.75ZM409.58,316a161.22,161.22,0,0,1-12.44,34.74L344.67,330l2.71-3.45a99.72,99.72,0,0,0,12.12-19.71,52.46,52.46,0,0,0,4.93-22.42,35.43,35.43,0,0,0-.5-5.54,18.16,18.16,0,0,0-1.84-5.66,14.32,14.32,0,0,0-3.45-4.32,8.13,8.13,0,0,0-5.3-1.72,7.84,7.84,0,0,0-5,1.48,9.68,9.68,0,0,0-2.83,3.69A21.72,21.72,0,0,0,344,277.3c-.33,1.81-.66,3.45-1,4.93l-2.53,13.55a83.65,83.65,0,0,1-5.56,18.72,54,54,0,0,1-10,15.52,45,45,0,0,1-14.52,10.48,45.65,45.65,0,0,1-19.21,3.82q-16.5,0-29.32-6.9a67,67,0,0,1-21.56-18.23A82.59,82.59,0,0,1,227,293.5a97.81,97.81,0,0,1-4.53-29.7,111.6,111.6,0,0,1,16.26-58.88l47.55,18.23a101.08,101.08,0,0,0-10,18.36,53.44,53.44,0,0,0-4.06,20.81,25.81,25.81,0,0,0,.49,4.81,16.83,16.83,0,0,0,1.6,4.68,11.46,11.46,0,0,0,3,3.57,7.46,7.46,0,0,0,4.8,1.48,6,6,0,0,0,4.19-1.36,10.68,10.68,0,0,0,2.46-3.45,19.72,19.72,0,0,0,1.48-4.43c.33-1.56.66-3,1-4.31L294.72,248a103,103,0,0,1,6.65-19.71A54.75,54.75,0,0,1,312,212.68a45.74,45.74,0,0,1,15.28-10.22,53.43,53.43,0,0,1,20.69-3.7q16.76,0,29.07,6.9a64.74,64.74,0,0,1,20.69,18.23,78.81,78.81,0,0,1,12.45,25.87,109,109,0,0,1,4.06,29.56A156.81,156.81,0,0,1,409.58,316Zm29.85,581.65V812.14a102.91,102.91,0,0,1,4.19-30,66.81,66.81,0,0,1,12.68-23.9,58.31,58.31,0,0,1,21.32-15.74q12.81-5.65,30-5.66a71.94,71.94,0,0,1,25.62,4.31,55,55,0,0,1,19.34,12.19,52.89,52.89,0,0,1,12.32,19.34,71.74,71.74,0,0,1,4.31,25.5v34.49h55.92v65ZM625.18,639.94v66H439.43V624.42a124.18,124.18,0,0,1,3.45-29.81A68.9,68.9,0,0,1,454.09,570a54.91,54.91,0,0,1,20.08-16.75q12.31-6.15,29.81-6.16a69.58,69.58,0,0,1,18.23,2.09,37.56,37.56,0,0,1,13.3,6.53,39,39,0,0,1,9.61,11.21A90.47,90.47,0,0,1,552.26,583h1.48q2-2.71,4.43-5.67a29.58,29.58,0,0,1,6.66-5.66l60.35-40.41v77.85l-59.61,29.57v1.23ZM439.43,508.14V383.23h50.75v56.91h17.74v-52H556.2v52h18.23V381.26h50.75V508.14ZM623.58,316h0a161.22,161.22,0,0,1-12.44,34.74L558.67,330l2.71-3.45a99.72,99.72,0,0,0,12.12-19.71,52.46,52.46,0,0,0,4.93-22.42,35.43,35.43,0,0,0-.5-5.54,18.16,18.16,0,0,0-1.84-5.66,14.32,14.32,0,0,0-3.45-4.32,8.13,8.13,0,0,0-5.3-1.72,7.84,7.84,0,0,0-5,1.48,9.68,9.68,0,0,0-2.83,3.69A21.72,21.72,0,0,0,558,277.3c-.33,1.81-.66,3.45-1,4.93l-2.53,13.55a83.65,83.65,0,0,1-5.56,18.72,54,54,0,0,1-10,15.52,45,45,0,0,1-14.52,10.48,45.65,45.65,0,0,1-19.21,3.82q-16.5,0-29.32-6.9a67,67,0,0,1-21.56-18.23A82.59,82.59,0,0,1,441,293.5a97.81,97.81,0,0,1-4.53-29.7,111.6,111.6,0,0,1,16.26-58.88l47.55,18.23a101.08,101.08,0,0,0-10,18.36,53.44,53.44,0,0,0-4.06,20.81,25.81,25.81,0,0,0,.49,4.81,16.83,16.83,0,0,0,1.6,4.68,11.46,11.46,0,0,0,3,3.57,7.46,7.46,0,0,0,4.8,1.48,6,6,0,0,0,4.19-1.36,10.68,10.68,0,0,0,2.46-3.45,19.72,19.72,0,0,0,1.48-4.43c.33-1.56.66-3,1-4.31L508.72,248a103,103,0,0,1,6.65-19.71A54.75,54.75,0,0,1,526,212.68a45.74,45.74,0,0,1,15.28-10.22,53.43,53.43,0,0,1,20.69-3.7q16.76,0,29.07,6.9a64.74,64.74,0,0,1,20.69,18.23,78.81,78.81,0,0,1,12.45,25.87,109,109,0,0,1,4.06,29.56A156.81,156.81,0,0,1,623.58,316Zm29.85,581.65V812.14a102.91,102.91,0,0,1,4.19-30,66.81,66.81,0,0,1,12.68-23.9,58.31,58.31,0,0,1,21.32-15.74q12.81-5.65,30-5.66a71.94,71.94,0,0,1,25.62,4.31,55,55,0,0,1,19.34,12.19,52.89,52.89,0,0,1,12.32,19.34,71.74,71.74,0,0,1,4.31,25.5v34.49h55.92v65ZM839.18,639.94v66H653.43V624.42a124.18,124.18,0,0,1,3.45-29.81A68.9,68.9,0,0,1,668.09,570a54.91,54.91,0,0,1,20.08-16.75q12.32-6.15,29.81-6.16a69.58,69.58,0,0,1,18.23,2.09,37.56,37.56,0,0,1,13.3,6.53,39,39,0,0,1,9.61,11.21A90.47,90.47,0,0,1,766.26,583h1.48q2-2.71,4.43-5.67a29.58,29.58,0,0,1,6.66-5.66l60.35-40.41v77.85l-59.61,29.57v1.23ZM653.43,508.14V383.23h50.75v56.91h17.74v-52H770.2v52h18.23V381.26h50.75V508.14ZM837.58,316h0a161.22,161.22,0,0,1-12.44,34.74L772.67,330l2.71-3.45a99.72,99.72,0,0,0,12.12-19.71,52.46,52.46,0,0,0,4.93-22.42,35.43,35.43,0,0,0-.5-5.54,18.16,18.16,0,0,0-1.84-5.66,14.32,14.32,0,0,0-3.45-4.32,8.13,8.13,0,0,0-5.3-1.72,7.84,7.84,0,0,0-5,1.48,9.68,9.68,0,0,0-2.83,3.69A21.72,21.72,0,0,0,772,277.3c-.33,1.81-.66,3.45-1,4.93l-2.53,13.55a83.65,83.65,0,0,1-5.56,18.72,54,54,0,0,1-10,15.52,45,45,0,0,1-14.52,10.48,45.65,45.65,0,0,1-19.21,3.82q-16.5,0-29.32-6.9a67,67,0,0,1-21.56-18.23A82.59,82.59,0,0,1,655,293.5a97.81,97.81,0,0,1-4.53-29.7,111.6,111.6,0,0,1,16.26-58.88l47.55,18.23a101.08,101.08,0,0,0-10,18.36,53.44,53.44,0,0,0-4.06,20.81,25.81,25.81,0,0,0,.49,4.81,16.83,16.83,0,0,0,1.6,4.68,11.46,11.46,0,0,0,3,3.57,7.46,7.46,0,0,0,4.8,1.48,6,6,0,0,0,4.19-1.36,10.68,10.68,0,0,0,2.46-3.45,19.72,19.72,0,0,0,1.48-4.43c.33-1.56.66-3,1-4.31L722.72,248a103,103,0,0,1,6.65-19.71A54.75,54.75,0,0,1,740,212.68a45.74,45.74,0,0,1,15.28-10.22,53.43,53.43,0,0,1,20.69-3.7q16.76,0,29.07,6.9a64.74,64.74,0,0,1,20.69,18.23,78.81,78.81,0,0,1,12.45,25.87,109,109,0,0,1,4.06,29.56A156.81,156.81,0,0,1,837.58,316Zm215.6,581.65H867.43V812.14a102.91,102.91,0,0,1,4.19-30,66.81,66.81,0,0,1,12.68-23.9,58.31,58.31,0,0,1,21.32-15.74q12.81-5.65,30-5.66a71.94,71.94,0,0,1,25.62,4.31,55,55,0,0,1,19.34,12.19,52.89,52.89,0,0,1,12.32,19.34,71.74,71.74,0,0,1,4.31,25.5v34.49h55.92Zm0-288.49-59.61,29.57v1.23h59.61v66H867.43V624.42a124.18,124.18,0,0,1,3.45-29.81A68.9,68.9,0,0,1,882.09,570a54.91,54.91,0,0,1,20.08-16.75q12.32-6.15,29.81-6.16a69.58,69.58,0,0,1,18.23,2.09,37.56,37.56,0,0,1,13.3,6.53,39,39,0,0,1,9.61,11.21A90.47,90.47,0,0,1,980.26,583h1.48q2-2.71,4.43-5.67a29.58,29.58,0,0,1,6.66-5.66l60.35-40.41Zm-117.26-169v-52H984.2v52h18.23V381.26h50.75V508.14H867.43V383.23h50.75v56.91ZM1051.58,316h0a161.22,161.22,0,0,1-12.44,34.74L986.67,330l2.71-3.45a99.72,99.72,0,0,0,12.12-19.71,52.46,52.46,0,0,0,4.93-22.42,35.43,35.43,0,0,0-.5-5.54,18.16,18.16,0,0,0-1.84-5.66,14.32,14.32,0,0,0-3.45-4.32,8.13,8.13,0,0,0-5.3-1.72,7.84,7.84,0,0,0-5,1.48,9.68,9.68,0,0,0-2.83,3.69A21.72,21.72,0,0,0,986,277.3c-.33,1.81-.66,3.45-1,4.93l-2.53,13.55A83.76,83.76,0,0,1,977,314.5,54,54,0,0,1,967,330a44.8,44.8,0,0,1-14.54,10.48,45.65,45.65,0,0,1-19.21,3.82q-16.5,0-29.32-6.9a67,67,0,0,1-21.56-18.23A82.59,82.59,0,0,1,869,293.5a97.81,97.81,0,0,1-4.53-29.7,111.6,111.6,0,0,1,16.26-58.88l47.55,18.23a101.08,101.08,0,0,0-10,18.36,53.44,53.44,0,0,0-4.06,20.81,25.81,25.81,0,0,0,.49,4.81,16.83,16.83,0,0,0,1.6,4.68,11.46,11.46,0,0,0,3,3.57,7.46,7.46,0,0,0,4.8,1.48,6,6,0,0,0,4.19-1.36,10.68,10.68,0,0,0,2.46-3.45,19.72,19.72,0,0,0,1.48-4.43c.33-1.56.66-3,1-4.31L936.72,248a103,103,0,0,1,6.65-19.71A54.75,54.75,0,0,1,954,212.68a45.74,45.74,0,0,1,15.28-10.22,53.43,53.43,0,0,1,20.69-3.7q16.76,0,29.07,6.9a64.74,64.74,0,0,1,20.69,18.23,78.81,78.81,0,0,1,12.45,25.87,109.4,109.4,0,0,1,4.06,29.56,156.81,156.81,0,0,1-4.62,36.66Zm215.6,581.65H1081.43V812.14a102.91,102.91,0,0,1,4.19-30,66.81,66.81,0,0,1,12.68-23.9,58.31,58.31,0,0,1,21.32-15.74q12.81-5.65,30.05-5.66a71.94,71.94,0,0,1,25.62,4.31,55,55,0,0,1,19.34,12.19A52.89,52.89,0,0,1,1207,772.68a71.74,71.74,0,0,1,4.31,25.5v34.49h55.92Zm0-288.49-59.61,29.57v1.23h59.61v66H1081.43V624.42a124.18,124.18,0,0,1,3.45-29.81A68.9,68.9,0,0,1,1096.09,570a54.75,54.75,0,0,1,20.08-16.75q12.32-6.15,29.81-6.16a69.58,69.58,0,0,1,18.23,2.09,37.56,37.56,0,0,1,13.3,6.53,39,39,0,0,1,9.61,11.21,90.47,90.47,0,0,1,7.14,16.14h1.48q2-2.71,4.43-5.67a29.58,29.58,0,0,1,6.66-5.66l60.35-40.41Zm0-101H1081.43V383.23h50.75v56.91h17.74v-52h48.28v52h18.23V381.26h50.75ZM1265.58,316h0a161.22,161.22,0,0,1-12.44,34.74L1200.67,330l2.71-3.45a99.72,99.72,0,0,0,12.12-19.71,52.46,52.46,0,0,0,4.93-22.42,35.43,35.43,0,0,0-.5-5.54,18.16,18.16,0,0,0-1.84-5.66,14.32,14.32,0,0,0-3.45-4.32,8.13,8.13,0,0,0-5.3-1.72,7.84,7.84,0,0,0-5,1.48,9.68,9.68,0,0,0-2.83,3.69,21.72,21.72,0,0,0-1.48,4.93c-.33,1.81-.66,3.45-1,4.93l-2.53,13.55A83.76,83.76,0,0,1,1191,314.5,54,54,0,0,1,1181,330a44.8,44.8,0,0,1-14.54,10.48,45.65,45.65,0,0,1-19.21,3.82q-16.5,0-29.32-6.9a67,67,0,0,1-21.56-18.23,82.63,82.63,0,0,1-13.3-25.74,97.73,97.73,0,0,1-4.56-29.69,111.6,111.6,0,0,1,16.26-58.88l47.55,18.23a101.08,101.08,0,0,0-10,18.36,53.44,53.44,0,0,0-4.06,20.81,25.81,25.81,0,0,0,.49,4.81,16.83,16.83,0,0,0,1.6,4.68,11.46,11.46,0,0,0,3,3.57,7.46,7.46,0,0,0,4.8,1.48,6,6,0,0,0,4.19-1.36,10.68,10.68,0,0,0,2.46-3.45,19.72,19.72,0,0,0,1.48-4.43c.33-1.56.66-3,1-4.31l3.45-15.28a103,103,0,0,1,6.65-19.71,54.75,54.75,0,0,1,10.59-15.64,45.74,45.74,0,0,1,15.28-10.22,53.43,53.43,0,0,1,20.69-3.7q16.75,0,29.07,6.9a64.85,64.85,0,0,1,20.69,18.23,78.81,78.81,0,0,1,12.45,25.87,109.4,109.4,0,0,1,4.06,29.56,157.12,157.12,0,0,1-4.59,36.7Zm0-175.65h0a161.67,161.67,0,0,1-12.44,34.73l-52.47-20.69,2.71-3.45a101,101,0,0,0,12.12-19.71,52.46,52.46,0,0,0,4.93-22.42,35.43,35.43,0,0,0-.5-5.54,18.3,18.3,0,0,0-1.84-5.67,14,14,0,0,0-3.45-4.31,9.13,9.13,0,0,0-10.3-.25,9.63,9.63,0,0,0-2.83,3.7,21.23,21.23,0,0,0-1.48,4.93c-.33,1.81-.67,3.45-1,4.92l-2.53,13.55a83.84,83.84,0,0,1-5.54,18.73,54,54,0,0,1-10,15.52,45,45,0,0,1-14.54,10.47,45.65,45.65,0,0,1-19.21,3.82q-16.5,0-29.32-6.9a67.25,67.25,0,0,1-21.56-18.26,82.47,82.47,0,0,1-13.3-25.75,97.75,97.75,0,0,1-4.53-29.65,111.6,111.6,0,0,1,16.26-58.88l47.52,18.28a102.57,102.57,0,0,0-10,18.35,53.49,53.49,0,0,0-4.06,20.82,25.79,25.79,0,0,0,.49,4.8,16.21,16.21,0,0,0,1.6,4.68,11.26,11.26,0,0,0,3,3.58,7.45,7.45,0,0,0,4.8,1.47,6,6,0,0,0,4.19-1.35,10.68,10.68,0,0,0,2.46-3.45,19.72,19.72,0,0,0,1.48-4.43c.33-1.56.66-3,1-4.32l3.45-15.27a103,103,0,0,1,6.65-19.71A54.75,54.75,0,0,1,1167.93,37a45.77,45.77,0,0,1,15.28-10.23,53.64,53.64,0,0,1,20.69-3.69q16.75,0,29.07,6.9a64.74,64.74,0,0,1,20.69,18.23,78.67,78.67,0,0,1,12.45,25.86,109.42,109.42,0,0,1,4.06,29.57,156.78,156.78,0,0,1-4.59,36.66Zm215.6,757.3H1295.43V812.14a102.91,102.91,0,0,1,4.19-30,66.81,66.81,0,0,1,12.68-23.9,58.31,58.31,0,0,1,21.32-15.74q12.81-5.65,30.05-5.66a71.94,71.94,0,0,1,25.62,4.31,55,55,0,0,1,19.34,12.19A52.89,52.89,0,0,1,1421,772.68a71.74,71.74,0,0,1,4.31,25.5v34.49h55.92Zm0-288.49-59.61,29.57v1.23h59.61v66H1295.43V624.42a124.18,124.18,0,0,1,3.45-29.81A68.9,68.9,0,0,1,1310.09,570a54.75,54.75,0,0,1,20.08-16.75q12.32-6.15,29.81-6.16a69.58,69.58,0,0,1,18.23,2.09,37.56,37.56,0,0,1,13.3,6.53,39,39,0,0,1,9.61,11.21,90.47,90.47,0,0,1,7.14,16.14h1.48q2-2.71,4.43-5.67a29.58,29.58,0,0,1,6.66-5.66l60.35-40.41Zm0-101H1295.43V383.23h50.75v56.91h17.74v-52h48.28v52h18.23V381.26h50.75ZM1479.58,316h0a161.22,161.22,0,0,1-12.44,34.74L1414.67,330l2.71-3.45a99.72,99.72,0,0,0,12.12-19.71,52.46,52.46,0,0,0,4.93-22.42,35.43,35.43,0,0,0-.5-5.54,18.16,18.16,0,0,0-1.84-5.66,14.32,14.32,0,0,0-3.45-4.32,8.13,8.13,0,0,0-5.3-1.72,7.84,7.84,0,0,0-5,1.48,9.68,9.68,0,0,0-2.83,3.69,21.72,21.72,0,0,0-1.48,4.93c-.33,1.81-.66,3.45-1,4.93l-2.53,13.55A83.76,83.76,0,0,1,1405,314.5,54,54,0,0,1,1395,330a44.8,44.8,0,0,1-14.54,10.48,45.65,45.65,0,0,1-19.21,3.82q-16.5,0-29.32-6.9a67,67,0,0,1-21.56-18.23,82.63,82.63,0,0,1-13.3-25.74,97.73,97.73,0,0,1-4.56-29.69,111.6,111.6,0,0,1,16.26-58.88l47.55,18.23a101.08,101.08,0,0,0-10,18.36,53.44,53.44,0,0,0-4.06,20.81,25.81,25.81,0,0,0,.49,4.81,16.83,16.83,0,0,0,1.6,4.68,11.46,11.46,0,0,0,3,3.57,7.46,7.46,0,0,0,4.8,1.48,6,6,0,0,0,4.19-1.36,10.68,10.68,0,0,0,2.46-3.45,19.72,19.72,0,0,0,1.48-4.43c.33-1.56.66-3,1-4.31l3.45-15.28a103,103,0,0,1,6.65-19.71,54.75,54.75,0,0,1,10.59-15.64,45.74,45.74,0,0,1,15.28-10.22,53.43,53.43,0,0,1,20.69-3.7q16.75,0,29.07,6.9a64.85,64.85,0,0,1,20.69,18.23,78.81,78.81,0,0,1,12.45,25.87,109.4,109.4,0,0,1,4.06,29.56,157.12,157.12,0,0,1-4.59,36.7Zm0-175.65h0a161.67,161.67,0,0,1-12.44,34.73l-52.47-20.69,2.71-3.45a101,101,0,0,0,12.12-19.71,52.46,52.46,0,0,0,4.93-22.42,35.43,35.43,0,0,0-.5-5.54,18.3,18.3,0,0,0-1.84-5.67,14,14,0,0,0-3.45-4.31,9.13,9.13,0,0,0-10.3-.25,9.63,9.63,0,0,0-2.83,3.7,21.23,21.23,0,0,0-1.48,4.93c-.33,1.81-.67,3.45-1,4.92l-2.53,13.55a83.84,83.84,0,0,1-5.54,18.73,54,54,0,0,1-10,15.52,45,45,0,0,1-14.54,10.47,45.65,45.65,0,0,1-19.21,3.82q-16.5,0-29.32-6.9a67.25,67.25,0,0,1-21.56-18.26,82.47,82.47,0,0,1-13.3-25.75,97.75,97.75,0,0,1-4.53-29.65,111.6,111.6,0,0,1,16.26-58.88l47.52,18.28a102.57,102.57,0,0,0-10,18.35,53.49,53.49,0,0,0-4.06,20.82,25.79,25.79,0,0,0,.49,4.8,16.21,16.21,0,0,0,1.6,4.68,11.26,11.26,0,0,0,3,3.58,7.45,7.45,0,0,0,4.8,1.47,6,6,0,0,0,4.19-1.35,10.68,10.68,0,0,0,2.46-3.45,19.72,19.72,0,0,0,1.48-4.43c.33-1.56.66-3,1-4.32l3.45-15.27a103,103,0,0,1,6.65-19.71A54.75,54.75,0,0,1,1381.93,37a45.77,45.77,0,0,1,15.28-10.23,53.64,53.64,0,0,1,20.69-3.69q16.75,0,29.07,6.9a64.74,64.74,0,0,1,20.69,18.23,78.67,78.67,0,0,1,12.45,25.86,109.42,109.42,0,0,1,4.06,29.57,156.78,156.78,0,0,1-4.59,36.66Z"/></g></g></g></svg>