<?xml version="1.0" encoding="utf-8"?>
<!-- Generator: Adobe Illustrator 22.0.1, SVG Export Plug-In . SVG Version: 6.00 Build 0)  -->
<svg version="1.1" id="Layer_1" xmlns="http://www.w3.org/2000/svg" xmlns:xlink="http://www.w3.org/1999/xlink" x="0px" y="0px"
	 viewBox="0 0 1491.7 917" style="enable-background:new 0 0 1491.7 917;" xml:space="preserve">
<style type="text/css">
	.st0{fill:#FFFFFF;}
	.sttrans{fill:transparent;}
</style>
<g id="Layer_1-2">
	<g id="XMLID_1_">
		<g>
			<rect x="2.5" y="0.5" class="sttrans" width="1490.7" height="916"/>
		</g>
		<g>
		</g>
	</g>
	<g id="Layer_1-2-2">
		<rect x="2.5" y="0.5" class="sttrans" width="1490.7" height="916"/>
		<path class="st0" d="M2.5,0.5v916 M882.8,29.2l47.5,18.3c-3.9,5.8-7.3,11.9-10,18.3c-2.7,6.6-4.1,13.7-4.1,20.8
			c0,1.6,0.2,3.2,0.5,4.8c0.3,1.6,0.8,3.2,1.6,4.7c0.7,1.4,1.8,2.6,3,3.6c1.4,1,3.1,1.6,4.8,1.5c1.5,0.1,3-0.4,4.2-1.3
			c1-1,1.9-2.1,2.5-3.4c0.7-1.4,1.2-2.9,1.5-4.4c0.3-1.6,0.7-3,1-4.3l3.5-15.3c1.5-6.8,3.8-13.4,6.7-19.7
			c2.6-5.8,6.2-11.1,10.6-15.7c4.4-4.4,9.5-7.9,15.3-10.2c6.6-2.6,13.6-3.8,20.7-3.7c11.2,0,20.9,2.3,29.1,6.9
			c8.1,4.5,15.2,10.7,20.7,18.2c5.7,7.8,9.9,16.5,12.4,25.9c2.7,9.6,4.1,19.6,4.1,29.6c-0.1,12.4-1.6,24.7-4.6,36.7l0,0
			c-2.8,12-7,23.7-12.4,34.7l-52.5-20.7l2.7-3.4c4.8-6.1,8.8-12.7,12.1-19.7c3.3-7,5-14.7,4.9-22.4c0-1.9-0.2-3.7-0.5-5.5
			c-0.3-2-0.9-3.9-1.8-5.7c-0.9-1.7-2-3.1-3.5-4.3c-3.1-2.2-7.1-2.3-10.3-0.2c-1.2,1-2.2,2.3-2.8,3.7c-0.7,1.6-1.2,3.2-1.5,4.9
			c-0.3,1.8-0.7,3.4-1,4.9l-2.5,13.6c-1.1,6.4-2.9,12.7-5.5,18.7c-2.4,5.7-5.8,11-10,15.5c-4.1,4.4-9,8-14.5,10.5
			c-6.1,2.6-12.6,4-19.2,3.8c-11,0-20.8-2.3-29.3-6.9c-8.4-4.5-15.7-10.7-21.6-18.3c-5.9-7.7-10.5-16.4-13.4-25.8
			c-3-9.6-4.5-19.6-4.5-29.7C866.3,67.3,872,47,882.8,29.2z M668.8,29.2l47.5,18.3c-3.9,5.8-7.3,11.9-10,18.3
			c-2.7,6.6-4.1,13.7-4.1,20.8c0,1.6,0.2,3.2,0.5,4.8c0.3,1.6,0.8,3.2,1.6,4.7c0.7,1.4,1.8,2.6,3,3.6c1.4,1,3.1,1.6,4.8,1.5
			c1.5,0.1,3-0.4,4.2-1.3c1-1,1.9-2.1,2.5-3.4c0.7-1.4,1.2-2.9,1.5-4.4c0.3-1.6,0.7-3,1-4.3l3.5-15.3c1.5-6.8,3.8-13.4,6.7-19.7
			c2.6-5.8,6.2-11.1,10.6-15.7c4.3-4.4,9.5-7.9,15.3-10.2c6.6-2.6,13.6-3.8,20.7-3.7c11.2,0,20.9,2.3,29.1,6.9
			c8.1,4.5,15.2,10.7,20.7,18.2c5.7,7.8,9.9,16.5,12.5,25.9c2.7,9.6,4.1,19.6,4.1,29.6c-0.1,12.4-1.6,24.7-4.6,36.7l0,0
			c-2.8,12-7,23.7-12.4,34.7l-52.5-20.7l2.7-3.4c4.8-6.1,8.8-12.7,12.1-19.7c3.3-7,5-14.7,4.9-22.4c0-1.9-0.2-3.7-0.5-5.5
			c-0.3-2-0.9-3.9-1.8-5.7c-0.9-1.7-2-3.1-3.5-4.3c-1.5-1.2-3.4-1.8-5.3-1.7c-1.8-0.1-3.5,0.4-5,1.5c-1.2,1-2.2,2.3-2.8,3.7
			c-0.7,1.6-1.2,3.2-1.5,4.9c-0.3,1.8-0.7,3.4-1,4.9l-2.5,13.6c-1.1,6.4-2.9,12.7-5.5,18.7c-2.4,5.7-5.8,11-10,15.5
			c-4.1,4.4-9,8-14.5,10.5c-6.1,2.6-12.6,4-19.2,3.8c-11,0-20.8-2.3-29.3-6.9c-8.4-4.5-15.7-10.7-21.6-18.3
			c-5.9-7.7-10.5-16.4-13.4-25.8c-3-9.6-4.5-19.6-4.5-29.7C652.3,67.3,658,47,668.8,29.2z M454.8,29.2l47.5,18.3
			c-3.9,5.8-7.3,11.9-10,18.3c-2.7,6.6-4.1,13.7-4.1,20.8c0,1.6,0.2,3.2,0.5,4.8c0.3,1.6,0.8,3.2,1.6,4.7c0.7,1.4,1.8,2.6,3,3.6
			c1.4,1,3.1,1.6,4.8,1.5c1.5,0.1,3-0.4,4.2-1.3c1-1,1.9-2.1,2.5-3.4c0.7-1.4,1.2-2.9,1.5-4.4c0.3-1.6,0.7-3,1-4.3l3.5-15.3
			c1.5-6.8,3.8-13.4,6.7-19.7c2.6-5.8,6.2-11.1,10.6-15.7c4.3-4.4,9.5-7.9,15.3-10.2c6.6-2.6,13.6-3.8,20.7-3.7
			c11.2,0,20.9,2.3,29.1,6.9c8.1,4.5,15.2,10.7,20.7,18.2c5.7,7.8,9.9,16.5,12.5,25.9c2.7,9.6,4.1,19.6,4.1,29.6
			c-0.1,12.4-1.6,24.7-4.6,36.7l0,0c-2.8,12-7,23.7-12.4,34.7l-52.5-20.7l2.7-3.4c4.8-6.1,8.8-12.7,12.1-19.7c3.3-7,5-14.7,4.9-22.4
			c0-1.9-0.2-3.7-0.5-5.5c-0.3-2-0.9-3.9-1.8-5.7c-0.9-1.7-2-3.1-3.5-4.3c-1.5-1.2-3.4-1.8-5.3-1.7c-1.8-0.1-3.5,0.4-5,1.5
			c-1.2,1-2.2,2.3-2.8,3.7c-0.7,1.6-1.2,3.2-1.5,4.9c-0.3,1.8-0.7,3.4-1,4.9l-2.5,13.6c-1.1,6.4-2.9,12.7-5.5,18.7
			c-2.4,5.7-5.8,11-10,15.5c-4.1,4.4-9,8-14.5,10.5c-6.1,2.6-12.6,4-19.2,3.8c-11,0-20.8-2.3-29.3-6.9c-8.4-4.5-15.7-10.7-21.6-18.3
			c-5.9-7.7-10.5-16.4-13.4-25.8c-3-9.6-4.5-19.6-4.5-29.7C438.3,67.3,444,47,454.8,29.2z M240.8,29.2l47.5,18.3
			c-3.9,5.8-7.3,11.9-10,18.3c-2.7,6.6-4.1,13.7-4.1,20.8c0,1.6,0.2,3.2,0.5,4.8c0.3,1.6,0.8,3.2,1.6,4.7c0.7,1.4,1.8,2.6,3,3.6
			c1.4,1,3.1,1.6,4.8,1.5c1.5,0.1,3-0.4,4.2-1.3c1-1,1.9-2.1,2.5-3.4c0.7-1.4,1.2-2.9,1.5-4.4c0.3-1.6,0.7-3,1-4.3l3.5-15.3
			c1.5-6.8,3.8-13.4,6.6-19.7c2.6-5.8,6.2-11.1,10.6-15.7c4.3-4.4,9.5-7.9,15.3-10.2c6.6-2.6,13.6-3.8,20.7-3.7
			c11.2,0,20.9,2.3,29.1,6.9c8.1,4.5,15.2,10.7,20.7,18.2c5.7,7.8,9.9,16.5,12.5,25.9c2.7,9.6,4.1,19.6,4.1,29.6
			c-0.1,12.4-1.6,24.7-4.6,36.7c-2.8,12-7,23.7-12.4,34.7l-52.5-20.7l2.7-3.4c4.8-6.1,8.8-12.7,12.1-19.7c3.3-7,5-14.7,4.9-22.4
			c0-1.9-0.2-3.7-0.5-5.5c-0.3-2-0.9-3.9-1.8-5.7c-0.9-1.7-2-3.1-3.5-4.3c-1.5-1.2-3.4-1.8-5.3-1.7c-1.8-0.1-3.5,0.4-5,1.5
			c-1.2,1-2.2,2.3-2.8,3.7c-0.7,1.6-1.2,3.2-1.5,4.9c-0.3,1.8-0.7,3.4-1,4.9l-2.5,13.6c-1.1,6.4-2.9,12.7-5.5,18.7
			c-2.4,5.7-5.8,11-10,15.5c-4.1,4.4-9,8-14.5,10.5c-6.1,2.6-12.6,4-19.2,3.8c-11,0-20.8-2.3-29.3-6.9c-8.4-4.5-15.7-10.7-21.6-18.3
			c-5.9-7.7-10.5-16.4-13.4-25.8c-3-9.6-4.5-19.6-4.5-29.7C224.3,67.3,230,47,240.8,29.2L240.8,29.2z M26.8,29.2l47.5,18.3
			c-3.9,5.8-7.3,11.9-10,18.3c-2.7,6.6-4.1,13.7-4.1,20.8c0,1.6,0.2,3.2,0.5,4.8c0.3,1.6,0.8,3.2,1.6,4.7c0.7,1.4,1.8,2.6,3,3.6
			c1.4,1,3.1,1.6,4.8,1.5c1.5,0.1,3-0.4,4.2-1.3c1-1,1.9-2.1,2.5-3.4c0.7-1.4,1.2-2.9,1.5-4.4c0.3-1.6,0.7-3,1-4.3l3.4-15.3
			c1.5-6.8,3.8-13.4,6.7-19.7c2.6-5.8,6.2-11.1,10.6-15.7c4.3-4.4,9.5-7.9,15.3-10.2c6.6-2.6,13.6-3.8,20.7-3.7
			c11.2,0,20.9,2.3,29.1,6.9c8.1,4.5,15.2,10.7,20.7,18.2c5.7,7.8,9.9,16.5,12.4,25.9c2.7,9.6,4.1,19.6,4.1,29.6
			c-0.1,12.4-1.6,24.7-4.6,36.7c-2.8,12-7,23.7-12.4,34.7l-52.5-20.7l2.7-3.4c4.8-6.1,8.8-12.7,12.1-19.7c3.3-7,5-14.7,4.9-22.4
			c0-1.9-0.2-3.7-0.5-5.5c-0.3-2-0.9-3.9-1.8-5.7c-0.9-1.7-2-3.1-3.4-4.3c-1.5-1.2-3.4-1.8-5.3-1.7c-1.8-0.1-3.5,0.4-5,1.5
			c-1.2,1-2.2,2.3-2.8,3.7c-0.7,1.6-1.2,3.2-1.5,4.9c-0.3,1.8-0.7,3.4-1,4.9l-2.5,13.6c-1.1,6.4-2.9,12.7-5.5,18.7
			c-2.4,5.7-5.8,11-10,15.5c-4.1,4.4-9,8-14.5,10.5c-6.1,2.6-12.6,4-19.2,3.8c-11,0-20.8-2.3-29.3-6.9c-8.4-4.5-15.8-10.7-21.6-18.3
			c-5.9-7.7-10.4-16.4-13.3-25.8c-3-9.6-4.5-19.6-4.5-29.7C10.3,67.3,16,47,26.8,29.2z M13.4,897.6v-85.5c-0.1-10.2,1.3-20.3,4.2-30
			c2.6-8.7,6.9-16.9,12.7-23.9c5.8-6.8,13.1-12.2,21.3-15.7c8.5-3.8,18.5-5.7,30-5.7c8.7-0.1,17.4,1.3,25.6,4.3
			c7.2,2.7,13.8,6.8,19.3,12.2c5.5,5.5,9.7,12.1,12.3,19.3c3,8.2,4.4,16.8,4.3,25.5v34.5h55.9l0.1,65L13.4,897.6z M199.2,609.1
			l-59.6,29.6v1.2h59.6v66H13.4v-81.5c-0.1-10,1.1-20,3.5-29.8c2.1-8.9,5.9-17.2,11.2-24.6c5.2-7.1,12.1-12.9,20.1-16.8
			c8.2-4.1,18.1-6.2,29.8-6.2c6.1-0.1,12.3,0.6,18.2,2.1c4.8,1.3,9.3,3.5,13.3,6.5c3.9,3.1,7.1,6.9,9.6,11.2
			c2.9,5.1,5.3,10.5,7.1,16.1h1.5c1.3-1.8,2.8-3.7,4.4-5.7c1.9-2.2,4.2-4.1,6.7-5.7l60.3-40.4V609.1z M199.2,508.1H13.4V383.2h50.8
			v56.9h17.7v-52h48.3v52h18.2v-58.9h50.8V508.1z M197.6,316c-2.8,12-7,23.7-12.4,34.7L132.7,330l2.7-3.5
			c4.8-6.1,8.9-12.7,12.1-19.7c3.3-7,5-14.7,4.9-22.4c0-1.9-0.2-3.7-0.5-5.5c-0.3-2-0.9-3.9-1.8-5.7c-0.9-1.7-2-3.1-3.4-4.3
			c-1.5-1.2-3.4-1.8-5.3-1.7c-1.8-0.1-3.6,0.4-5,1.5c-1.2,1-2.2,2.2-2.8,3.7c-0.7,1.6-1.2,3.2-1.5,5c-0.3,1.8-0.7,3.5-1,4.9
			l-2.5,13.5c-1.1,6.4-3,12.7-5.6,18.7c-2.4,5.7-5.8,11-10,15.5c-4.1,4.4-9,8-14.5,10.5c-6.1,2.6-12.6,4-19.2,3.8
			c-11,0-20.8-2.3-29.3-6.9c-8.4-4.5-15.7-10.7-21.6-18.2c-5.9-7.7-10.4-16.4-13.3-25.7c-3-9.6-4.5-19.7-4.5-29.8
			c-0.2-20.8,5.5-41.1,16.3-58.9l47.5,18.2c-4,5.8-7.3,11.9-10,18.4c-2.7,6.6-4.1,13.7-4.1,20.8c0,1.6,0.2,3.2,0.5,4.8
			c0.3,1.6,0.8,3.2,1.6,4.7c0.7,1.4,1.8,2.6,3,3.6c1.4,1,3.1,1.6,4.8,1.5c1.5,0.1,3-0.4,4.2-1.3c1-1,1.9-2.1,2.5-3.5
			c0.7-1.4,1.2-2.9,1.5-4.4c0.3-1.6,0.7-3,1-4.3l3.4-15.3c1.5-6.8,3.8-13.4,6.7-19.7c2.6-5.8,6.2-11.1,10.6-15.6
			c4.3-4.4,9.5-7.9,15.3-10.2c6.6-2.6,13.6-3.8,20.7-3.7c11.2,0,20.9,2.3,29.1,6.9c8.1,4.5,15.2,10.7,20.7,18.2
			c5.7,7.8,9.9,16.6,12.4,25.9c2.7,9.6,4.1,19.6,4.1,29.6C202.1,291.7,200.6,304,197.6,316z M413.2,897.7H227.4v-85.5
			c-0.1-10.2,1.3-20.3,4.2-30c2.6-8.7,6.9-16.9,12.7-23.9c5.8-6.8,13.1-12.2,21.3-15.7c8.5-3.8,18.6-5.7,30-5.7
			c8.7-0.1,17.4,1.3,25.6,4.3c7.2,2.7,13.8,6.8,19.3,12.2c5.5,5.5,9.7,12.1,12.4,19.3c3,8.2,4.4,16.8,4.3,25.5v34.5h55.9
			L413.2,897.7z M413.2,609.2l-59.6,29.6v1.2h59.6v66H227.4v-81.5c-0.1-10,1.1-20,3.4-29.8c2.1-8.9,5.9-17.2,11.2-24.6
			c5.2-7.1,12.1-12.9,20.1-16.8c8.2-4.1,18.1-6.2,29.8-6.2c6.1-0.1,12.3,0.6,18.2,2.1c4.8,1.3,9.3,3.5,13.3,6.5
			c3.9,3.1,7.1,6.9,9.6,11.2c2.9,5.1,5.3,10.5,7.1,16.1h1.5c1.3-1.8,2.8-3.7,4.4-5.7c1.9-2.2,4.2-4.1,6.7-5.7l60.4-40.4L413.2,609.2
			z M413.2,508.2H227.4V383.2h50.8v56.9h17.7v-52h48.3v52h18.2v-58.9h50.8L413.2,508.2z M411.6,316c-2.8,12-7,23.7-12.4,34.7
			L346.7,330l2.7-3.5c4.8-6.1,8.9-12.7,12.1-19.7c3.3-7,5-14.7,4.9-22.4c0-1.9-0.2-3.7-0.5-5.5c-0.3-2-0.9-3.9-1.8-5.7
			c-0.9-1.7-2-3.1-3.5-4.3c-1.5-1.2-3.4-1.8-5.3-1.7c-1.8-0.1-3.6,0.4-5,1.5c-1.2,1-2.2,2.2-2.8,3.7c-0.7,1.6-1.2,3.2-1.5,5
			c-0.3,1.8-0.7,3.5-1,4.9l-2.5,13.5c-1.1,6.4-3,12.7-5.6,18.7c-2.4,5.7-5.8,11-10,15.5c-4.1,4.4-9,8-14.5,10.5
			c-6.1,2.6-12.6,4-19.2,3.8c-11,0-20.8-2.3-29.3-6.9c-8.4-4.5-15.7-10.7-21.6-18.2c-5.9-7.7-10.4-16.4-13.3-25.7
			c-3-9.6-4.6-19.6-4.5-29.7c-0.2-20.8,5.5-41.1,16.3-58.9l47.6,18.2c-4,5.8-7.3,11.9-10,18.4c-2.7,6.6-4.1,13.7-4.1,20.8
			c0,1.6,0.2,3.2,0.5,4.8c0.3,1.6,0.8,3.2,1.6,4.7c0.7,1.4,1.8,2.6,3,3.6c1.4,1,3.1,1.6,4.8,1.5c1.5,0.1,3-0.4,4.2-1.4
			c1-1,1.9-2.1,2.5-3.5c0.7-1.4,1.2-2.9,1.5-4.4c0.3-1.6,0.7-3,1-4.3l3.5-15.3c1.5-6.8,3.8-13.4,6.6-19.7
			c2.6-5.8,6.2-11.1,10.6-15.6c4.3-4.4,9.5-7.9,15.3-10.2c6.6-2.6,13.6-3.8,20.7-3.7c11.2,0,20.9,2.3,29.1,6.9
			c8.1,4.5,15.2,10.7,20.7,18.2c5.7,7.8,9.9,16.6,12.5,25.9c2.7,9.6,4.1,19.6,4.1,29.6C416.1,291.7,414.6,304,411.6,316z
			 M441.4,897.7v-85.5c-0.1-10.2,1.3-20.3,4.2-30c2.6-8.7,6.9-16.9,12.7-23.9c5.8-6.8,13.1-12.2,21.3-15.7c8.5-3.8,18.5-5.7,30-5.7
			c8.7-0.1,17.4,1.3,25.6,4.3c7.2,2.7,13.8,6.8,19.3,12.2c5.5,5.5,9.7,12.1,12.3,19.3c3,8.2,4.4,16.8,4.3,25.5v34.5h55.9v65
			L441.4,897.7z M627.2,639.9v66H441.4v-81.5c-0.1-10,1.1-20,3.5-29.8c2.1-8.9,5.9-17.2,11.2-24.6c5.2-7.1,12.1-12.9,20.1-16.8
			c8.2-4.1,18.1-6.2,29.8-6.2c6.1-0.1,12.3,0.6,18.2,2.1c4.8,1.3,9.3,3.5,13.3,6.5c3.9,3.1,7.1,6.9,9.6,11.2
			c2.9,5.1,5.3,10.5,7.1,16.1h1.5c1.3-1.8,2.8-3.7,4.4-5.7c1.9-2.2,4.2-4.1,6.7-5.7l60.3-40.4v77.8l-59.6,29.6v1.2L627.2,639.9z
			 M441.4,508.1V383.2h50.8v56.9h17.7v-52h48.3v52h18.2v-58.9h50.8v126.9H441.4z M625.6,316L625.6,316c-2.8,12-7,23.7-12.4,34.7
			L560.7,330l2.7-3.5c4.8-6.1,8.9-12.7,12.1-19.7c3.3-7,5-14.7,4.9-22.4c0-1.9-0.2-3.7-0.5-5.5c-0.3-2-0.9-3.9-1.8-5.7
			c-0.9-1.7-2-3.1-3.5-4.3c-1.5-1.2-3.4-1.8-5.3-1.7c-1.8-0.1-3.6,0.4-5,1.5c-1.2,1-2.2,2.2-2.8,3.7c-0.7,1.6-1.2,3.2-1.5,5
			c-0.3,1.8-0.7,3.5-1,4.9l-2.5,13.5c-1.1,6.4-3,12.7-5.6,18.7c-2.4,5.7-5.8,11-10,15.5c-4.1,4.4-9,8-14.5,10.5
			c-6.1,2.6-12.6,4-19.2,3.8c-11,0-20.8-2.3-29.3-6.9c-8.4-4.5-15.7-10.7-21.6-18.2c-5.9-7.7-10.4-16.4-13.3-25.7
			c-3-9.6-4.6-19.6-4.5-29.7c-0.2-20.8,5.5-41.1,16.3-58.9l47.5,18.2c-4,5.8-7.3,11.9-10,18.4c-2.7,6.6-4.1,13.7-4.1,20.8
			c0,1.6,0.2,3.2,0.5,4.8c0.3,1.6,0.8,3.2,1.6,4.7c0.7,1.4,1.8,2.6,3,3.6c1.4,1,3.1,1.6,4.8,1.5c1.5,0.1,3-0.4,4.2-1.4
			c1-1,1.9-2.1,2.5-3.5c0.7-1.4,1.2-2.9,1.5-4.4c0.3-1.6,0.7-3,1-4.3l3.5-15.3c1.5-6.8,3.8-13.4,6.6-19.7
			c2.6-5.8,6.2-11.1,10.6-15.6c4.3-4.4,9.5-7.9,15.3-10.2c6.6-2.6,13.6-3.8,20.7-3.7c11.2,0,20.9,2.3,29.1,6.9
			c8.1,4.5,15.2,10.7,20.7,18.2c5.7,7.8,9.9,16.6,12.5,25.9c2.7,9.6,4.1,19.6,4.1,29.6C630.1,291.7,628.6,304,625.6,316z
			 M655.4,897.7v-85.5c-0.1-10.2,1.3-20.3,4.2-30c2.6-8.7,6.9-16.9,12.7-23.9c5.8-6.8,13.1-12.2,21.3-15.7c8.5-3.8,18.5-5.7,30-5.7
			c8.7-0.1,17.4,1.3,25.6,4.3c7.2,2.7,13.8,6.8,19.3,12.2c5.5,5.5,9.7,12.1,12.3,19.3c3,8.2,4.4,16.8,4.3,25.5v34.5h55.9v65
			L655.4,897.7z M841.2,639.9v66H655.4v-81.5c-0.1-10,1.1-20,3.5-29.8c2.1-8.9,5.9-17.2,11.2-24.6c5.2-7.1,12.1-12.9,20.1-16.8
			c8.2-4.1,18.2-6.2,29.8-6.2c6.1-0.1,12.3,0.6,18.2,2.1c4.8,1.3,9.3,3.5,13.3,6.5c3.9,3.1,7.1,6.9,9.6,11.2
			c2.9,5.1,5.3,10.5,7.1,16.1h1.5c1.3-1.8,2.8-3.7,4.4-5.7c1.9-2.2,4.2-4.1,6.7-5.7l60.3-40.4v77.8l-59.6,29.6v1.2L841.2,639.9z
			 M655.4,508.1V383.2h50.8v56.9h17.7v-52h48.3v52h18.2v-58.9h50.8v126.9H655.4z M839.6,316L839.6,316c-2.8,12-7,23.7-12.4,34.7
			L774.7,330l2.7-3.5c4.8-6.1,8.9-12.7,12.1-19.7c3.3-7,5-14.7,4.9-22.4c0-1.9-0.2-3.7-0.5-5.5c-0.3-2-0.9-3.9-1.8-5.7
			c-0.9-1.7-2-3.1-3.5-4.3c-1.5-1.2-3.4-1.8-5.3-1.7c-1.8-0.1-3.6,0.4-5,1.5c-1.2,1-2.2,2.2-2.8,3.7c-0.7,1.6-1.2,3.2-1.5,5
			c-0.3,1.8-0.7,3.5-1,4.9l-2.5,13.5c-1.1,6.4-3,12.7-5.6,18.7c-2.4,5.7-5.8,11-10,15.5c-4.1,4.4-9,8-14.5,10.5
			c-6.1,2.6-12.6,4-19.2,3.8c-11,0-20.8-2.3-29.3-6.9c-8.4-4.5-15.7-10.7-21.6-18.2c-5.9-7.7-10.4-16.4-13.3-25.7
			c-3-9.6-4.6-19.6-4.5-29.7c-0.2-20.8,5.5-41.1,16.3-58.9l47.5,18.2c-4,5.8-7.3,11.9-10,18.4c-2.7,6.6-4.1,13.7-4.1,20.8
			c0,1.6,0.2,3.2,0.5,4.8c0.3,1.6,0.8,3.2,1.6,4.7c0.7,1.4,1.8,2.6,3,3.6c1.4,1,3.1,1.6,4.8,1.5c1.5,0.1,3-0.4,4.2-1.4
			c1-1,1.9-2.1,2.5-3.5c0.7-1.4,1.2-2.9,1.5-4.4c0.3-1.6,0.7-3,1-4.3l3.5-15.3c1.5-6.8,3.8-13.4,6.7-19.7
			c2.6-5.8,6.2-11.1,10.6-15.6c4.3-4.4,9.5-7.9,15.3-10.2c6.6-2.6,13.6-3.8,20.7-3.7c11.2,0,20.9,2.3,29.1,6.9
			c8.1,4.5,15.2,10.7,20.7,18.2c5.7,7.8,9.9,16.6,12.5,25.9c2.7,9.6,4.1,19.6,4.1,29.6C844.1,291.7,842.6,304,839.6,316z
			 M1055.2,897.7H869.4v-85.5c-0.1-10.2,1.3-20.3,4.2-30c2.6-8.7,6.9-16.9,12.7-23.9c5.8-6.8,13.1-12.2,21.3-15.7
			c8.5-3.8,18.5-5.7,30-5.7c8.7-0.1,17.4,1.3,25.6,4.3c7.2,2.7,13.8,6.8,19.3,12.2c5.5,5.5,9.7,12.1,12.3,19.3
			c3,8.2,4.4,16.8,4.3,25.5v34.5h55.9L1055.2,897.7z M1055.2,609.2l-59.6,29.6v1.2h59.6v66H869.4v-81.5c-0.1-10,1.1-20,3.5-29.8
			c2.1-8.9,5.9-17.2,11.2-24.6c5.2-7.1,12.1-12.9,20.1-16.8c8.2-4.1,18.2-6.2,29.8-6.2c6.1-0.1,12.3,0.6,18.2,2.1
			c4.8,1.3,9.3,3.5,13.3,6.5c3.9,3.1,7.1,6.9,9.6,11.2c2.9,5.1,5.3,10.5,7.1,16.1h1.5c1.3-1.8,2.8-3.7,4.4-5.7
			c1.9-2.2,4.2-4.1,6.7-5.7l60.3-40.4L1055.2,609.2z M937.9,440.2v-52h48.3v52h18.2v-58.9h50.7v126.9H869.4V383.2h50.8v56.9
			L937.9,440.2z M1053.6,316L1053.6,316c-2.8,12-7,23.7-12.4,34.7L988.7,330l2.7-3.5c4.8-6.1,8.9-12.7,12.1-19.7
			c3.3-7,5-14.7,4.9-22.4c0-1.9-0.2-3.7-0.5-5.5c-0.3-2-0.9-3.9-1.8-5.7c-0.9-1.7-2-3.1-3.5-4.3c-1.5-1.2-3.4-1.8-5.3-1.7
			c-1.8-0.1-3.6,0.4-5,1.5c-1.2,1-2.2,2.2-2.8,3.7c-0.7,1.6-1.2,3.2-1.5,5c-0.3,1.8-0.7,3.5-1,4.9l-2.5,13.5
			c-1.1,6.4-2.9,12.7-5.5,18.7c-2.4,5.7-5.8,10.9-10,15.5c-4.1,4.4-9,8-14.5,10.5c-6.1,2.6-12.6,4-19.2,3.8c-11,0-20.8-2.3-29.3-6.9
			c-8.4-4.5-15.7-10.7-21.6-18.2c-5.9-7.7-10.5-16.4-13.4-25.7c-3-9.6-4.6-19.6-4.5-29.7c-0.2-20.8,5.5-41.1,16.3-58.9l47.5,18.2
			c-4,5.8-7.3,11.9-10,18.4c-2.7,6.6-4.1,13.7-4.1,20.8c0,1.6,0.2,3.2,0.5,4.8c0.3,1.6,0.8,3.2,1.6,4.7c0.7,1.4,1.8,2.6,3,3.6
			c1.4,1,3.1,1.6,4.8,1.5c1.5,0.1,3-0.4,4.2-1.4c1-1,1.9-2.1,2.5-3.5c0.7-1.4,1.2-2.9,1.5-4.4c0.3-1.6,0.7-3,1-4.3l3.5-15.3
			c1.5-6.8,3.8-13.4,6.7-19.7c2.6-5.8,6.2-11.1,10.6-15.6c4.3-4.4,9.5-7.9,15.3-10.2c6.6-2.6,13.6-3.8,20.7-3.7
			c11.2,0,20.9,2.3,29.1,6.9c8.1,4.5,15.2,10.7,20.7,18.2c5.7,7.8,9.9,16.6,12.4,25.9c2.7,9.6,4.1,19.6,4.1,29.6
			C1058.2,291.7,1056.6,304,1053.6,316L1053.6,316z M1269.2,897.7h-185.7v-85.5c-0.1-10.2,1.3-20.3,4.2-30
			c2.6-8.7,6.9-16.9,12.7-23.9c5.8-6.8,13.1-12.2,21.3-15.7c8.5-3.8,18.6-5.7,30.1-5.7c8.7-0.1,17.4,1.3,25.6,4.3
			c7.2,2.7,13.8,6.8,19.3,12.2c5.5,5.5,9.7,12.1,12.4,19.3c3,8.2,4.4,16.8,4.3,25.5v34.5h55.9L1269.2,897.7z M1269.2,609.2
			l-59.6,29.6v1.2h59.6v66h-185.7v-81.5c-0.1-10,1.1-20,3.4-29.8c2.1-8.9,5.9-17.2,11.2-24.6c5.2-7.1,12.1-12.9,20.1-16.8
			c8.2-4.1,18.2-6.2,29.8-6.2c6.1-0.1,12.3,0.6,18.2,2.1c4.8,1.3,9.3,3.5,13.3,6.5c3.9,3.1,7.1,6.9,9.6,11.2
			c2.9,5.1,5.3,10.5,7.1,16.1h1.5c1.3-1.8,2.8-3.7,4.4-5.7c1.9-2.2,4.2-4.1,6.7-5.7l60.3-40.4L1269.2,609.2z M1269.2,508.2h-185.7
			V383.2h50.8v56.9h17.7v-52h48.3v52h18.2v-58.9h50.8L1269.2,508.2z M1267.6,316L1267.6,316c-2.8,12-7,23.7-12.4,34.7l-52.5-20.7
			l2.7-3.5c4.8-6.1,8.9-12.7,12.1-19.7c3.3-7,5-14.7,4.9-22.4c0-1.9-0.2-3.7-0.5-5.5c-0.3-2-0.9-3.9-1.8-5.7c-0.9-1.7-2-3.1-3.4-4.3
			c-1.5-1.2-3.4-1.8-5.3-1.7c-1.8-0.1-3.6,0.4-5,1.5c-1.2,1-2.2,2.2-2.8,3.7c-0.7,1.6-1.2,3.2-1.5,4.9c-0.3,1.8-0.7,3.5-1,4.9
			l-2.5,13.5c-1.1,6.4-2.9,12.7-5.5,18.7c-2.4,5.7-5.8,10.9-10,15.5c-4.1,4.4-9,8-14.5,10.5c-6.1,2.6-12.6,4-19.2,3.8
			c-11,0-20.8-2.3-29.3-6.9c-8.4-4.5-15.7-10.7-21.6-18.2c-5.9-7.7-10.4-16.4-13.3-25.7c-3-9.6-4.6-19.6-4.6-29.7
			c-0.2-20.8,5.5-41.1,16.3-58.9l47.6,18.2c-4,5.8-7.3,11.9-10,18.4c-2.7,6.6-4.1,13.7-4.1,20.8c0,1.6,0.2,3.2,0.5,4.8
			c0.3,1.6,0.8,3.2,1.6,4.7c0.7,1.4,1.8,2.6,3,3.6c1.4,1,3.1,1.6,4.8,1.5c1.5,0.1,3-0.4,4.2-1.4c1-1,1.9-2.1,2.5-3.5
			c0.7-1.4,1.2-2.9,1.5-4.4c0.3-1.6,0.7-3,1-4.3l3.4-15.3c1.5-6.8,3.8-13.4,6.7-19.7c2.6-5.8,6.2-11.1,10.6-15.6
			c4.3-4.4,9.5-7.9,15.3-10.2c6.6-2.6,13.6-3.8,20.7-3.7c11.2,0,20.9,2.3,29.1,6.9c8.1,4.5,15.2,10.7,20.7,18.2
			c5.7,7.8,9.9,16.6,12.4,25.9c2.7,9.6,4.1,19.6,4.1,29.6C1272.1,291.6,1270.6,304,1267.6,316L1267.6,316z M1267.6,140.4
			L1267.6,140.4c-2.8,12-7,23.7-12.4,34.7l-52.5-20.7l2.7-3.4c4.8-6.1,8.8-12.7,12.1-19.7c3.3-7,5-14.7,4.9-22.4
			c0-1.9-0.2-3.7-0.5-5.5c-0.3-2-0.9-3.9-1.8-5.7c-0.9-1.7-2-3.1-3.4-4.3c-3.1-2.2-7.1-2.3-10.3-0.2c-1.2,1-2.2,2.3-2.8,3.7
			c-0.7,1.6-1.2,3.2-1.5,4.9c-0.3,1.8-0.7,3.4-1,4.9l-2.5,13.6c-1.1,6.4-3,12.7-5.5,18.7c-2.4,5.7-5.8,11-10,15.5
			c-4.1,4.4-9,8-14.5,10.5c-6.1,2.6-12.6,4-19.2,3.8c-11,0-20.8-2.3-29.3-6.9c-8.4-4.5-15.7-10.7-21.6-18.3
			c-5.9-7.7-10.4-16.4-13.3-25.8c-3-9.6-4.6-19.6-4.5-29.7c-0.2-20.8,5.5-41.1,16.3-58.9l47.5,18.3c-3.9,5.8-7.3,11.9-10,18.3
			c-2.7,6.6-4.1,13.7-4.1,20.8c0,1.6,0.2,3.2,0.5,4.8c0.3,1.6,0.8,3.2,1.6,4.7c0.7,1.4,1.8,2.6,3,3.6c1.4,1,3.1,1.6,4.8,1.5
			c1.5,0.1,3-0.4,4.2-1.3c1-1,1.9-2.1,2.5-3.4c0.7-1.4,1.2-2.9,1.5-4.4c0.3-1.6,0.7-3,1-4.3l3.4-15.3c1.5-6.8,3.8-13.4,6.7-19.7
			c2.6-5.8,6.2-11.1,10.6-15.7c4.3-4.4,9.5-7.9,15.3-10.2c6.6-2.6,13.6-3.8,20.7-3.7c11.2,0,20.9,2.3,29.1,6.9
			c8.1,4.5,15.2,10.7,20.7,18.2c5.7,7.8,9.9,16.5,12.4,25.9c2.7,9.6,4.1,19.6,4.1,29.6C1272.1,116,1270.5,128.3,1267.6,140.4
			L1267.6,140.4z M1483.2,897.7h-185.7v-85.5c-0.1-10.2,1.3-20.3,4.2-30c2.6-8.7,6.9-16.9,12.7-23.9c5.8-6.8,13.1-12.2,21.3-15.7
			c8.5-3.8,18.6-5.7,30.1-5.7c8.7-0.1,17.4,1.3,25.6,4.3c7.2,2.7,13.8,6.8,19.3,12.2c5.5,5.5,9.7,12.1,12.4,19.3
			c3,8.2,4.4,16.8,4.3,25.5v34.5h55.9L1483.2,897.7z M1483.2,609.2l-59.6,29.6v1.2h59.6v66h-185.7v-81.5c-0.1-10,1.1-20,3.4-29.8
			c2.1-8.9,5.9-17.2,11.2-24.6c5.2-7.1,12.1-12.9,20.1-16.8c8.2-4.1,18.2-6.2,29.8-6.2c6.1-0.1,12.3,0.6,18.2,2.1
			c4.8,1.3,9.3,3.5,13.3,6.5c3.9,3.1,7.1,6.9,9.6,11.2c2.9,5.1,5.3,10.5,7.1,16.1h1.5c1.3-1.8,2.8-3.7,4.4-5.7
			c1.9-2.2,4.2-4.1,6.7-5.7l60.3-40.4L1483.2,609.2z M1483.2,508.2h-185.7V383.2h50.8v56.9h17.7v-52h48.3v52h18.2v-58.9h50.8
			L1483.2,508.2z M1481.6,316L1481.6,316c-2.8,12-7,23.7-12.4,34.7l-52.5-20.7l2.7-3.5c4.8-6.1,8.9-12.7,12.1-19.7
			c3.3-7,5-14.7,4.9-22.4c0-1.9-0.2-3.7-0.5-5.5c-0.3-2-0.9-3.9-1.8-5.7c-0.9-1.7-2-3.1-3.4-4.3c-1.5-1.2-3.4-1.8-5.3-1.7
			c-1.8-0.1-3.6,0.4-5,1.5c-1.2,1-2.2,2.2-2.8,3.7c-0.7,1.6-1.2,3.2-1.5,4.9c-0.3,1.8-0.7,3.5-1,4.9l-2.5,13.5
			c-1.1,6.4-2.9,12.7-5.5,18.7c-2.4,5.7-5.8,10.9-10,15.5c-4.1,4.4-9,8-14.5,10.5c-6.1,2.6-12.6,4-19.2,3.8c-11,0-20.8-2.3-29.3-6.9
			c-8.4-4.5-15.7-10.7-21.6-18.2c-5.9-7.7-10.4-16.4-13.3-25.7c-3-9.6-4.6-19.6-4.6-29.7c-0.2-20.8,5.5-41.1,16.3-58.9l47.6,18.2
			c-4,5.8-7.3,11.9-10,18.4c-2.7,6.6-4.1,13.7-4.1,20.8c0,1.6,0.2,3.2,0.5,4.8c0.3,1.6,0.8,3.2,1.6,4.7c0.7,1.4,1.8,2.6,3,3.6
			c1.4,1,3.1,1.6,4.8,1.5c1.5,0.1,3-0.4,4.2-1.4c1-1,1.9-2.1,2.5-3.5c0.7-1.4,1.2-2.9,1.5-4.4c0.3-1.6,0.7-3,1-4.3l3.4-15.3
			c1.5-6.8,3.8-13.4,6.7-19.7c2.6-5.8,6.2-11.1,10.6-15.6c4.3-4.4,9.5-7.9,15.3-10.2c6.6-2.6,13.6-3.8,20.7-3.7
			c11.2,0,20.9,2.3,29.1,6.9c8.1,4.5,15.2,10.7,20.7,18.2c5.7,7.8,9.9,16.6,12.4,25.9c2.7,9.6,4.1,19.6,4.1,29.6
			C1486.1,291.6,1484.6,304,1481.6,316L1481.6,316z M1481.6,140.4L1481.6,140.4c-2.8,12-7,23.7-12.4,34.7l-52.5-20.7l2.7-3.4
			c4.8-6.1,8.8-12.7,12.1-19.7c3.3-7,5-14.7,4.9-22.4c0-1.9-0.2-3.7-0.5-5.5c-0.3-2-0.9-3.9-1.8-5.7c-0.9-1.7-2-3.1-3.4-4.3
			c-3.1-2.2-7.1-2.3-10.3-0.2c-1.2,1-2.2,2.3-2.8,3.7c-0.7,1.6-1.2,3.2-1.5,4.9c-0.3,1.8-0.7,3.4-1,4.9l-2.5,13.6
			c-1.1,6.4-3,12.7-5.5,18.7c-2.4,5.7-5.8,11-10,15.5c-4.1,4.4-9,8-14.5,10.5c-6.1,2.6-12.6,4-19.2,3.8c-11,0-20.8-2.3-29.3-6.9
			c-8.4-4.5-15.7-10.7-21.6-18.3c-5.9-7.7-10.4-16.4-13.3-25.8c-3-9.6-4.6-19.6-4.5-29.7c-0.2-20.8,5.5-41.1,16.3-58.9l47.5,18.3
			c-3.9,5.8-7.3,11.9-10,18.3c-2.7,6.6-4.1,13.7-4.1,20.8c0,1.6,0.2,3.2,0.5,4.8c0.3,1.6,0.8,3.2,1.6,4.7c0.7,1.4,1.8,2.6,3,3.6
			c1.4,1,3.1,1.6,4.8,1.5c1.5,0.1,3-0.4,4.2-1.3c1-1,1.9-2.1,2.5-3.4c0.7-1.4,1.2-2.9,1.5-4.4c0.3-1.6,0.7-3,1-4.3l3.4-15.3
			c1.5-6.8,3.8-13.4,6.7-19.7c2.6-5.8,6.2-11.1,10.6-15.7c4.3-4.4,9.5-7.9,15.3-10.2c6.6-2.6,13.6-3.8,20.7-3.7
			c11.2,0,20.9,2.3,29.1,6.9c8.1,4.5,15.2,10.7,20.7,18.2c5.7,7.8,9.9,16.5,12.4,25.9c2.7,9.6,4.1,19.6,4.1,29.6
			C1486.1,116,1484.5,128.3,1481.6,140.4L1481.6,140.4z"/>
	</g>
</g>
</svg>
