<svg xmlns="http://www.w3.org/2000/svg" viewBox="0 0 331.71 331.71"><defs><style>.cls-1{fill:#d097c3;}.cls-2{fill:#fff;}</style></defs><title>wherebox_2</title><g id="Layer_2" data-name="Layer 2"><g id="Layer_1-2" data-name="Layer 1"><path class="cls-1" d="M331.71,171a82.91,82.91,0,0,0-82.62-82.91c.11-1.73.26-3.45.26-5.2a82.93,82.93,0,1,0-165.85,0c0,1.76.15,3.49.26,5.22-.28,0-.55,0-.83,0a82.93,82.93,0,1,0,0,165.85c.28,0,.55,0,.83,0a82.82,82.82,0,0,0,165.33,0A82.92,82.92,0,0,0,331.71,171Zm-165.59-5.17c-.18,0-.35,0-.53,0v-.09c.18,0,.35,0,.53,0Z"/><path class="cls-2" d="M111.5,154.75,90.79,190.33l-6.5-20.78L72.78,190.33,61.09,154.75h8l5.67,19.65,11.49-20.54,6.15,20.54,10.56-19.65Z"/><path class="cls-2" d="M128,129.22l-3.49,28.26a15,15,0,0,1,9.23-3.52,10.86,10.86,0,0,1,7.52,2.5,8,8,0,0,1,2.91,6.46c0,.64,0,1.36-.11,2.17s-.15,1.72-.27,2.75L141.44,187h-7.55l2.39-19.52a21.61,21.61,0,0,0,.21-2.84q0-4.31-5.06-4.3-7.25,0-8.44,9.81L120.9,187h-7.55l7.11-57.73Z"/><path class="cls-2" d="M159.73,173.55a7.61,7.61,0,0,0,2.46,5.84,9,9,0,0,0,6.36,2.29,9.39,9.39,0,0,0,8.13-4l5.64,3.11a17.84,17.84,0,0,1-6,5.53,17.06,17.06,0,0,1-7.86,1.61q-7.49,0-11.93-4.41T152,171.77a18.12,18.12,0,0,1,4.89-12.92,16.11,16.11,0,0,1,12.27-5.16q7.17,0,11.31,4.65t4.2,12.54c0,.55,0,1.44-.1,2.67Zm17.33-6.09q-1.2-7.44-8.24-7.45-6.66,0-8.68,7.45Z"/><path class="cls-2" d="M202.8,154.75l-.35,2.77c2.56-2.42,5.13-3.63,7.73-3.63a9.16,9.16,0,0,1,6.22,2.5l-4.82,6.22a6.48,6.48,0,0,0-4.17-1.78,5.39,5.39,0,0,0-2.53.57,5.13,5.13,0,0,0-1.9,1.77,11.15,11.15,0,0,0-1.33,3.13,31.58,31.58,0,0,0-.84,4.58l-2,16.07h-7.55l4-32.2Z"/><path class="cls-2" d="M225.35,173.55a7.61,7.61,0,0,0,2.46,5.84,9,9,0,0,0,6.36,2.29,9.42,9.42,0,0,0,8.14-4l5.64,3.11a17.93,17.93,0,0,1-6,5.53A17.1,17.1,0,0,1,234,188q-7.49,0-11.92-4.41t-4.45-11.79a18.12,18.12,0,0,1,4.89-12.92,16.14,16.14,0,0,1,12.27-5.16q7.19,0,11.31,4.65t4.21,12.54c0,.55,0,1.44-.1,2.67Zm17.33-6.09q-1.2-7.44-8.24-7.45-6.66,0-8.68,7.45Z"/></g></g></svg>