<svg xmlns="http://www.w3.org/2000/svg" viewBox="0 0 335.03 335.03"><defs><style>.cls-1{fill:#d097c3;}.cls-2{fill:#fff;}.cls-3{fill:none;}</style></defs><title>where_1</title><g id="Layer_2" data-name="Layer 2"><g id="Layer_1-2" data-name="Layer 1"><path class="cls-1" d="M331.69,173.06a81.85,81.85,0,0,0-81.56-81.85c.11-1.7.25-3.4.25-5.13a81.86,81.86,0,1,0-163.71-1.8q0,.9,0,1.8c0,1.74.14,3.45.25,5.15H86.1A81.86,81.86,0,0,0,84.31,255c.6,0,1.19,0,1.79,0h.82a81.76,81.76,0,0,0,163.21,0A81.86,81.86,0,0,0,331.69,173.06ZM168.22,168h-.52v-.08h.52Z"/><path class="cls-2" d="M123.88,151.55l-20.44,35.12L97,166.16,85.66,186.67,74.12,151.55H82L87.61,171,99,150.67,105,171l10.42-19.4Z"/><path class="cls-2" d="M140.17,126.35l-3.45,27.9a14.81,14.81,0,0,1,9.12-3.48,10.73,10.73,0,0,1,7.42,2.47,7.88,7.88,0,0,1,2.87,6.38,15.1,15.1,0,0,1-.11,2.14c-.11.8-.14,1.7-.26,2.71l-2.32,18.92H146l2.36-19.27a22,22,0,0,0,.21-2.81c0-2.83-1.66-4.25-5-4.24q-7.17,0-8.34,9.68l-2.06,16.64h-7.45l7-57Z"/><path class="cls-2" d="M171.49,170.11a7.52,7.52,0,0,0,2.43,5.77,8.89,8.89,0,0,0,6.28,2.26,9.29,9.29,0,0,0,8-3.95l5.57,3.07a17.6,17.6,0,0,1-5.92,5.46,16.87,16.87,0,0,1-7.76,1.59q-7.4,0-11.78-4.36t-4.47-11.6a17.88,17.88,0,0,1,4.83-12.75,15.86,15.86,0,0,1,12.11-5.09q7.08,0,11.17,4.59t4.14,12.37c0,.55,0,1.43-.1,2.64Zm17.11-6q-1.18-7.35-8.14-7.36-6.57,0-8.56,7.36Z"/><path class="cls-2" d="M214,151.55l-.35,2.74q3.79-3.58,7.63-3.59a9,9,0,0,1,6.14,2.47l-4.75,6.14a6.42,6.42,0,0,0-4.12-1.76,5.42,5.42,0,0,0-2.5.57,5,5,0,0,0-1.87,1.74,11,11,0,0,0-1.32,3.09,33.25,33.25,0,0,0-.83,4.52l-2,15.87h-7.45l3.95-31.79Z"/><path class="cls-2" d="M236.27,170.11a7.52,7.52,0,0,0,2.43,5.77,8.89,8.89,0,0,0,6.28,2.26,9.32,9.32,0,0,0,8-3.95l5.57,3.07a17.78,17.78,0,0,1-5.92,5.46,16.91,16.91,0,0,1-7.85,1.65q-7.4,0-11.77-4.35t-4.39-11.64a17.87,17.87,0,0,1,4.82-12.75,15.92,15.92,0,0,1,12.12-5.09q7.09,0,11.16,4.59t4.16,12.37c0,.55,0,1.43-.1,2.64Zm17.11-6q-1.19-7.35-8.14-7.36-6.57,0-8.57,7.36Z"/><rect class="cls-3" width="335.03" height="335.03"/></g></g></svg>