<svg xmlns="http://www.w3.org/2000/svg" viewBox="0 0 262.37 270.63"><defs><style>.cls-1{fill:none;}.cls-2{fill:#fadf6f;}.cls-3{fill:#fff;}</style></defs><title>story-15</title><g id="Layer_2" data-name="Layer 2"><g id="Layer_1-2" data-name="Layer 1"><rect class="cls-1" width="262.37" height="270.63"/><circle class="cls-2" cx="131.18" cy="135.31" r="95.3"/><path class="cls-3" d="M-315.91-628.52h-6.52l3.13-5.32h9.08v37.7h-5.69Z" transform="translate(430 750)"/><path class="cls-3" d="M-275.76-628.52h-11.62l-1.86,6.25.79-.07c.26,0,.49,0,.7,0a11.84,11.84,0,0,1,9,3.71,13.05,13.05,0,0,1,3.54,9.44,13.07,13.07,0,0,1-4,9.82,14,14,0,0,1-10.09,3.86q-7.48,0-11.81-7l4.29-3.64a13.36,13.36,0,0,0,3.59,4.27,7.76,7.76,0,0,0,4.42,1.22,7.7,7.7,0,0,0,5.74-2.39,8.45,8.45,0,0,0,2.32-6A8,8,0,0,0-283-615a7.66,7.66,0,0,0-5.74-2.37,8.36,8.36,0,0,0-6.61,3.35h-1.88l5.93-19.83h15.58Z" transform="translate(430 750)"/></g></g></svg>