<svg xmlns="http://www.w3.org/2000/svg" viewBox="0 0 1895.13 129"><defs><style>.cls-1{fill:#adadad;}.cls-2{fill:#fff;}</style></defs><title>stories-horizontal</title><g id="Layer_2" data-name="Layer 2"><g id="Layer_1-2" data-name="Layer 1"><rect class="cls-1" width="1895.13" height="129"/><g id="Layer_1-2-2" data-name="Layer 1-2"><path class="cls-2" d="M32.74,83.43l6-6.85A9.22,9.22,0,0,0,42.47,81a10.49,10.49,0,0,0,5.71,1.62,9.44,9.44,0,0,0,6-1.8A6,6,0,0,0,56.42,76q0-3.61-7.41-7.19c-1.6-.77-2.86-1.39-3.78-1.88Q38.54,63.4,36,60.09a12.53,12.53,0,0,1-2.5-7.92,12.72,12.72,0,0,1,5-10.33q5-4.06,12.91-4.06a18,18,0,0,1,8,1.62,16.08,16.08,0,0,1,5.93,5.05L58.85,50.6a7.88,7.88,0,0,0-3.05-3.32,8.9,8.9,0,0,0-4.6-1.08A8,8,0,0,0,46,47.81,5.12,5.12,0,0,0,44,52q0,4.05,7.85,7.37l2.4,1a26.93,26.93,0,0,1,9.58,6.68A12.84,12.84,0,0,1,67,75.56,14.36,14.36,0,0,1,62.09,87Q57.2,91.23,49,91.23a22.66,22.66,0,0,1-10-2A13.51,13.51,0,0,1,32.74,83.43Z"/><path class="cls-2" d="M113.41,48.21V89.93H102.49V48.21H90.05V39h35.8v9.21Z"/><path class="cls-2" d="M202.35,64.55a26.56,26.56,0,0,1-2.09,10.33,25.36,25.36,0,0,1-5.85,8.55,27.83,27.83,0,0,1-8.94,5.8,27.12,27.12,0,0,1-19.41.44,28.11,28.11,0,0,1-8.19-4.54A25.81,25.81,0,0,1,148,64.55a26.19,26.19,0,0,1,2-10.3,25.45,25.45,0,0,1,5.91-8.58,27.38,27.38,0,0,1,29.7-5.81,28.08,28.08,0,0,1,8.89,5.77,26.06,26.06,0,0,1,5.88,8.63A26.48,26.48,0,0,1,202.35,64.55Z"/><path class="cls-2" d="M266.86,89.93H254.35L241,66.15V89.93H230V39h15.58q9.27,0,13.9,3.6t4.63,10.82a13.33,13.33,0,0,1-3.13,9,12.27,12.27,0,0,1-8.17,4.35Z"/><path class="cls-2" d="M296.17,89.93V39h10.89V89.93Z"/><path class="cls-2" d="M341.45,89.93V39h30v9.21H352.33V58.64h19.09v9.25H352.33V80.65h19.09v9.28Z"/><path class="cls-2" d="M401.6,83.43l6-6.85a9.27,9.27,0,0,0,3.7,4.43A10.42,10.42,0,0,0,417,82.63a9.42,9.42,0,0,0,6-1.8A6,6,0,0,0,425.31,76q0-3.61-7.39-7.19c-1.61-.76-2.87-1.39-3.8-1.88q-6.66-3.48-9.24-6.79a12.51,12.51,0,0,1-2.58-7.92,12.72,12.72,0,0,1,5-10.33q5-4.06,12.95-4.06a18.12,18.12,0,0,1,8,1.62,16.16,16.16,0,0,1,5.93,5.05l-6.41,6.16a7.84,7.84,0,0,0-3-3.32,9,9,0,0,0-4.57-1.09,8,8,0,0,0-5.22,1.61,5.17,5.17,0,0,0-2,4.17q0,4.05,7.86,7.37l2.4,1a27,27,0,0,1,9.57,6.68,12.82,12.82,0,0,1,3.13,8.49A14.39,14.39,0,0,1,431,87q-4.89,4.26-13.12,4.26a22.77,22.77,0,0,1-10-2A13.49,13.49,0,0,1,401.6,83.43Z"/></g><g id="Layer_1-2-3" data-name="Layer 1-2"><path class="cls-2" d="M513.09,83.43l6-6.85A9.3,9.3,0,0,0,522.83,81a10.43,10.43,0,0,0,5.7,1.62,9.42,9.42,0,0,0,6.05-1.8A6,6,0,0,0,536.77,76q0-3.61-7.4-7.19c-1.6-.77-2.87-1.39-3.79-1.88q-6.69-3.48-9.25-6.79a12.54,12.54,0,0,1-2.51-7.92,12.72,12.72,0,0,1,5-10.33q5-4.06,12.91-4.06a18,18,0,0,1,8,1.62,16.19,16.19,0,0,1,5.94,5.05L539.2,50.6a7.92,7.92,0,0,0-3-3.32,8.9,8.9,0,0,0-4.6-1.08,8,8,0,0,0-5.22,1.61,5.17,5.17,0,0,0-2,4.17q0,4.05,7.85,7.37l2.4,1a27,27,0,0,1,9.59,6.68,13,13,0,0,1,3.13,8.49A14.39,14.39,0,0,1,542.45,87c-3.27,2.84-7.64,4.26-13.14,4.26a22.68,22.68,0,0,1-10-2A13.51,13.51,0,0,1,513.09,83.43Z"/><path class="cls-2" d="M593.76,48.21V89.93H582.84V48.21H570.4V39h35.81v9.21Z"/><path class="cls-2" d="M682.71,64.55a26.56,26.56,0,0,1-2.09,10.33,25.51,25.51,0,0,1-5.85,8.55,27.94,27.94,0,0,1-8.94,5.8,27.12,27.12,0,0,1-19.41.44,28,28,0,0,1-8.19-4.54,25.85,25.85,0,0,1-9.91-20.58,26.37,26.37,0,0,1,2-10.3,25.48,25.48,0,0,1,5.92-8.58,27.27,27.27,0,0,1,8.93-5.81,27.61,27.61,0,0,1,10.43-2.08,27.1,27.1,0,0,1,10.33,2.08,28,28,0,0,1,8.89,5.77,25.77,25.77,0,0,1,5.88,8.63A26.49,26.49,0,0,1,682.71,64.55Z"/><path class="cls-2" d="M747.22,89.93H734.7L721.32,66.15V89.93H710.4V39H726q9.27,0,13.9,3.6t4.64,10.82a13.43,13.43,0,0,1-3.13,9,12.32,12.32,0,0,1-8.17,4.35Z"/><path class="cls-2" d="M776.53,89.93V39h10.89V89.93Z"/><path class="cls-2" d="M821.81,89.93V39h30v9.21H832.69V58.64h19.08v9.25H832.69V80.65h19.08v9.28Z"/><path class="cls-2" d="M882,83.43l6-6.85A9.25,9.25,0,0,0,891.7,81a10.43,10.43,0,0,0,5.7,1.62,9.44,9.44,0,0,0,6.05-1.8A6,6,0,0,0,905.67,76q0-3.61-7.4-7.19c-1.6-.76-2.87-1.39-3.79-1.88q-6.68-3.48-9.25-6.79a12.56,12.56,0,0,1-2.57-7.92,12.68,12.68,0,0,1,5-10.33q5-4.06,13-4.06a18.15,18.15,0,0,1,8,1.62,16.13,16.13,0,0,1,5.92,5.05l-6.4,6.16a7.86,7.86,0,0,0-3-3.32,9,9,0,0,0-4.57-1.09,8,8,0,0,0-5.21,1.61,5.14,5.14,0,0,0-2,4.17q0,4.05,7.85,7.37l2.4,1a27,27,0,0,1,9.58,6.68,12.86,12.86,0,0,1,3.12,8.49A14.36,14.36,0,0,1,911.37,87q-4.87,4.26-13.12,4.26a22.7,22.7,0,0,1-10-2A13.39,13.39,0,0,1,882,83.43Z"/></g><g id="Layer_1-2-4" data-name="Layer 1-2"><path class="cls-2" d="M993.45,83.43l6-6.85a9.22,9.22,0,0,0,3.68,4.43,10.49,10.49,0,0,0,5.71,1.62,9.44,9.44,0,0,0,6.05-1.8,6,6,0,0,0,2.19-4.88q0-3.61-7.41-7.19c-1.6-.77-2.86-1.39-3.79-1.88q-6.67-3.48-9.25-6.79a12.53,12.53,0,0,1-2.5-7.92,12.72,12.72,0,0,1,5-10.33q5-4.06,12.91-4.06a18,18,0,0,1,8,1.62,16.08,16.08,0,0,1,5.93,5.05l-6.43,6.15a7.88,7.88,0,0,0-3-3.32,8.9,8.9,0,0,0-4.6-1.08,8,8,0,0,0-5.21,1.61,5.15,5.15,0,0,0-2,4.17q0,4.05,7.86,7.37l2.4,1a27,27,0,0,1,9.58,6.68,12.84,12.84,0,0,1,3.13,8.49A14.39,14.39,0,0,1,1022.8,87q-4.89,4.26-13.13,4.26a22.63,22.63,0,0,1-10-2A13.51,13.51,0,0,1,993.45,83.43Z"/><path class="cls-2" d="M1074.12,48.21V89.93H1063.2V48.21h-12.45V39h35.81v9.21Z"/><path class="cls-2" d="M1163.06,64.55A26.56,26.56,0,0,1,1161,74.88a25.36,25.36,0,0,1-5.85,8.55,27.83,27.83,0,0,1-8.94,5.8,27.12,27.12,0,0,1-19.41.44,28.11,28.11,0,0,1-8.19-4.54,25.81,25.81,0,0,1-9.9-20.58,26.19,26.19,0,0,1,2-10.3,25.45,25.45,0,0,1,5.91-8.58,27.38,27.38,0,0,1,29.7-5.81,27.93,27.93,0,0,1,8.88,5.77,25.94,25.94,0,0,1,5.89,8.63A26.48,26.48,0,0,1,1163.06,64.55Z"/><path class="cls-2" d="M1227.57,89.93h-12.51l-13.39-23.78V89.93h-10.92V39h15.58q9.27,0,13.9,3.6t4.63,10.82a13.33,13.33,0,0,1-3.13,9,12.27,12.27,0,0,1-8.17,4.35Z"/><path class="cls-2" d="M1256.88,89.93V39h10.89V89.93Z"/><path class="cls-2" d="M1302.16,89.93V39h30v9.21H1313V58.64h19.09v9.25H1313V80.65h19.09v9.28Z"/><path class="cls-2" d="M1362.31,83.43l6-6.85a9.22,9.22,0,0,0,3.7,4.43,10.42,10.42,0,0,0,5.69,1.62,9.42,9.42,0,0,0,6-1.8A6,6,0,0,0,1386,76q0-3.61-7.39-7.19c-1.61-.76-2.87-1.39-3.8-1.88q-6.66-3.48-9.24-6.79a12.51,12.51,0,0,1-2.58-7.92,12.72,12.72,0,0,1,5-10.33q5-4.06,13-4.06a18.12,18.12,0,0,1,8,1.62,16.16,16.16,0,0,1,5.93,5.05l-6.41,6.16a7.84,7.84,0,0,0-3-3.32,9,9,0,0,0-4.57-1.09,8,8,0,0,0-5.22,1.61,5.17,5.17,0,0,0-2,4.17q0,4.05,7.86,7.37l2.39,1a26.93,26.93,0,0,1,9.58,6.68,12.82,12.82,0,0,1,3.13,8.49A14.39,14.39,0,0,1,1391.73,87q-4.89,4.26-13.12,4.26a22.74,22.74,0,0,1-10-2A13.49,13.49,0,0,1,1362.31,83.43Z"/></g><g id="Layer_1-2-5" data-name="Layer 1-2"><path class="cls-2" d="M1461.8,83.43l6-6.85a9.3,9.3,0,0,0,3.69,4.43,10.43,10.43,0,0,0,5.7,1.62,9.42,9.42,0,0,0,6-1.8,6,6,0,0,0,2.19-4.88q0-3.61-7.4-7.19c-1.6-.77-2.87-1.39-3.79-1.88q-6.69-3.48-9.25-6.79a12.54,12.54,0,0,1-2.51-7.92,12.72,12.72,0,0,1,5-10.33q5-4.06,12.91-4.06a18,18,0,0,1,8,1.62,16.19,16.19,0,0,1,5.94,5.05l-6.44,6.15a7.92,7.92,0,0,0-3-3.32,8.9,8.9,0,0,0-4.6-1.08,8,8,0,0,0-5.22,1.61,5.14,5.14,0,0,0-2,4.17q0,4.05,7.85,7.37l2.4,1a27,27,0,0,1,9.59,6.68,13,13,0,0,1,3.13,8.49A14.42,14.42,0,0,1,1491.16,87c-3.27,2.84-7.64,4.26-13.14,4.26a22.68,22.68,0,0,1-10-2A13.51,13.51,0,0,1,1461.8,83.43Z"/><path class="cls-2" d="M1542.47,48.21V89.93h-10.92V48.21h-12.44V39h35.81v9.21Z"/><path class="cls-2" d="M1631.41,64.55a26.37,26.37,0,0,1-2.08,10.33,25.51,25.51,0,0,1-5.85,8.55,28,28,0,0,1-8.94,5.8,27.12,27.12,0,0,1-19.41.44,28,28,0,0,1-8.19-4.54A25.85,25.85,0,0,1,1577,64.55a26.37,26.37,0,0,1,2-10.3,25.48,25.48,0,0,1,5.92-8.58,27.27,27.27,0,0,1,8.93-5.81,27.61,27.61,0,0,1,10.43-2.08,27.14,27.14,0,0,1,10.33,2.08,28,28,0,0,1,8.89,5.77,25.77,25.77,0,0,1,5.88,8.63A26.3,26.3,0,0,1,1631.41,64.55Z"/><path class="cls-2" d="M1695.93,89.93h-12.52L1670,66.15V89.93h-10.92V39h15.57q9.27,0,13.9,3.6t4.64,10.82a13.43,13.43,0,0,1-3.13,9,12.32,12.32,0,0,1-8.17,4.35Z"/><path class="cls-2" d="M1725.24,89.93V39h10.89V89.93Z"/><path class="cls-2" d="M1770.52,89.93V39h30v9.21h-19.09V58.64h19.09v9.25h-19.09V80.65h19.09v9.28Z"/><path class="cls-2" d="M1830.67,83.43l6-6.85a9.25,9.25,0,0,0,3.69,4.43,10.43,10.43,0,0,0,5.7,1.62,9.44,9.44,0,0,0,6.05-1.8,6,6,0,0,0,2.22-4.88q0-3.61-7.4-7.19c-1.6-.76-2.87-1.39-3.8-1.88q-6.66-3.48-9.24-6.79a12.56,12.56,0,0,1-2.57-7.92,12.68,12.68,0,0,1,5-10.33q5-4.06,13-4.06a18.15,18.15,0,0,1,8,1.62,16.13,16.13,0,0,1,5.92,5.05l-6.4,6.16a7.86,7.86,0,0,0-3-3.32,9,9,0,0,0-4.57-1.09,8,8,0,0,0-5.21,1.61,5.14,5.14,0,0,0-2,4.17q0,4.05,7.85,7.37l2.4,1a26.89,26.89,0,0,1,9.57,6.68,12.82,12.82,0,0,1,3.13,8.49A14.36,14.36,0,0,1,1860.08,87q-4.87,4.26-13.12,4.26a22.7,22.7,0,0,1-10-2A13.39,13.39,0,0,1,1830.67,83.43Z"/></g></g></g></svg>