<svg xmlns="http://www.w3.org/2000/svg" viewBox="0 0 262.37 270.63"><defs><style>.cls-1{fill:none;}.cls-2{fill:#66c5bb;}.cls-3{fill:#fff;}</style></defs><title>story-3</title><g id="Layer_2" data-name="Layer 2"><g id="Layer_1-2" data-name="Layer 1"><rect class="cls-1" width="262.37" height="270.63"/><polygon class="cls-2" points="27.17 225.39 131.19 45.24 235.2 225.39 27.17 225.39"/><path class="cls-3" d="M128.06,158.86V154c2.41,0,4-.27,4.86-.8a5,5,0,0,0,2.22-4.54,5.16,5.16,0,0,0-1.61-3.93,5.68,5.68,0,0,0-4.13-1.54,5.3,5.3,0,0,0-3.66,1.15,7.58,7.58,0,0,0-1.86,3.95h-5.66q.89-5.32,3.61-7.8c1.83-1.65,4.37-2.48,7.64-2.48a11.38,11.38,0,0,1,8.09,2.93,9.79,9.79,0,0,1,3.12,7.5,9.29,9.29,0,0,1-4.1,8.05q4.68,2.76,4.69,9a10.87,10.87,0,0,1-3.42,8.3,12.27,12.27,0,0,1-8.77,3.23q-6.81,0-10.1-5a13.05,13.05,0,0,1-1.74-5.81h5.5a6.68,6.68,0,0,0,2.13,4.19,6.57,6.57,0,0,0,4.43,1.45,6.16,6.16,0,0,0,4.57-1.83,6.61,6.61,0,0,0,1.81-4.76c0-2.54-.91-4.35-2.71-5.42A10,10,0,0,0,128.06,158.86Z"/></g></g></svg>