<svg xmlns="http://www.w3.org/2000/svg" viewBox="0 0 262.37 270.63"><defs><style>.cls-1{fill:none;}.cls-2{fill:#80d2f5;}.cls-3{fill:#fff;}</style></defs><title>story-6</title><g id="Layer_2" data-name="Layer 2"><g id="Layer_1-2" data-name="Layer 1"><rect class="cls-1" width="262.37" height="270.63"/><rect class="cls-2" x="72.34" y="28.48" width="117.68" height="213.66" rx="58.84" ry="58.84"/><path class="cls-3" d="M-294.8-634.61l4.18,3.13-9,12.25,1.24-.14a6.9,6.9,0,0,1,.81,0,10.59,10.59,0,0,1,7.93,3.51,11.64,11.64,0,0,1,3.32,8.35,12.1,12.1,0,0,1-3.71,8.89A12.08,12.08,0,0,1-298.9-595a12.69,12.69,0,0,1-9-3.64,11.55,11.55,0,0,1-3.79-8.62q0-4.47,3.69-9.47Zm2.93,27.42a6.93,6.93,0,0,0-2.07-5.08,6.9,6.9,0,0,0-5.06-2.1,6.85,6.85,0,0,0-5.05,2.08,6.82,6.82,0,0,0-2.08,5,6.84,6.84,0,0,0,2.08,5,6.9,6.9,0,0,0,5.08,2.07,6.82,6.82,0,0,0,5-2.07A6.79,6.79,0,0,0-291.87-607.19Z" transform="translate(430 750)"/></g></g></svg>