<svg version="1.1" id="Layer_1" xmlns="http://www.w3.org/2000/svg" xmlns:xlink="http://www.w3.org/1999/xlink" x="0px" y="0px"
	 viewBox="0 0 262.4 270.6" style="enable-background:new 0 0 262.4 270.6;" xml:space="preserve">
<style type="text/css">
	.st0{fill:none;}
	.st1{fill:#F79E7A;}
	.st2{fill:#FFFFFF;}
</style>
<title>story-12</title>
<g>
	<g id="Layer_1-2">
		<rect class="st0" width="262.4" height="270.6"/>
	</g>
</g>
<path class="st1" d="M43.7,197.6c0,5.8,0.3,11.6,1,17.2c3.7,0.6,7.4,1,11.2,1.3c82.4,6.5,154.4-54.9,161-137.3
	c0.8-9.9,0.6-19.6-0.5-29.1c-7.5-1.2-15.2-1.8-23-1.8C110.7,48,43.7,114.9,43.7,197.6z"/>
<g>
	<path class="st2" d="M112.4,119.2h-6.5l3.1-5.3h9.1v37.7h-5.7V119.2z"/>
	<path class="st2" d="M138.8,146.2h14v5.3h-25.3l13.1-15.8c1.3-1.6,2.4-2.9,3.2-4.1c0.9-1.2,1.5-2.1,2-2.9c0.9-1.5,1.4-2.9,1.4-4.1
		c0-1.8-0.6-3.2-1.9-4.4c-1.2-1.2-2.8-1.8-4.6-1.8c-3.8,0-6,2.3-6.5,6.8h-5.7c0.9-7.9,4.9-11.9,12-11.9c3.4,0,6.3,1.1,8.6,3.3
		c2.3,2.2,3.5,4.9,3.5,8.1c0,2.1-0.5,4.1-1.6,6c-0.6,1-1.4,2.2-2.4,3.6c-1.1,1.4-2.4,3.1-4,5L138.8,146.2z"/>
</g>
</svg>
