<svg xmlns="http://www.w3.org/2000/svg" viewBox="0 0 72.5 675.39"><defs><style>.cls-1{fill:#595959;}</style></defs><title>stories-vertical_1</title><g id="Layer_2" data-name="Layer 2"><g id="Layer_1-2" data-name="Layer 1"><path class="cls-1" d="M12.57,60.91l8.07-9.14a12.39,12.39,0,0,0,4.92,5.91,13.85,13.85,0,0,0,7.61,2.16,12.48,12.48,0,0,0,8.07-2.41,8,8,0,0,0,3-6.5q0-4.82-9.88-9.6c-2.14-1-3.82-1.86-5.06-2.5q-8.91-4.65-12.34-9.07A16.73,16.73,0,0,1,13.5,19.2,17,17,0,0,1,20.16,5.4Q26.81,0,37.44,0A24.25,24.25,0,0,1,48.08,2.16,21.55,21.55,0,0,1,56,8.91l-8.58,8.21a10.5,10.5,0,0,0-4.06-4.43,12,12,0,0,0-6.1-1.47,10.65,10.65,0,0,0-7,2.16A6.88,6.88,0,0,0,27.65,19q0,5.38,10.48,9.84c1.39.58,2.46,1.05,3.2,1.39Q50,34.14,54.11,39.1a17.16,17.16,0,0,1,4.15,11.32q0,9.55-6.51,15.24T34.23,71.34a30.33,30.33,0,0,1-13.35-2.69A18,18,0,0,1,12.57,60.91Z"/><path class="cls-1" d="M42.44,114.89v55.57H27.88V114.89H11.27V102.55H59.05v12.34Z"/><path class="cls-1" d="M72.5,234.16a35.39,35.39,0,0,1-2.71,13.78A33.84,33.84,0,0,1,62,259.35a37.43,37.43,0,0,1-11.92,7.74,36.3,36.3,0,0,1-25.91.58,37.48,37.48,0,0,1-10.92-6.05A34.51,34.51,0,0,1,0,234.16a35.26,35.26,0,0,1,2.69-13.75A33.85,33.85,0,0,1,10.58,209a36.68,36.68,0,0,1,39.54-7.7A37.17,37.17,0,0,1,62,209a34.11,34.11,0,0,1,7.84,11.46A35.16,35.16,0,0,1,72.5,234.16Z"/><path class="cls-1" d="M62.64,365.78H45.89L28,334.06v31.72H13.52V297.87H34.3q12.38,0,18.55,4.8T59,317.12a17.88,17.88,0,0,1-4.22,12,16.49,16.49,0,0,1-10.9,5.8Zm-34.6-39h2.18q8.81,0,11.64-1.93t2.83-6.7c0-3.34-1-5.71-3-7.12S35.81,309,30.22,309H28Z"/><path class="cls-1" d="M27.69,469.16V401.25H42.21v67.91Z"/><path class="cls-1" d="M15.12,573.77V505.86h40v12.25H29.64v14H55.1v12.34H29.64v17H55.1v12.34Z"/><path class="cls-1" d="M13.39,665l8.07-9.14a12.34,12.34,0,0,0,4.92,5.91A13.85,13.85,0,0,0,34,663.89q5.1,0,8.07-2.41a7.93,7.93,0,0,0,3-6.5q0-4.82-9.88-9.6c-2.14-1-3.82-1.85-5.06-2.5q-8.91-4.64-12.34-9.07a16.7,16.7,0,0,1-3.43-10.55A17,17,0,0,1,21,609.46q6.65-5.41,17.28-5.41a24.25,24.25,0,0,1,10.64,2.16A21.66,21.66,0,0,1,56.81,613l-8.58,8.21a10.5,10.5,0,0,0-4.06-4.43,12,12,0,0,0-6.1-1.46,10.7,10.7,0,0,0-7,2.15A6.9,6.9,0,0,0,28.47,623q0,5.38,10.48,9.84c1.39.59,2.46,1,3.2,1.39q8.63,3.94,12.78,8.91a17.13,17.13,0,0,1,4.15,11.31q0,9.57-6.51,15.24t-17.51,5.68a30.49,30.49,0,0,1-13.36-2.68A18.11,18.11,0,0,1,13.39,665Z"/></g></g></svg>