<svg xmlns="http://www.w3.org/2000/svg" viewBox="0 0 262.37 270.63"><defs><style>.cls-1{fill:none;}.cls-2{fill:#f59584;}.cls-3{fill:#fff;}</style></defs><title>story-10</title><g id="Layer_2" data-name="Layer 2"><g id="Layer_1-2" data-name="Layer 1"><rect class="cls-1" width="262.37" height="270.63"/><polygon class="cls-2" points="206.26 166.41 237.36 135.31 206.26 104.22 206.26 60.23 162.28 60.23 131.19 29.14 100.09 60.23 56.1 60.23 56.1 104.22 25.01 135.31 56.1 166.41 56.1 210.39 100.09 210.39 131.19 241.49 162.28 210.39 206.26 210.39 206.26 166.41"/><path class="cls-3" d="M111.83,122.65h-6.52l3.13-5.32h9.08V155h-5.69Z"/><path class="cls-3" d="M127.76,135.93q0-9,4.2-14.38,3.76-4.86,9.11-4.86t9.1,4.86q4.2,5.37,4.2,14.63t-4.2,14.6q-3.75,4.84-9.08,4.85T132,150.78Q127.76,145.41,127.76,135.93Zm5.59,0a22.44,22.44,0,0,0,2.17,10.42q2.17,4.08,5.55,4.08c2.23,0,4.07-1.36,5.54-4.08a21.35,21.35,0,0,0,2.2-10.23,21.49,21.49,0,0,0-2.2-10.25c-1.47-2.7-3.31-4.05-5.54-4.05s-4.06,1.35-5.52,4.05A20.74,20.74,0,0,0,133.35,136Z"/></g></g></svg>