<svg xmlns="http://www.w3.org/2000/svg" viewBox="0 0 537.88 71.34"><defs><style>.cls-1{fill:#595959;}</style></defs><title>stories-horizontal</title><g id="Layer_2" data-name="Layer 2"><g id="Layer_1-2" data-name="Layer 1"><path class="cls-1" d="M0,60.91l8.07-9.14A12.39,12.39,0,0,0,13,57.68a13.85,13.85,0,0,0,7.61,2.16,12.48,12.48,0,0,0,8.07-2.41,8,8,0,0,0,3-6.5q0-4.82-9.89-9.6c-2.13-1-3.81-1.86-5.05-2.5Q7.79,34.18,4.36,29.76A16.73,16.73,0,0,1,.93,19.2,17,17,0,0,1,7.58,5.4Q14.24,0,24.86,0A24.29,24.29,0,0,1,35.51,2.16a21.55,21.55,0,0,1,7.91,6.75l-8.58,8.21a10.5,10.5,0,0,0-4.06-4.43,12,12,0,0,0-6.1-1.47,10.65,10.65,0,0,0-7,2.16A6.88,6.88,0,0,0,15.08,19q0,5.38,10.48,9.84c1.39.58,2.46,1.05,3.2,1.39q8.62,3.94,12.78,8.9a17.16,17.16,0,0,1,4.15,11.32q0,9.55-6.52,15.24T21.66,71.34A30.38,30.38,0,0,1,8.3,68.65,18,18,0,0,1,0,60.91Z"/><path class="cls-1" d="M107.64,14V69.53H93.07V14H76.47V1.62h47.78V14Z"/><path class="cls-1" d="M226.32,35.72a35.48,35.48,0,0,1-2.71,13.77,33.87,33.87,0,0,1-7.82,11.42,37.54,37.54,0,0,1-11.92,7.74,36.3,36.3,0,0,1-25.91.58A37.48,37.48,0,0,1,167,63.18a34.51,34.51,0,0,1-13.22-27.46A35.17,35.17,0,0,1,156.51,22a34,34,0,0,1,7.88-11.43A37.31,37.31,0,0,1,190.14.09a36.1,36.1,0,0,1,13.8,2.74,37,37,0,0,1,11.85,7.7A34.4,34.4,0,0,1,223.63,22,35.35,35.35,0,0,1,226.32,35.72Z"/><path class="cls-1" d="M312.39,69.53H295.64L277.78,37.8V69.53H263.26V1.62h20.79q12.38,0,18.55,4.8t6.17,14.45a17.88,17.88,0,0,1-4.22,12,16.51,16.51,0,0,1-10.9,5.8Zm-34.61-39H280q8.82,0,11.65-1.93c1.88-1.28,2.83-3.51,2.83-6.7,0-3.34-1-5.71-3-7.12s-5.84-2.11-11.44-2.11h-2.18Z"/><path class="cls-1" d="M351.51,69.53V1.62H366V69.53Z"/><path class="cls-1" d="M411.92,69.53V1.62h40V13.87H426.44v14h25.47V40.17H426.44v17h25.47V69.53Z"/><path class="cls-1" d="M492.19,60.91l8.07-9.14a12.39,12.39,0,0,0,4.92,5.91,13.81,13.81,0,0,0,7.6,2.16,12.46,12.46,0,0,0,8.07-2.41,8,8,0,0,0,3-6.5q0-4.82-9.88-9.6c-2.13-1-3.82-1.86-5.05-2.5q-8.91-4.65-12.34-9.07a16.73,16.73,0,0,1-3.43-10.56,17,17,0,0,1,6.65-13.8Q506.43,0,517.05,0A24.32,24.32,0,0,1,527.7,2.16a21.55,21.55,0,0,1,7.91,6.75L527,17.12A10.44,10.44,0,0,0,523,12.69a11.89,11.89,0,0,0-6.09-1.47,10.65,10.65,0,0,0-7,2.16A6.87,6.87,0,0,0,507.26,19q0,5.38,10.49,9.84c1.39.58,2.46,1.05,3.2,1.39q8.63,3.94,12.78,8.9a17.21,17.21,0,0,1,4.15,11.32q0,9.55-6.52,15.24t-17.51,5.68a30.38,30.38,0,0,1-13.36-2.69A18,18,0,0,1,492.19,60.91Z"/></g></g></svg>