<svg xmlns="http://www.w3.org/2000/svg" viewBox="0 0 262.37 270.63"><defs><style>.cls-1{fill:none;}.cls-2{fill:#dce24f;}.cls-3{fill:#fff;}</style></defs><title>story-2</title><g id="Layer_2" data-name="Layer 2"><g id="Layer_1-2" data-name="Layer 1"><rect class="cls-1" width="262.37" height="270.63"/><polygon class="cls-2" points="34.39 162.41 53.47 78.39 131.05 40.92 208.71 78.22 227.98 162.19 174.34 229.61 88.18 229.7 34.39 162.41"/><path class="cls-3" d="M127.29,154.94h14v5.34H116l13.09-15.84q1.92-2.37,3.23-4.1a33,33,0,0,0,2-2.91,8.12,8.12,0,0,0,1.39-4.12,5.89,5.89,0,0,0-1.85-4.42,6.38,6.38,0,0,0-4.59-1.79q-5.72,0-6.55,6.77h-5.66q1.36-11.93,12-11.92a12.17,12.17,0,0,1,8.64,3.27,10.66,10.66,0,0,1,3.51,8.11,12.31,12.31,0,0,1-1.63,6,29.68,29.68,0,0,1-2.43,3.65c-1.07,1.41-2.41,3.07-4,5Z"/></g></g></svg>