<svg xmlns="http://www.w3.org/2000/svg" viewBox="0 0 641.52 88.35"><defs><style>.cls-1{fill:#adadad;}.cls-2{fill:#fff;}</style></defs><title>stories horizontal</title><g id="Layer_2" data-name="Layer 2"><g id="Layer_1-2" data-name="Layer 1"><rect class="cls-1" x="276.59" y="-276.59" width="88.35" height="641.52" transform="translate(364.94 -276.59) rotate(90)"/><path class="cls-2" d="M120.3,60.77l5.8-6.57a8.87,8.87,0,0,0,3.53,4.25A10,10,0,0,0,135.1,60a9,9,0,0,0,5.8-1.73A5.71,5.71,0,0,0,143,53.6q0-3.47-7.1-6.9-2.3-1.1-3.63-1.8-6.41-3.33-8.87-6.51A12,12,0,0,1,121,30.8a12.2,12.2,0,0,1,4.78-9.91Q130.54,17,138.16,17a17.35,17.35,0,0,1,7.65,1.55,15.54,15.54,0,0,1,5.69,4.85l-6.17,5.89a7.54,7.54,0,0,0-2.92-3.18A8.61,8.61,0,0,0,138,25.07a7.68,7.68,0,0,0-5,1.55,4.94,4.94,0,0,0-1.9,4q0,3.87,7.53,7.06l2.3,1a25.82,25.82,0,0,1,9.19,6.4,12.38,12.38,0,0,1,3,8.14,13.79,13.79,0,0,1-4.68,10.94q-4.69,4.09-12.59,4.09a21.81,21.81,0,0,1-9.59-1.94A12.92,12.92,0,0,1,120.3,60.77Z"/><path class="cls-2" d="M197.64,27V67H187.17V27H175.24V18.17h34.33V27Z"/><path class="cls-2" d="M282.91,42.67a25.41,25.41,0,0,1-2,9.9,24.37,24.37,0,0,1-5.61,8.2,26.91,26.91,0,0,1-8.57,5.56,26,26,0,0,1-18.61.42,27,27,0,0,1-7.85-4.35,24.77,24.77,0,0,1-9.5-19.73,25.3,25.3,0,0,1,1.93-9.88,24.45,24.45,0,0,1,5.67-8.22A26.11,26.11,0,0,1,246.93,19a26.39,26.39,0,0,1,10-2,26,26,0,0,1,9.91,2,26.69,26.69,0,0,1,8.52,5.53A24.81,24.81,0,0,1,281,32.8,25.36,25.36,0,0,1,282.91,42.67Z"/><path class="cls-2" d="M344.76,67h-12l-12.83-22.8V67H309.46V18.17h14.93q8.89,0,13.33,3.45T342.16,32a12.83,12.83,0,0,1-3,8.6,11.82,11.82,0,0,1-7.83,4.17Z"/><path class="cls-2" d="M372.86,67V18.17H383.3V67Z"/><path class="cls-2" d="M416.27,67V18.17H445V27H426.7V37H445v8.87H426.7V58.1H445V67Z"/><path class="cls-2" d="M473.94,60.77l5.8-6.57a8.89,8.89,0,0,0,3.54,4.25A10,10,0,0,0,488.74,60a9,9,0,0,0,5.8-1.73,5.71,5.71,0,0,0,2.13-4.67q0-3.47-7.09-6.9c-1.54-.73-2.75-1.33-3.64-1.8q-6.39-3.33-8.86-6.51a12,12,0,0,1-2.47-7.59,12.2,12.2,0,0,1,4.78-9.91Q484.17,17,491.81,17a17.41,17.41,0,0,1,7.65,1.55,15.52,15.52,0,0,1,5.68,4.85L499,29.3a7.52,7.52,0,0,0-2.91-3.18,8.61,8.61,0,0,0-4.38-1.05,7.66,7.66,0,0,0-5,1.55,4.94,4.94,0,0,0-1.9,4q0,3.87,7.53,7.06l2.3,1a25.86,25.86,0,0,1,9.18,6.4,12.33,12.33,0,0,1,3,8.14,13.79,13.79,0,0,1-4.68,10.94q-4.68,4.09-12.58,4.09a21.89,21.89,0,0,1-9.6-1.94A12.92,12.92,0,0,1,473.94,60.77Z"/></g></g></svg>