<?xml version="1.0" encoding="utf-8"?>
<!-- Generator: Adobe Illustrator 22.0.1, SVG Export Plug-In . SVG Version: 6.00 Build 0)  -->
<svg version="1.1" id="Layer_1" xmlns="http://www.w3.org/2000/svg" xmlns:xlink="http://www.w3.org/1999/xlink" x="0px" y="0px"
	 viewBox="0 0 262.4 270.6" style="enable-background:new 0 0 262.4 270.6;" xml:space="preserve">
<style type="text/css">
	.st0{fill:#FFFFFF;}
</style>
<title>story-13</title>
<g>
	<polygon class="st0" points="131,135.3 131.3,135.3 131.4,135.3 131,135.3 	"/>
	<path class="st0" d="M0,0v270.6h262.4V0H0z M182.2,189.3c-1.6,25.6-22,46-47.6,47.6c-28,1.7-52-19.6-53.8-47.6h-0.5
		c-28.1,0-50.8-22.7-50.8-50.8s22.7-50.8,50.8-50.8h0.5c-0.1-1.1-0.2-2.1-0.2-3.2c0.4-27.5,22.6-49.7,50.1-50.1
		c28.1-0.4,51.1,22,51.5,50.1c0,1.1-0.1,2.1-0.2,3.2c28,0.1,50.6,22.8,50.6,50.8C232.8,166.5,210.2,189.2,182.2,189.3z"/>
</g>
</svg>
