<?xml version="1.0" encoding="utf-8"?>
<!-- Generator: Adobe Illustrator 22.0.1, SVG Export Plug-In . SVG Version: 6.00 Build 0)  -->
<svg version="1.1" id="Layer_1" xmlns="http://www.w3.org/2000/svg" xmlns:xlink="http://www.w3.org/1999/xlink" x="0px" y="0px"
	 viewBox="0 0 262.4 270.6" style="enable-background:new 0 0 262.4 270.6;" xml:space="preserve">
<style type="text/css">
	.st0{fill:#FFFFFF;}
</style>
<title>story-5</title>
<path class="st0" d="M0,0v270.6h262.4V0H0z M193.2,230.1c-27.8,6.4-55.6-11-62-38.8c-0.6,2.6-1.4,5.1-2.3,7.6
	c-10.5,26.6-40.5,39.6-67.1,29.2S22.2,187.6,32.7,161c10.5-26.6,40.5-39.6,67.1-29.2c-3.7-2.8-7-6.1-9.8-9.7
	c-17.4-22.7-13.1-55.1,9.6-72.5c22.7-17.4,55.1-13.1,72.5,9.6c17.4,22.7,13.1,55.1-9.6,72.5c6-2.4,12.5-3.7,19-3.7
	c24.1-0.1,45.1,16.6,50.5,40.1C238.4,196,221.1,223.7,193.2,230.1z"/>
</svg>
