<svg xmlns="http://www.w3.org/2000/svg" viewBox="0 0 262.37 270.63"><defs><style>.cls-1{fill:none;}.cls-2{fill:#f06d76;}.cls-3{fill:#fff;}</style></defs><title>story-8</title><g id="Layer_2" data-name="Layer 2"><g id="Layer_1-2" data-name="Layer 1"><rect class="cls-1" width="262.37" height="270.63"/><polygon class="cls-2" points="81.26 221.79 31.34 135.31 81.26 48.84 181.11 48.84 231.03 135.31 181.11 221.79 81.26 221.79"/><path class="cls-3" d="M124.45,134.57a9.25,9.25,0,0,1-4.15-8,10.29,10.29,0,0,1,3.15-7.67,10.87,10.87,0,0,1,7.88-3.08,10.68,10.68,0,0,1,7.81,3.08,10.29,10.29,0,0,1,3.13,7.69,9.47,9.47,0,0,1-4.13,7.93,8.83,8.83,0,0,1,3.57,3.57,10.55,10.55,0,0,1,1.32,5.27,11,11,0,0,1-3.28,8.21,11.47,11.47,0,0,1-8.37,3.19,12,12,0,0,1-8.62-3.22,10.67,10.67,0,0,1-3.42-8.1Q119.34,137.1,124.45,134.57Zm.48,8.69a6.27,6.27,0,0,0,1.81,4.49,6.24,6.24,0,0,0,8.86,0,6.12,6.12,0,0,0,1.83-4.45,6.24,6.24,0,0,0-10.66-4.44A6,6,0,0,0,124.93,143.26Zm.71-16.7a5.5,5.5,0,0,0,1.64,4.05,5.65,5.65,0,1,0,0-8A5.34,5.34,0,0,0,125.64,126.56Z"/></g></g></svg>