<svg xmlns="http://www.w3.org/2000/svg" viewBox="0 0 262.37 270.63"><defs><style>.cls-1{fill:none;}.cls-2{fill:#d097c3;}.cls-3{fill:#fff;}</style></defs><title>story-13</title><g id="Layer_2" data-name="Layer 2"><g id="Layer_1-2" data-name="Layer 1"><rect class="cls-1" width="262.37" height="270.63"/><path class="cls-2" d="M232.81,138.49a50.8,50.8,0,0,0-50.62-50.8c.06-1.06.16-2.11.16-3.19a50.82,50.82,0,0,0-101.63,0c0,1.08.1,2.14.17,3.2l-.52,0a50.81,50.81,0,0,0,0,101.62l.51,0a50.75,50.75,0,0,0,101.31,0A50.8,50.8,0,0,0,232.81,138.49Zm-101.47-3.17-.31,0v-.05h.33Z"/><path class="cls-3" d="M111.06,123.45h-6.52l3.12-5.32h9.09v37.69h-5.69Z"/><path class="cls-3" d="M138.22,138.32v-4.86c2.41,0,4-.27,4.86-.8a5,5,0,0,0,2.22-4.55,5.16,5.16,0,0,0-1.61-3.93,5.71,5.71,0,0,0-4.13-1.53,5.35,5.35,0,0,0-3.66,1.14,7.62,7.62,0,0,0-1.86,4h-5.66c.58-3.55,1.79-6.15,3.61-7.8s4.37-2.48,7.64-2.48a11.34,11.34,0,0,1,8.08,2.93,9.77,9.77,0,0,1,3.13,7.5,9.29,9.29,0,0,1-4.1,8q4.68,2.76,4.69,9a10.89,10.89,0,0,1-3.42,8.3,12.27,12.27,0,0,1-8.77,3.23q-6.81,0-10.1-5a13,13,0,0,1-1.74-5.81h5.49a6.74,6.74,0,0,0,2.14,4.19,6.62,6.62,0,0,0,4.43,1.45,6.16,6.16,0,0,0,4.57-1.83,6.6,6.6,0,0,0,1.8-4.76q0-3.81-2.71-5.42A10,10,0,0,0,138.22,138.32Z"/></g></g></svg>