<svg xmlns="http://www.w3.org/2000/svg" viewBox="0 0 262.37 270.63"><defs><style>.cls-1{fill:none;}.cls-2{fill:#f79e7a;}.cls-3{fill:#fff;}</style></defs><title>story-12</title><g id="Layer_2" data-name="Layer 2"><g id="Layer_1-2" data-name="Layer 1"><rect class="cls-1" width="262.37" height="270.63"/><ellipse class="cls-2" cx="131.18" cy="135.31" rx="116.44" ry="60.05" transform="translate(-57.17 128.75) rotate(-43.89)"/><path class="cls-3" d="M113.05,122.22h-6.52l3.13-5.32h9.08v37.69h-5.69Z"/><path class="cls-3" d="M139.43,149.25h14v5.34H128.15l13.08-15.84q1.94-2.37,3.24-4.1a33,33,0,0,0,2-2.91,8.12,8.12,0,0,0,1.39-4.12A5.9,5.9,0,0,0,146,123.2a6.37,6.37,0,0,0-4.59-1.78q-5.72,0-6.55,6.76H129.2q1.37-11.91,12-11.92a12.18,12.18,0,0,1,8.65,3.28,10.62,10.62,0,0,1,3.51,8.1,12.31,12.31,0,0,1-1.63,6,30.89,30.89,0,0,1-2.43,3.65q-1.61,2.12-4,5Z"/></g></g></svg>