<svg xmlns="http://www.w3.org/2000/svg" viewBox="0 0 262.37 270.63"><defs><style>.cls-1{fill:none;}.cls-2{fill:#e6b5d4;}.cls-3{fill:#fff;}</style></defs><title>story-5</title><g id="Layer_2" data-name="Layer 2"><g id="Layer_1-2" data-name="Layer 1"><rect class="cls-1" width="262.37" height="270.63"/><path class="cls-2" d="M181.5,128a51.58,51.58,0,0,0-19,3.69,51.73,51.73,0,1,0-62.77.12,51.72,51.72,0,1,0,31.5,59.51A51.72,51.72,0,1,0,181.5,128Z"/><path class="cls-3" d="M143.21,133H131.59l-1.85,6.25.79-.08.7,0a11.85,11.85,0,0,1,9,3.71,14.2,14.2,0,0,1-.46,19.26A13.91,13.91,0,0,1,129.69,166q-7.5,0-11.82-7l4.3-3.64a13.24,13.24,0,0,0,3.59,4.27,8.25,8.25,0,0,0,10.15-1.17,8.39,8.39,0,0,0,2.32-6,8,8,0,0,0-2.29-5.91,7.67,7.67,0,0,0-5.74-2.37,8.38,8.38,0,0,0-6.62,3.35H121.7l5.94-19.82h15.57Z"/></g></g></svg>