<svg xmlns="http://www.w3.org/2000/svg" viewBox="0 0 262.37 270.63"><defs><style>.cls-1{fill:none;}.cls-2{fill:#f193bd;}.cls-3{fill:#fff;}</style></defs><title>story-9</title><g id="Layer_2" data-name="Layer 2"><g id="Layer_1-2" data-name="Layer 1"><rect class="cls-1" width="262.37" height="270.63"/><path class="cls-2" d="M189.63,147.35h0L132.2,24l-59,122.56h0a66.85,66.85,0,1,0,116.47.75Z"/><path class="cls-3" d="M127.62,180.84l-4.18-3.1,9-12.28-1.24.14a7.2,7.2,0,0,1-.83.05,10.56,10.56,0,0,1-7.91-3.49,11.6,11.6,0,0,1-3.32-8.35,12.63,12.63,0,0,1,12.57-12.6,12.53,12.53,0,0,1,9,3.67,11.49,11.49,0,0,1,3.81,8.59q0,4.4-3.71,9.5Zm-2.93-27.44a7.12,7.12,0,0,0,7.13,7.22,7.13,7.13,0,1,0-5-12.18A6.78,6.78,0,0,0,124.69,153.4Z"/></g></g></svg>