<svg xmlns="http://www.w3.org/2000/svg" viewBox="0 0 334.08 223.94"><defs><style>.cls-1{fill:#111;}</style></defs><title>Asset 36</title><g id="Layer_2" data-name="Layer 2"><g id="Layer_1-2" data-name="Layer 1"><path class="cls-1" d="M332.63,0H1.45c-1,.06-2.7-.52.09,5.51.85,1.84,9.56,23.38,41.05,43,.95.5,18.32,8.43,31.94,12.47,3.36,1.1,5.66,1.84,9.3,3.2,1.84.89,35.46,14.44,38.6,47.16.15.84,1.07,9.25,1.19,9.78a19.88,19.88,0,0,0,2.66,4.29c1.6,1.63,8,8.92,10.29,11.1a21.71,21.71,0,0,1,2.71,2.57,4.81,4.81,0,0,1,.61,5c-.57,1.48-2.12,2.49-3.53,3.28a22,22,0,0,0-3.12,2.05c-.3.55-2.36,1.48,0,5.74a7.65,7.65,0,0,0,1.65,2.08,1.63,1.63,0,0,1,.45.7,3.73,3.73,0,0,1-1.39,4.23c-.29.22-.61.4-.91.61-.68.5-1.63,1,.16,1.56a2.18,2.18,0,0,1,1.26,1.59,4.3,4.3,0,0,1,0,1.68,4.76,4.76,0,0,1-1.29,2.78,15.54,15.54,0,0,0-1.83,1.8,4.56,4.56,0,0,0-.71,1.8,3,3,0,0,0,.32,1.34c.18.48.46.92.67,1.4.35.78.63,1.6,1,2.37a6.09,6.09,0,0,1,.48,4.08,9.82,9.82,0,0,1-3.46,5.59,9.07,9.07,0,0,1-3.15,1.69c-1.42.42-21.29,2-24.33,2.26-8.79.82-12.91,20.53-15.25,29.41a1.43,1.43,0,0,0,1.55,1.86H245.68a1.43,1.43,0,0,0,1.55-1.86c-2.34-8.88-6.46-28.59-15.25-29.41-3-.25-22.91-1.84-24.33-2.26a9.07,9.07,0,0,1-3.15-1.69,9.82,9.82,0,0,1-3.46-5.59,6.09,6.09,0,0,1,.48-4.08c.38-.77.66-1.59,1-2.37.21-.48.49-.92.67-1.4a3,3,0,0,0,.32-1.34,4.56,4.56,0,0,0-.71-1.8,15.54,15.54,0,0,0-1.83-1.8,4.76,4.76,0,0,1-1.29-2.78,4.3,4.3,0,0,1,0-1.68,2.18,2.18,0,0,1,1.26-1.59c1.79-.52.84-1.06.16-1.56-.3-.21-.62-.39-.91-.61a3.73,3.73,0,0,1-1.39-4.23,1.63,1.63,0,0,1,.45-.7,7.65,7.65,0,0,0,1.65-2.08c2.32-4.26.26-5.19,0-5.74a22,22,0,0,0-3.12-2.05c-1.41-.79-3-1.8-3.53-3.28a4.81,4.81,0,0,1,.61-5,21.71,21.71,0,0,1,2.71-2.57c2.28-2.18,8.69-9.47,10.29-11.1a19.88,19.88,0,0,0,2.66-4.29c.12-.53,1-8.94,1.19-9.78,3.14-32.72,36.76-46.27,38.6-47.16,3.64-1.36,5.94-2.1,9.3-3.2,13.62-4,31-12,31.94-12.47,31.49-19.61,40.2-41.15,41.05-43C335.33-.52,333.68.06,332.63,0Z"/></g></g></svg>