<svg xmlns="http://www.w3.org/2000/svg" viewBox="0 0 417.14 596.1"><defs><style>.cls-1{fill:#c0df88;}.cls-2{fill:#ee907b;}.cls-3{fill:#93dacf;}.cls-4{fill:#f89aba;}.cls-5{fill:#d6565b;}.cls-6{fill:#dae343;}.cls-7{fill:#ffa168;}.cls-8{fill:#87d1e6;}.cls-9{fill:#f97fb5;}.cls-10{fill:#ffc56d;}.cls-11{fill:#90d5ac;}.cls-12{fill:#97caeb;}.cls-13{fill:#e88697;}.cls-14{fill:#bb9bc5;}.cls-15{fill:#f6e948;}.cls-16{fill:#ff8d6b;}.cls-17{fill:#111;}</style></defs><title>Asset 53</title><g id="Layer_2" data-name="Layer 2"><g id="Layer_1-2" data-name="Layer 1"><polygon class="cls-1" points="385.02 192.73 395.49 181.68 417.14 202.19 406.67 213.24 384.38 267.53 322.49 332.85 270.11 283.21 332.01 217.89 385.02 192.73"/><polygon class="cls-2" points="126.78 213.62 131.88 238.19 107.31 243.29 93.54 264.27 72.56 250.5 47.99 255.59 42.89 231.02 21.91 217.25 35.68 196.27 30.58 171.7 55.15 166.6 68.92 145.63 89.9 159.39 114.47 154.3 119.57 178.87 140.55 192.64 126.78 213.62"/><polygon class="cls-3" points="132.42 93.72 48.83 129.13 111.84 221.46 154.77 203.24 132.42 93.72"/><path class="cls-4" d="M174.11,78.79a35.42,35.42,0,0,0-38.66,31.63L135,115.3l-5.29-.53a35.33,35.33,0,1,0-7,70.3l5.29.53,70.29,7,7-70.29.48-4.89A35.42,35.42,0,0,0,174.11,78.79Z"/><path class="cls-5" d="M212.8,28.15,219,3.45,201.67,18.83,190.36,0l-1.29,21.89-22.38-5.58,16.91,19a50.42,50.42,0,1,0,29.2-7.18Z"/><polygon class="cls-6" points="211.94 217.71 183.42 164.7 207.08 109.35 265.1 93.33 313.8 128.72 316.51 188.85 271.17 228.46 211.94 217.71"/><polygon class="cls-7" points="382.06 129.74 291.52 162.63 279.33 258.18 369.87 225.29 382.06 129.74"/><polygon class="cls-8" points="308.81 166.07 361.2 109.36 287.57 104.87 248.5 167.69 275.32 169.32 247.06 215.62 270.95 217.07 249.19 269.05 318.08 214.65 297.14 212.94 338.52 168.32 308.81 166.07"/><path class="cls-9" d="M296,231.4l-70.64-67.22-6.2,98.38,0,0A46,46,0,1,0,296,231.4Z"/><path class="cls-10" d="M89,315.76a71.41,71.41,0,0,0,57-83.1L5.62,259.1A71.42,71.42,0,0,0,89,315.76Z"/><polygon class="cls-11" points="146.55 298.6 92.44 311.8 61.02 261.94 55.47 320.64 0 333.92 52.33 356.42 47 414.08 87.28 371.66 142.16 391.31 110.54 342.24 146.55 298.6"/><rect class="cls-12" x="142.23" y="166.3" width="85.95" height="156.04" rx="42.97" ry="42.97" transform="translate(-111.26 166.23) rotate(-38.08)"/><polygon class="cls-13" points="198.49 323.46 142.77 243.17 87.09 323.49 110.77 323.48 110.78 392.28 174.83 392.27 174.81 323.47 198.49 323.46"/><path class="cls-14" d="M360.77,265.9a32.39,32.39,0,0,0-11.66,3.73,32.68,32.68,0,1,0-39.37,4.74,32.67,32.67,0,1,0,24.19,35,32.67,32.67,0,1,0,26.84-43.46Z"/><circle class="cls-15" cx="223.85" cy="345.71" r="64.12"/><ellipse class="cls-16" cx="322.67" cy="345.91" rx="37.6" ry="72.9" transform="translate(-54.27 631.72) rotate(-84.16)"/><path class="cls-14" d="M360.84,265.89a32.58,32.58,0,0,0-11.66,3.73A387.56,387.56,0,0,0,334,309.36a32.68,32.68,0,1,0,26.84-43.47Z"/><path class="cls-17" d="M377.77,372.16H46.6c-1.06.06-2.7-.51.08,5.51.86,1.84,9.56,23.38,41.06,43,.94.5,18.32,8.43,31.93,12.47,3.36,1.11,5.66,1.84,9.3,3.2,1.84.89,35.47,14.44,38.61,47.16.14.84,1.07,9.25,1.19,9.78a19.13,19.13,0,0,0,2.66,4.29c1.59,1.63,8,8.92,10.29,11.1a22.42,22.42,0,0,1,2.71,2.57,4.83,4.83,0,0,1,.61,5c-.57,1.48-2.13,2.49-3.54,3.28a23.5,23.5,0,0,0-3.12,2c-.29.55-2.35,1.48,0,5.74a8.06,8.06,0,0,0,1.65,2.08,1.75,1.75,0,0,1,.46.7,3.75,3.75,0,0,1-1.4,4.23c-.29.22-.61.4-.9.61-.68.5-1.63,1.05.16,1.56a2.17,2.17,0,0,1,1.25,1.59,4.12,4.12,0,0,1,0,1.68,4.77,4.77,0,0,1-1.3,2.78,17.26,17.26,0,0,0-1.83,1.8,4.4,4.4,0,0,0-.7,1.8,2.88,2.88,0,0,0,.31,1.34c.19.48.47.92.68,1.4.34.78.63,1.6,1,2.37a6.09,6.09,0,0,1,.49,4.08,9.84,9.84,0,0,1-3.47,5.59,9,9,0,0,1-3.15,1.69c-1.42.42-21.29,2-24.32,2.26-8.8.82-12.92,20.53-15.25,29.41a1.43,1.43,0,0,0,1.55,1.86H290.82a1.43,1.43,0,0,0,1.55-1.86c-2.33-8.88-6.45-28.59-15.25-29.41-3-.25-22.9-1.84-24.32-2.26a9,9,0,0,1-3.15-1.69,9.84,9.84,0,0,1-3.47-5.59,6.09,6.09,0,0,1,.49-4.08c.37-.77.66-1.59,1-2.37.21-.48.49-.92.68-1.4a2.88,2.88,0,0,0,.31-1.34,4.4,4.4,0,0,0-.7-1.8,17.26,17.26,0,0,0-1.83-1.8,4.77,4.77,0,0,1-1.3-2.78,4.12,4.12,0,0,1,0-1.68,2.17,2.17,0,0,1,1.25-1.59c1.79-.51.84-1.06.16-1.56-.29-.21-.61-.39-.9-.61a3.75,3.75,0,0,1-1.4-4.23,1.75,1.75,0,0,1,.46-.7,8.06,8.06,0,0,0,1.65-2.08c2.31-4.26.25-5.19,0-5.74a23.5,23.5,0,0,0-3.12-2c-1.41-.79-3-1.8-3.54-3.28a4.83,4.83,0,0,1,.61-5,22.42,22.42,0,0,1,2.71-2.57c2.29-2.18,8.7-9.47,10.29-11.1a19.13,19.13,0,0,0,2.66-4.29c.12-.53,1-8.94,1.19-9.78,3.14-32.72,36.77-46.27,38.61-47.16,3.64-1.36,5.94-2.09,9.3-3.2,13.61-4,31-12,31.93-12.47,31.5-19.61,40.2-41.15,41.06-43C380.47,371.65,378.83,372.22,377.77,372.16Z"/><polygon class="cls-11" points="52.41 356.26 47.09 413.93 87.36 371.5 52.41 356.26"/></g></g></svg>